ISO-10303-21;
HEADER;

/* File generated by Shapr3D Version 26.170.11783.0 */

FILE_DESCRIPTION(('HOOPS Exchange Step'),'2;1');

FILE_NAME('C:\\Users\\chang\\AppData\\Local\\Packages\\Shapr3D.Shapr3D_dvv5p1vgwv6mp\\TempState\\export\\temp_export',
'2026-09-22T10:15:39+08:00',
('chang'),
('Shapr3D Limited'),
'HOOPS Exchange 2026.3',
'Shapr3D',
'Authorized');

FILE_SCHEMA( ('AP242_MANAGED_MODEL_BASED_3D_ENGINEERING_MIM_LF {1 0 10303 442 1 1 4}') );

ENDSEC;

DATA;
#3=(NAMED_UNIT(*)PLANE_ANGLE_UNIT()SI_UNIT($,.RADIAN.));
#4=PLANE_ANGLE_MEASURE_WITH_UNIT(PLANE_ANGLE_MEASURE(0.0174532925),#3);
#5=(CONVERSION_BASED_UNIT('DEGREE',#4)NAMED_UNIT(#6)PLANE_ANGLE_UNIT());
#6=DIMENSIONAL_EXPONENTS(0.,0.,0.,0.,0.,0.,0.);
#7=(NAMED_UNIT(*)SI_UNIT($,.STERADIAN.)SOLID_ANGLE_UNIT());
#8=(LENGTH_UNIT()NAMED_UNIT(*)SI_UNIT(.MILLI.,.METRE.));
#9=UNCERTAINTY_MEASURE_WITH_UNIT(LENGTH_MEASURE(1.000000E-05),#8,'DISTANCE_ACCURACY_VALUE','Maximum Tolerance applied to model');
#10=(GEOMETRIC_REPRESENTATION_CONTEXT(3)GLOBAL_UNCERTAINTY_ASSIGNED_CONTEXT((#9))GLOBAL_UNIT_ASSIGNED_CONTEXT((#8,#5,#7))REPRESENTATION_CONTEXT('','root'));
#12=CARTESIAN_POINT('',(0.,0.,0.));
#13=DIRECTION('',(0.,0.,1.));
#14=DIRECTION('',(1.,0.,0.));
#15=AXIS2_PLACEMENT_3D('',#12,#13,#14);
#27=CARTESIAN_POINT('',(-115.5,87.,-9.5));
#28=DIRECTION('',(0.,0.,-1.));
#29=DIRECTION('',(-1.,0.,0.));
#30=AXIS2_PLACEMENT_3D('',#27,#28,#29);
#31=PLANE('',#30);
#32=CARTESIAN_POINT('',(-22.75,58.5,-9.5));
#33=VERTEX_POINT('',#32);
#34=CARTESIAN_POINT('',(-22.805904005,59.994334276,-9.5));
#35=VERTEX_POINT('',#34);
#36=CARTESIAN_POINT('',(-42.75,58.5,-9.5));
#37=DIRECTION('',(-0.,-0.,1.));
#38=DIRECTION('',(1.,-0.,0.));
#39=AXIS2_PLACEMENT_3D('',#36,#37,#38);
#40=CIRCLE('',#39,20.);
#41=EDGE_CURVE('',#33,#35,#40,.T.);
#42=ORIENTED_EDGE('',*,*,#41,.T.);
#43=CARTESIAN_POINT('',(-27.75,64.248737342,-9.5));
#44=VERTEX_POINT('',#43);
#45=CARTESIAN_POINT('',(-27.75,59.248737342,-9.5));
#46=DIRECTION('',(-0.,-0.,1.));
#47=DIRECTION('',(0.,1.,0.));
#48=AXIS2_PLACEMENT_3D('',#45,#46,#47);
#49=CIRCLE('',#48,5.);
#50=EDGE_CURVE('',#35,#44,#49,.T.);
#51=ORIENTED_EDGE('',*,*,#50,.T.);
#52=CARTESIAN_POINT('',(-33.001262658,64.248737342,-9.5));
#53=VERTEX_POINT('',#52);
#54=CARTESIAN_POINT('',(-33.001262658,64.248737342,-9.5));
#55=DIRECTION('',(1.,-0.,0.));
#56=VECTOR('',#55,5.251262658);
#57=LINE('',#54,#56);
#58=EDGE_CURVE('',#53,#44,#57,.T.);
#59=ORIENTED_EDGE('',*,*,#58,.F.);
#60=CARTESIAN_POINT('',(-37.001262658,68.248737342,-9.5));
#61=VERTEX_POINT('',#60);
#62=CARTESIAN_POINT('',(-33.001262658,68.248737342,-9.5));
#63=DIRECTION('',(0.,0.,-1.));
#64=DIRECTION('',(1.,-0.,0.));
#65=AXIS2_PLACEMENT_3D('',#62,#63,#64);
#66=CIRCLE('',#65,4.);
#67=EDGE_CURVE('',#53,#61,#66,.T.);
#68=ORIENTED_EDGE('',*,*,#67,.T.);
#69=CARTESIAN_POINT('',(-37.001262658,73.5,-9.5));
#70=VERTEX_POINT('',#69);
#71=CARTESIAN_POINT('',(-37.001262658,68.248737342,-9.5));
#72=DIRECTION('',(0.,1.,0.));
#73=VECTOR('',#72,5.251262658);
#74=LINE('',#71,#73);
#75=EDGE_CURVE('',#61,#70,#74,.T.);
#76=ORIENTED_EDGE('',*,*,#75,.T.);
#77=CARTESIAN_POINT('',(-41.255665724,78.444095995,-9.5));
#78=VERTEX_POINT('',#77);
#79=CARTESIAN_POINT('',(-42.001262658,73.5,-9.5));
#80=DIRECTION('',(-0.,-0.,1.));
#81=DIRECTION('',(0.,1.,0.));
#82=AXIS2_PLACEMENT_3D('',#79,#80,#81);
#83=CIRCLE('',#82,5.);
#84=EDGE_CURVE('',#70,#78,#83,.T.);
#85=ORIENTED_EDGE('',*,*,#84,.T.);
#86=CARTESIAN_POINT('',(-42.75,78.5,-9.5));
#87=VERTEX_POINT('',#86);
#88=CARTESIAN_POINT('',(-42.75,58.5,-9.5));
#89=DIRECTION('',(-0.,-0.,1.));
#90=DIRECTION('',(1.,-0.,0.));
#91=AXIS2_PLACEMENT_3D('',#88,#89,#90);
#92=CIRCLE('',#91,20.);
#93=EDGE_CURVE('',#78,#87,#92,.T.);
#94=ORIENTED_EDGE('',*,*,#93,.T.);
#95=CARTESIAN_POINT('',(-72.75,78.5,-9.5));
#96=VERTEX_POINT('',#95);
#97=CARTESIAN_POINT('',(-42.75,78.5,-9.5));
#98=DIRECTION('',(-1.,0.,0.));
#99=VECTOR('',#98,30.);
#100=LINE('',#97,#99);
#101=EDGE_CURVE('',#87,#96,#100,.T.);
#102=ORIENTED_EDGE('',*,*,#101,.T.);
#103=CARTESIAN_POINT('',(-74.244334276,78.444095995,-9.5));
#104=VERTEX_POINT('',#103);
#105=CARTESIAN_POINT('',(-72.75,58.5,-9.5));
#106=DIRECTION('',(-0.,-0.,1.));
#107=DIRECTION('',(1.,-0.,0.));
#108=AXIS2_PLACEMENT_3D('',#105,#106,#107);
#109=CIRCLE('',#108,20.);
#110=EDGE_CURVE('',#96,#104,#109,.T.);
#111=ORIENTED_EDGE('',*,*,#110,.T.);
#112=CARTESIAN_POINT('',(-78.498737342,73.5,-9.5));
#113=VERTEX_POINT('',#112);
#114=CARTESIAN_POINT('',(-73.498737342,73.5,-9.5));
#115=DIRECTION('',(-0.,-0.,1.));
#116=DIRECTION('',(-1.,0.,0.));
#117=AXIS2_PLACEMENT_3D('',#114,#115,#116);
#118=CIRCLE('',#117,5.);
#119=EDGE_CURVE('',#104,#113,#118,.T.);
#120=ORIENTED_EDGE('',*,*,#119,.T.);
#121=CARTESIAN_POINT('',(-78.498737342,68.248737342,-9.5));
#122=VERTEX_POINT('',#121);
#123=CARTESIAN_POINT('',(-78.498737342,68.248737342,-9.5));
#124=DIRECTION('',(0.,1.,0.));
#125=VECTOR('',#124,5.251262658);
#126=LINE('',#123,#125);
#127=EDGE_CURVE('',#122,#113,#126,.T.);
#128=ORIENTED_EDGE('',*,*,#127,.F.);
#129=CARTESIAN_POINT('',(-82.498737342,64.248737342,-9.5));
#130=VERTEX_POINT('',#129);
#131=CARTESIAN_POINT('',(-82.498737342,68.248737342,-9.5));
#132=DIRECTION('',(0.,0.,-1.));
#133=DIRECTION('',(1.,-0.,0.));
#134=AXIS2_PLACEMENT_3D('',#131,#132,#133);
#135=CIRCLE('',#134,4.);
#136=EDGE_CURVE('',#122,#130,#135,.T.);
#137=ORIENTED_EDGE('',*,*,#136,.T.);
#138=CARTESIAN_POINT('',(-87.75,64.248737342,-9.5));
#139=VERTEX_POINT('',#138);
#140=CARTESIAN_POINT('',(-82.498737342,64.248737342,-9.5));
#141=DIRECTION('',(-1.,0.,0.));
#142=VECTOR('',#141,5.251262658);
#143=LINE('',#140,#142);
#144=EDGE_CURVE('',#130,#139,#143,.T.);
#145=ORIENTED_EDGE('',*,*,#144,.T.);
#146=CARTESIAN_POINT('',(-92.694095995,59.994334276,-9.5));
#147=VERTEX_POINT('',#146);
#148=CARTESIAN_POINT('',(-87.75,59.248737342,-9.5));
#149=DIRECTION('',(-0.,-0.,1.));
#150=DIRECTION('',(-1.,0.,0.));
#151=AXIS2_PLACEMENT_3D('',#148,#149,#150);
#152=CIRCLE('',#151,5.);
#153=EDGE_CURVE('',#139,#147,#152,.T.);
#154=ORIENTED_EDGE('',*,*,#153,.T.);
#155=CARTESIAN_POINT('',(-92.75,58.5,-9.5));
#156=VERTEX_POINT('',#155);
#157=CARTESIAN_POINT('',(-72.75,58.5,-9.5));
#158=DIRECTION('',(-0.,-0.,1.));
#159=DIRECTION('',(1.,-0.,0.));
#160=AXIS2_PLACEMENT_3D('',#157,#158,#159);
#161=CIRCLE('',#160,20.);
#162=EDGE_CURVE('',#147,#156,#161,.T.);
#163=ORIENTED_EDGE('',*,*,#162,.T.);
#164=CARTESIAN_POINT('',(-92.75,28.5,-9.5));
#165=VERTEX_POINT('',#164);
#166=CARTESIAN_POINT('',(-92.75,58.5,-9.5));
#167=DIRECTION('',(-0.,-1.,0.));
#168=VECTOR('',#167,30.);
#169=LINE('',#166,#168);
#170=EDGE_CURVE('',#156,#165,#169,.T.);
#171=ORIENTED_EDGE('',*,*,#170,.T.);
#172=CARTESIAN_POINT('',(-92.694095995,27.005665724,-9.5));
#173=VERTEX_POINT('',#172);
#174=CARTESIAN_POINT('',(-72.75,28.5,-9.5));
#175=DIRECTION('',(-0.,-0.,1.));
#176=DIRECTION('',(1.,-0.,0.));
#177=AXIS2_PLACEMENT_3D('',#174,#175,#176);
#178=CIRCLE('',#177,20.);
#179=EDGE_CURVE('',#165,#173,#178,.T.);
#180=ORIENTED_EDGE('',*,*,#179,.T.);
#181=CARTESIAN_POINT('',(-87.75,22.751262658,-9.5));
#182=VERTEX_POINT('',#181);
#183=CARTESIAN_POINT('',(-87.75,27.751262658,-9.5));
#184=DIRECTION('',(0.,-0.,1.));
#185=DIRECTION('',(-0.,-1.,0.));
#186=AXIS2_PLACEMENT_3D('',#183,#184,#185);
#187=CIRCLE('',#186,5.);
#188=EDGE_CURVE('',#173,#182,#187,.T.);
#189=ORIENTED_EDGE('',*,*,#188,.T.);
#190=CARTESIAN_POINT('',(-82.498737342,22.751262658,-9.5));
#191=VERTEX_POINT('',#190);
#192=CARTESIAN_POINT('',(-82.498737342,22.751262658,-9.5));
#193=DIRECTION('',(-1.,0.,0.));
#194=VECTOR('',#193,5.251262658);
#195=LINE('',#192,#194);
#196=EDGE_CURVE('',#191,#182,#195,.T.);
#197=ORIENTED_EDGE('',*,*,#196,.F.);
#198=CARTESIAN_POINT('',(-78.498737342,18.751262658,-9.5));
#199=VERTEX_POINT('',#198);
#200=CARTESIAN_POINT('',(-82.498737342,18.751262658,-9.5));
#201=DIRECTION('',(0.,0.,-1.));
#202=DIRECTION('',(1.,-0.,0.));
#203=AXIS2_PLACEMENT_3D('',#200,#201,#202);
#204=CIRCLE('',#203,4.);
#205=EDGE_CURVE('',#191,#199,#204,.T.);
#206=ORIENTED_EDGE('',*,*,#205,.T.);
#207=CARTESIAN_POINT('',(-78.498737342,13.5,-9.5));
#208=VERTEX_POINT('',#207);
#209=CARTESIAN_POINT('',(-78.498737342,18.751262658,-9.5));
#210=DIRECTION('',(-0.,-1.,0.));
#211=VECTOR('',#210,5.251262658);
#212=LINE('',#209,#211);
#213=EDGE_CURVE('',#199,#208,#212,.T.);
#214=ORIENTED_EDGE('',*,*,#213,.T.);
#215=CARTESIAN_POINT('',(-74.244334276,8.555904005,-9.5));
#216=VERTEX_POINT('',#215);
#217=CARTESIAN_POINT('',(-73.498737342,13.5,-9.5));
#218=DIRECTION('',(0.,-0.,1.));
#219=DIRECTION('',(-0.,-1.,0.));
#220=AXIS2_PLACEMENT_3D('',#217,#218,#219);
#221=CIRCLE('',#220,5.);
#222=EDGE_CURVE('',#208,#216,#221,.T.);
#223=ORIENTED_EDGE('',*,*,#222,.T.);
#224=CARTESIAN_POINT('',(-72.75,8.5,-9.5));
#225=VERTEX_POINT('',#224);
#226=CARTESIAN_POINT('',(-72.75,28.5,-9.5));
#227=DIRECTION('',(-0.,-0.,1.));
#228=DIRECTION('',(1.,-0.,0.));
#229=AXIS2_PLACEMENT_3D('',#226,#227,#228);
#230=CIRCLE('',#229,20.);
#231=EDGE_CURVE('',#216,#225,#230,.T.);
#232=ORIENTED_EDGE('',*,*,#231,.T.);
#233=CARTESIAN_POINT('',(-42.75,8.5,-9.5));
#234=VERTEX_POINT('',#233);
#235=CARTESIAN_POINT('',(-72.75,8.5,-9.5));
#236=DIRECTION('',(1.,-0.,0.));
#237=VECTOR('',#236,30.);
#238=LINE('',#235,#237);
#239=EDGE_CURVE('',#225,#234,#238,.T.);
#240=ORIENTED_EDGE('',*,*,#239,.T.);
#241=CARTESIAN_POINT('',(-41.255665724,8.555904005,-9.5));
#242=VERTEX_POINT('',#241);
#243=CARTESIAN_POINT('',(-42.75,28.5,-9.5));
#244=DIRECTION('',(-0.,-0.,1.));
#245=DIRECTION('',(-1.,0.,0.));
#246=AXIS2_PLACEMENT_3D('',#243,#244,#245);
#247=CIRCLE('',#246,20.);
#248=EDGE_CURVE('',#234,#242,#247,.T.);
#249=ORIENTED_EDGE('',*,*,#248,.T.);
#250=CARTESIAN_POINT('',(-37.001262658,13.5,-9.5));
#251=VERTEX_POINT('',#250);
#252=CARTESIAN_POINT('',(-42.001262658,13.5,-9.5));
#253=DIRECTION('',(-0.,-0.,1.));
#254=DIRECTION('',(1.,-0.,0.));
#255=AXIS2_PLACEMENT_3D('',#252,#253,#254);
#256=CIRCLE('',#255,5.);
#257=EDGE_CURVE('',#242,#251,#256,.T.);
#258=ORIENTED_EDGE('',*,*,#257,.T.);
#259=CARTESIAN_POINT('',(-37.001262658,18.751262658,-9.5));
#260=VERTEX_POINT('',#259);
#261=CARTESIAN_POINT('',(-37.001262658,18.751262658,-9.5));
#262=DIRECTION('',(-0.,-1.,0.));
#263=VECTOR('',#262,5.251262658);
#264=LINE('',#261,#263);
#265=EDGE_CURVE('',#260,#251,#264,.T.);
#266=ORIENTED_EDGE('',*,*,#265,.F.);
#267=CARTESIAN_POINT('',(-33.001262658,22.751262658,-9.5));
#268=VERTEX_POINT('',#267);
#269=CARTESIAN_POINT('',(-33.001262658,18.751262658,-9.5));
#270=DIRECTION('',(-0.,-0.,1.));
#271=DIRECTION('',(1.,-0.,0.));
#272=AXIS2_PLACEMENT_3D('',#269,#270,#271);
#273=CIRCLE('',#272,4.);
#274=EDGE_CURVE('',#268,#260,#273,.T.);
#275=ORIENTED_EDGE('',*,*,#274,.F.);
#276=CARTESIAN_POINT('',(-27.75,22.751262658,-9.5));
#277=VERTEX_POINT('',#276);
#278=CARTESIAN_POINT('',(-33.001262658,22.751262658,-9.5));
#279=DIRECTION('',(1.,-0.,0.));
#280=VECTOR('',#279,5.251262658);
#281=LINE('',#278,#280);
#282=EDGE_CURVE('',#268,#277,#281,.T.);
#283=ORIENTED_EDGE('',*,*,#282,.T.);
#284=CARTESIAN_POINT('',(-22.805904005,27.005665724,-9.5));
#285=VERTEX_POINT('',#284);
#286=CARTESIAN_POINT('',(-27.75,27.751262658,-9.5));
#287=DIRECTION('',(-0.,-0.,1.));
#288=DIRECTION('',(1.,-0.,0.));
#289=AXIS2_PLACEMENT_3D('',#286,#287,#288);
#290=CIRCLE('',#289,5.);
#291=EDGE_CURVE('',#277,#285,#290,.T.);
#292=ORIENTED_EDGE('',*,*,#291,.T.);
#293=CARTESIAN_POINT('',(-22.75,28.5,-9.5));
#294=VERTEX_POINT('',#293);
#295=CARTESIAN_POINT('',(-42.75,28.5,-9.5));
#296=DIRECTION('',(-0.,-0.,1.));
#297=DIRECTION('',(-1.,0.,0.));
#298=AXIS2_PLACEMENT_3D('',#295,#296,#297);
#299=CIRCLE('',#298,20.);
#300=EDGE_CURVE('',#285,#294,#299,.T.);
#301=ORIENTED_EDGE('',*,*,#300,.T.);
#302=CARTESIAN_POINT('',(-22.75,58.5,-9.5));
#303=DIRECTION('',(-0.,-1.,0.));
#304=VECTOR('',#303,30.);
#305=LINE('',#302,#304);
#306=EDGE_CURVE('',#33,#294,#305,.T.);
#307=ORIENTED_EDGE('',*,*,#306,.F.);
#308=EDGE_LOOP('',(#42,#51,#59,#68,#76,#85,#94,#102,#111,#120,#128,#137,#145,#154,#163,#171,#180,#189,#197,#206,#214,#223,#232,#240,#249,#258,
#266,#275,#283,#292,#301,#307));
#309=FACE_BOUND('',#308,.T.);
#310=ADVANCED_FACE('',(#309),#31,.F.);
#311=CARTESIAN_POINT('',(-115.5,87.,-9.5));
#312=DIRECTION('',(0.,0.,-1.));
#313=DIRECTION('',(-1.,0.,0.));
#314=AXIS2_PLACEMENT_3D('',#311,#312,#313);
#315=PLANE('',#314);
#316=CARTESIAN_POINT('',(-22.75,59.248737342,-9.5));
#317=VERTEX_POINT('',#316);
#318=CARTESIAN_POINT('',(-22.75,58.5,-9.5));
#319=DIRECTION('',(0.,1.,0.));
#320=VECTOR('',#319,0.748737342);
#321=LINE('',#318,#320);
#322=EDGE_CURVE('',#33,#317,#321,.T.);
#323=ORIENTED_EDGE('',*,*,#322,.T.);
#324=CARTESIAN_POINT('',(-27.75,59.248737342,-9.5));
#325=DIRECTION('',(-0.,-0.,1.));
#326=DIRECTION('',(0.,1.,0.));
#327=AXIS2_PLACEMENT_3D('',#324,#325,#326);
#328=CIRCLE('',#327,5.);
#329=EDGE_CURVE('',#317,#35,#328,.T.);
#330=ORIENTED_EDGE('',*,*,#329,.T.);
#331=ORIENTED_EDGE('',*,*,#41,.F.);
#332=EDGE_LOOP('',(#323,#330,#331));
#333=FACE_BOUND('',#332,.T.);
#334=ADVANCED_FACE('',(#333),#315,.F.);
#335=CARTESIAN_POINT('',(-57.75,78.5,-7.8));
#336=DIRECTION('',(0.,-1.,0.));
#337=DIRECTION('',(0.,0.,-1.));
#338=AXIS2_PLACEMENT_3D('',#335,#336,#337);
#339=PLANE('',#338);
#340=CARTESIAN_POINT('',(-42.001262658,78.5,-9.5));
#341=VERTEX_POINT('',#340);
#342=CARTESIAN_POINT('',(-42.001262658,78.5,-9.5));
#343=DIRECTION('',(-1.,0.,0.));
#344=VECTOR('',#343,0.748737342);
#345=LINE('',#342,#344);
#346=EDGE_CURVE('',#341,#87,#345,.T.);
#347=ORIENTED_EDGE('',*,*,#346,.F.);
#348=CARTESIAN_POINT('',(-42.001262658,78.5,-9.));
#349=VERTEX_POINT('',#348);
#350=CARTESIAN_POINT('',(-42.001262658,78.5,-9.5));
#351=DIRECTION('',(0.,0.,1.));
#352=VECTOR('',#351,0.5);
#353=LINE('',#350,#352);
#354=EDGE_CURVE('',#341,#349,#353,.T.);
#355=ORIENTED_EDGE('',*,*,#354,.T.);
#356=CARTESIAN_POINT('',(-73.498737342,78.5,-9.));
#357=VERTEX_POINT('',#356);
#358=CARTESIAN_POINT('',(-73.498737342,78.5,-9.));
#359=DIRECTION('',(1.,0.,-0.));
#360=VECTOR('',#359,31.497474683);
#361=LINE('',#358,#360);
#362=EDGE_CURVE('',#357,#349,#361,.T.);
#363=ORIENTED_EDGE('',*,*,#362,.F.);
#364=CARTESIAN_POINT('',(-73.498737342,78.5,-9.5));
#365=VERTEX_POINT('',#364);
#366=CARTESIAN_POINT('',(-73.498737342,78.5,-9.));
#367=DIRECTION('',(0.,0.,-1.));
#368=VECTOR('',#367,0.5);
#369=LINE('',#366,#368);
#370=EDGE_CURVE('',#357,#365,#369,.T.);
#371=ORIENTED_EDGE('',*,*,#370,.T.);
#372=CARTESIAN_POINT('',(-72.75,78.5,-9.5));
#373=DIRECTION('',(-1.,0.,0.));
#374=VECTOR('',#373,0.748737342);
#375=LINE('',#372,#374);
#376=EDGE_CURVE('',#96,#365,#375,.T.);
#377=ORIENTED_EDGE('',*,*,#376,.F.);
#378=ORIENTED_EDGE('',*,*,#101,.F.);
#379=EDGE_LOOP('',(#347,#355,#363,#371,#377,#378));
#380=FACE_BOUND('',#379,.T.);
#381=ADVANCED_FACE('',(#380),#339,.T.);
#382=CARTESIAN_POINT('',(-22.75,43.5,-7.8));
#383=DIRECTION('',(-1.,0.,0.));
#384=DIRECTION('',(0.,0.,1.));
#385=AXIS2_PLACEMENT_3D('',#382,#383,#384);
#386=PLANE('',#385);
#387=CARTESIAN_POINT('',(-22.75,59.248737342,-9.));
#388=VERTEX_POINT('',#387);
#389=CARTESIAN_POINT('',(-22.75,27.751262658,-9.));
#390=VERTEX_POINT('',#389);
#391=CARTESIAN_POINT('',(-22.75,59.248737342,-9.));
#392=DIRECTION('',(0.,-1.,0.));
#393=VECTOR('',#392,31.497474683);
#394=LINE('',#391,#393);
#395=EDGE_CURVE('',#388,#390,#394,.T.);
#396=ORIENTED_EDGE('',*,*,#395,.F.);
#397=CARTESIAN_POINT('',(-22.75,59.248737342,-9.));
#398=DIRECTION('',(0.,0.,-1.));
#399=VECTOR('',#398,0.5);
#400=LINE('',#397,#399);
#401=EDGE_CURVE('',#388,#317,#400,.T.);
#402=ORIENTED_EDGE('',*,*,#401,.T.);
#403=ORIENTED_EDGE('',*,*,#322,.F.);
#404=ORIENTED_EDGE('',*,*,#306,.T.);
#405=CARTESIAN_POINT('',(-22.75,27.751262658,-9.5));
#406=VERTEX_POINT('',#405);
#407=CARTESIAN_POINT('',(-22.75,28.5,-9.5));
#408=DIRECTION('',(-0.,-1.,0.));
#409=VECTOR('',#408,0.748737342);
#410=LINE('',#407,#409);
#411=EDGE_CURVE('',#294,#406,#410,.T.);
#412=ORIENTED_EDGE('',*,*,#411,.T.);
#413=CARTESIAN_POINT('',(-22.75,27.751262658,-9.5));
#414=DIRECTION('',(0.,0.,1.));
#415=VECTOR('',#414,0.5);
#416=LINE('',#413,#415);
#417=EDGE_CURVE('',#406,#390,#416,.T.);
#418=ORIENTED_EDGE('',*,*,#417,.T.);
#419=EDGE_LOOP('',(#396,#402,#403,#404,#412,#418));
#420=FACE_BOUND('',#419,.T.);
#421=ADVANCED_FACE('',(#420),#386,.T.);
#422=CARTESIAN_POINT('',(-57.75,8.5,-7.8));
#423=DIRECTION('',(0.,1.,0.));
#424=DIRECTION('',(0.,0.,-1.));
#425=AXIS2_PLACEMENT_3D('',#422,#423,#424);
#426=PLANE('',#425);
#427=CARTESIAN_POINT('',(-42.001262658,8.5,-9.));
#428=VERTEX_POINT('',#427);
#429=CARTESIAN_POINT('',(-73.498737342,8.5,-9.));
#430=VERTEX_POINT('',#429);
#431=CARTESIAN_POINT('',(-42.001262658,8.5,-9.));
#432=DIRECTION('',(-1.,0.,0.));
#433=VECTOR('',#432,31.497474683);
#434=LINE('',#431,#433);
#435=EDGE_CURVE('',#428,#430,#434,.T.);
#436=ORIENTED_EDGE('',*,*,#435,.F.);
#437=CARTESIAN_POINT('',(-42.001262658,8.5,-9.5));
#438=VERTEX_POINT('',#437);
#439=CARTESIAN_POINT('',(-42.001262658,8.5,-9.));
#440=DIRECTION('',(0.,0.,-1.));
#441=VECTOR('',#440,0.5);
#442=LINE('',#439,#441);
#443=EDGE_CURVE('',#428,#438,#442,.T.);
#444=ORIENTED_EDGE('',*,*,#443,.T.);
#445=CARTESIAN_POINT('',(-42.75,8.5,-9.5));
#446=DIRECTION('',(1.,-0.,0.));
#447=VECTOR('',#446,0.748737342);
#448=LINE('',#445,#447);
#449=EDGE_CURVE('',#234,#438,#448,.T.);
#450=ORIENTED_EDGE('',*,*,#449,.F.);
#451=ORIENTED_EDGE('',*,*,#239,.F.);
#452=CARTESIAN_POINT('',(-73.498737342,8.5,-9.5));
#453=VERTEX_POINT('',#452);
#454=CARTESIAN_POINT('',(-72.75,8.5,-9.5));
#455=DIRECTION('',(-1.,0.,0.));
#456=VECTOR('',#455,0.748737342);
#457=LINE('',#454,#456);
#458=EDGE_CURVE('',#225,#453,#457,.T.);
#459=ORIENTED_EDGE('',*,*,#458,.T.);
#460=CARTESIAN_POINT('',(-73.498737342,8.5,-9.5));
#461=DIRECTION('',(0.,0.,1.));
#462=VECTOR('',#461,0.5);
#463=LINE('',#460,#462);
#464=EDGE_CURVE('',#453,#430,#463,.T.);
#465=ORIENTED_EDGE('',*,*,#464,.T.);
#466=EDGE_LOOP('',(#436,#444,#450,#451,#459,#465));
#467=FACE_BOUND('',#466,.T.);
#468=ADVANCED_FACE('',(#467),#426,.T.);
#469=CARTESIAN_POINT('',(-115.5,87.,-9.5));
#470=DIRECTION('',(0.,0.,-1.));
#471=DIRECTION('',(-1.,0.,0.));
#472=AXIS2_PLACEMENT_3D('',#469,#470,#471);
#473=PLANE('',#472);
#474=ORIENTED_EDGE('',*,*,#248,.F.);
#475=ORIENTED_EDGE('',*,*,#449,.T.);
#476=CARTESIAN_POINT('',(-42.001262658,13.5,-9.5));
#477=DIRECTION('',(-0.,-0.,1.));
#478=DIRECTION('',(1.,-0.,0.));
#479=AXIS2_PLACEMENT_3D('',#476,#477,#478);
#480=CIRCLE('',#479,5.);
#481=EDGE_CURVE('',#438,#242,#480,.T.);
#482=ORIENTED_EDGE('',*,*,#481,.T.);
#483=EDGE_LOOP('',(#474,#475,#482));
#484=FACE_BOUND('',#483,.T.);
#485=ADVANCED_FACE('',(#484),#473,.F.);
#486=CARTESIAN_POINT('',(-115.5,87.,-9.5));
#487=DIRECTION('',(0.,0.,-1.));
#488=DIRECTION('',(-1.,0.,0.));
#489=AXIS2_PLACEMENT_3D('',#486,#487,#488);
#490=PLANE('',#489);
#491=ORIENTED_EDGE('',*,*,#300,.F.);
#492=CARTESIAN_POINT('',(-27.75,27.751262658,-9.5));
#493=DIRECTION('',(-0.,-0.,1.));
#494=DIRECTION('',(1.,-0.,0.));
#495=AXIS2_PLACEMENT_3D('',#492,#493,#494);
#496=CIRCLE('',#495,5.);
#497=EDGE_CURVE('',#285,#406,#496,.T.);
#498=ORIENTED_EDGE('',*,*,#497,.T.);
#499=ORIENTED_EDGE('',*,*,#411,.F.);
#500=EDGE_LOOP('',(#491,#498,#499));
#501=FACE_BOUND('',#500,.T.);
#502=ADVANCED_FACE('',(#501),#490,.F.);
#503=CARTESIAN_POINT('',(-115.5,87.,-9.5));
#504=DIRECTION('',(0.,0.,-1.));
#505=DIRECTION('',(-1.,0.,0.));
#506=AXIS2_PLACEMENT_3D('',#503,#504,#505);
#507=PLANE('',#506);
#508=CARTESIAN_POINT('',(-92.75,27.751262658,-9.5));
#509=VERTEX_POINT('',#508);
#510=CARTESIAN_POINT('',(-92.75,27.751262658,-9.5));
#511=DIRECTION('',(0.,1.,0.));
#512=VECTOR('',#511,0.748737342);
#513=LINE('',#510,#512);
#514=EDGE_CURVE('',#509,#165,#513,.T.);
#515=ORIENTED_EDGE('',*,*,#514,.F.);
#516=CARTESIAN_POINT('',(-87.75,27.751262658,-9.5));
#517=DIRECTION('',(0.,-0.,1.));
#518=DIRECTION('',(-0.,-1.,0.));
#519=AXIS2_PLACEMENT_3D('',#516,#517,#518);
#520=CIRCLE('',#519,5.);
#521=EDGE_CURVE('',#509,#173,#520,.T.);
#522=ORIENTED_EDGE('',*,*,#521,.T.);
#523=ORIENTED_EDGE('',*,*,#179,.F.);
#524=EDGE_LOOP('',(#515,#522,#523));
#525=FACE_BOUND('',#524,.T.);
#526=ADVANCED_FACE('',(#525),#507,.F.);
#527=CARTESIAN_POINT('',(-115.5,87.,-9.5));
#528=DIRECTION('',(0.,0.,-1.));
#529=DIRECTION('',(-1.,0.,0.));
#530=AXIS2_PLACEMENT_3D('',#527,#528,#529);
#531=PLANE('',#530);
#532=ORIENTED_EDGE('',*,*,#231,.F.);
#533=CARTESIAN_POINT('',(-73.498737342,13.5,-9.5));
#534=DIRECTION('',(0.,-0.,1.));
#535=DIRECTION('',(-0.,-1.,0.));
#536=AXIS2_PLACEMENT_3D('',#533,#534,#535);
#537=CIRCLE('',#536,5.);
#538=EDGE_CURVE('',#216,#453,#537,.T.);
#539=ORIENTED_EDGE('',*,*,#538,.T.);
#540=ORIENTED_EDGE('',*,*,#458,.F.);
#541=EDGE_LOOP('',(#532,#539,#540));
#542=FACE_BOUND('',#541,.T.);
#543=ADVANCED_FACE('',(#542),#531,.F.);
#544=CARTESIAN_POINT('',(-115.5,87.,-9.5));
#545=DIRECTION('',(0.,0.,-1.));
#546=DIRECTION('',(-1.,0.,0.));
#547=AXIS2_PLACEMENT_3D('',#544,#545,#546);
#548=PLANE('',#547);
#549=ORIENTED_EDGE('',*,*,#162,.F.);
#550=CARTESIAN_POINT('',(-92.75,59.248737342,-9.5));
#551=VERTEX_POINT('',#550);
#552=CARTESIAN_POINT('',(-87.75,59.248737342,-9.5));
#553=DIRECTION('',(-0.,-0.,1.));
#554=DIRECTION('',(-1.,0.,0.));
#555=AXIS2_PLACEMENT_3D('',#552,#553,#554);
#556=CIRCLE('',#555,5.);
#557=EDGE_CURVE('',#147,#551,#556,.T.);
#558=ORIENTED_EDGE('',*,*,#557,.T.);
#559=CARTESIAN_POINT('',(-92.75,58.5,-9.5));
#560=DIRECTION('',(0.,1.,0.));
#561=VECTOR('',#560,0.748737342);
#562=LINE('',#559,#561);
#563=EDGE_CURVE('',#156,#551,#562,.T.);
#564=ORIENTED_EDGE('',*,*,#563,.F.);
#565=EDGE_LOOP('',(#549,#558,#564));
#566=FACE_BOUND('',#565,.T.);
#567=ADVANCED_FACE('',(#566),#548,.F.);
#568=CARTESIAN_POINT('',(-115.5,87.,-9.5));
#569=DIRECTION('',(0.,0.,-1.));
#570=DIRECTION('',(-1.,0.,0.));
#571=AXIS2_PLACEMENT_3D('',#568,#569,#570);
#572=PLANE('',#571);
#573=ORIENTED_EDGE('',*,*,#110,.F.);
#574=ORIENTED_EDGE('',*,*,#376,.T.);
#575=CARTESIAN_POINT('',(-73.498737342,73.5,-9.5));
#576=DIRECTION('',(-0.,-0.,1.));
#577=DIRECTION('',(-1.,0.,0.));
#578=AXIS2_PLACEMENT_3D('',#575,#576,#577);
#579=CIRCLE('',#578,5.);
#580=EDGE_CURVE('',#365,#104,#579,.T.);
#581=ORIENTED_EDGE('',*,*,#580,.T.);
#582=EDGE_LOOP('',(#573,#574,#581));
#583=FACE_BOUND('',#582,.T.);
#584=ADVANCED_FACE('',(#583),#572,.F.);
#585=CARTESIAN_POINT('',(-115.5,87.,-9.5));
#586=DIRECTION('',(0.,0.,-1.));
#587=DIRECTION('',(-1.,0.,0.));
#588=AXIS2_PLACEMENT_3D('',#585,#586,#587);
#589=PLANE('',#588);
#590=ORIENTED_EDGE('',*,*,#93,.F.);
#591=CARTESIAN_POINT('',(-42.001262658,73.5,-9.5));
#592=DIRECTION('',(-0.,-0.,1.));
#593=DIRECTION('',(0.,1.,0.));
#594=AXIS2_PLACEMENT_3D('',#591,#592,#593);
#595=CIRCLE('',#594,5.);
#596=EDGE_CURVE('',#78,#341,#595,.T.);
#597=ORIENTED_EDGE('',*,*,#596,.T.);
#598=ORIENTED_EDGE('',*,*,#346,.T.);
#599=EDGE_LOOP('',(#590,#597,#598));
#600=FACE_BOUND('',#599,.T.);
#601=ADVANCED_FACE('',(#600),#589,.F.);
#602=CARTESIAN_POINT('',(-115.5,87.,-10.5));
#603=DIRECTION('',(0.,0.,-1.));
#604=DIRECTION('',(1.,-0.,0.));
#605=AXIS2_PLACEMENT_3D('',#602,#603,#604);
#606=PLANE('',#605);
#607=CARTESIAN_POINT('',(-42.75,80.5,-10.5));
#608=VERTEX_POINT('',#607);
#609=CARTESIAN_POINT('',(-20.75,58.5,-10.5));
#610=VERTEX_POINT('',#609);
#611=CARTESIAN_POINT('',(-42.75,58.5,-10.5));
#612=DIRECTION('',(0.,0.,-1.));
#613=DIRECTION('',(0.,1.,0.));
#614=AXIS2_PLACEMENT_3D('',#611,#612,#613);
#615=CIRCLE('',#614,22.);
#616=EDGE_CURVE('',#608,#610,#615,.T.);
#617=ORIENTED_EDGE('',*,*,#616,.T.);
#618=CARTESIAN_POINT('',(-20.75,28.5,-10.5));
#619=VERTEX_POINT('',#618);
#620=CARTESIAN_POINT('',(-20.75,58.5,-10.5));
#621=DIRECTION('',(-0.,-1.,0.));
#622=VECTOR('',#621,30.);
#623=LINE('',#620,#622);
#624=EDGE_CURVE('',#610,#619,#623,.T.);
#625=ORIENTED_EDGE('',*,*,#624,.T.);
#626=CARTESIAN_POINT('',(-42.75,6.5,-10.5));
#627=VERTEX_POINT('',#626);
#628=CARTESIAN_POINT('',(-42.75,28.5,-10.5));
#629=DIRECTION('',(0.,0.,-1.));
#630=DIRECTION('',(1.,-0.,0.));
#631=AXIS2_PLACEMENT_3D('',#628,#629,#630);
#632=CIRCLE('',#631,22.);
#633=EDGE_CURVE('',#619,#627,#632,.T.);
#634=ORIENTED_EDGE('',*,*,#633,.T.);
#635=CARTESIAN_POINT('',(-72.75,6.5,-10.5));
#636=VERTEX_POINT('',#635);
#637=CARTESIAN_POINT('',(-42.75,6.5,-10.5));
#638=DIRECTION('',(-1.,0.,0.));
#639=VECTOR('',#638,30.);
#640=LINE('',#637,#639);
#641=EDGE_CURVE('',#627,#636,#640,.T.);
#642=ORIENTED_EDGE('',*,*,#641,.T.);
#643=CARTESIAN_POINT('',(-94.75,28.5,-10.5));
#644=VERTEX_POINT('',#643);
#645=CARTESIAN_POINT('',(-72.75,28.5,-10.5));
#646=DIRECTION('',(-0.,0.,-1.));
#647=DIRECTION('',(-0.,-1.,0.));
#648=AXIS2_PLACEMENT_3D('',#645,#646,#647);
#649=CIRCLE('',#648,22.);
#650=EDGE_CURVE('',#636,#644,#649,.T.);
#651=ORIENTED_EDGE('',*,*,#650,.T.);
#652=CARTESIAN_POINT('',(-94.75,58.5,-10.5));
#653=VERTEX_POINT('',#652);
#654=CARTESIAN_POINT('',(-94.75,58.5,-10.5));
#655=DIRECTION('',(-0.,-1.,0.));
#656=VECTOR('',#655,30.);
#657=LINE('',#654,#656);
#658=EDGE_CURVE('',#653,#644,#657,.T.);
#659=ORIENTED_EDGE('',*,*,#658,.F.);
#660=CARTESIAN_POINT('',(-72.75,80.5,-10.5));
#661=VERTEX_POINT('',#660);
#662=CARTESIAN_POINT('',(-72.75,58.5,-10.5));
#663=DIRECTION('',(-0.,0.,-1.));
#664=DIRECTION('',(-1.,-0.,0.));
#665=AXIS2_PLACEMENT_3D('',#662,#663,#664);
#666=CIRCLE('',#665,22.);
#667=EDGE_CURVE('',#653,#661,#666,.T.);
#668=ORIENTED_EDGE('',*,*,#667,.T.);
#669=CARTESIAN_POINT('',(-72.75,80.5,-10.5));
#670=DIRECTION('',(1.,-0.,0.));
#671=VECTOR('',#670,30.);
#672=LINE('',#669,#671);
#673=EDGE_CURVE('',#661,#608,#672,.T.);
#674=ORIENTED_EDGE('',*,*,#673,.T.);
#675=EDGE_LOOP('',(#617,#625,#634,#642,#651,#659,#668,#674));
#676=FACE_BOUND('',#675,.T.);
#677=ADVANCED_FACE('',(#676),#606,.T.);
#678=CARTESIAN_POINT('',(-20.75,43.5,-7.8));
#679=DIRECTION('',(1.,-0.,0.));
#680=DIRECTION('',(0.,0.,1.));
#681=AXIS2_PLACEMENT_3D('',#678,#679,#680);
#682=PLANE('',#681);
#683=CARTESIAN_POINT('',(-20.75,58.5,-9.));
#684=VERTEX_POINT('',#683);
#685=CARTESIAN_POINT('',(-20.75,58.5,-9.));
#686=DIRECTION('',(0.,0.,-1.));
#687=VECTOR('',#686,1.5);
#688=LINE('',#685,#687);
#689=EDGE_CURVE('',#684,#610,#688,.T.);
#690=ORIENTED_EDGE('',*,*,#689,.F.);
#691=CARTESIAN_POINT('',(-20.75,28.5,-9.));
#692=VERTEX_POINT('',#691);
#693=CARTESIAN_POINT('',(-20.75,58.5,-9.));
#694=DIRECTION('',(0.,-1.,0.));
#695=VECTOR('',#694,30.);
#696=LINE('',#693,#695);
#697=EDGE_CURVE('',#684,#692,#696,.T.);
#698=ORIENTED_EDGE('',*,*,#697,.T.);
#699=CARTESIAN_POINT('',(-20.75,28.5,-9.));
#700=DIRECTION('',(0.,0.,-1.));
#701=VECTOR('',#700,1.5);
#702=LINE('',#699,#701);
#703=EDGE_CURVE('',#692,#619,#702,.T.);
#704=ORIENTED_EDGE('',*,*,#703,.T.);
#705=ORIENTED_EDGE('',*,*,#624,.F.);
#706=EDGE_LOOP('',(#690,#698,#704,#705));
#707=FACE_BOUND('',#706,.T.);
#708=ADVANCED_FACE('',(#707),#682,.T.);
#709=CARTESIAN_POINT('',(-42.75,28.5,-7.8));
#710=DIRECTION('',(0.,0.,-1.));
#711=DIRECTION('',(1.,-0.,0.));
#712=AXIS2_PLACEMENT_3D('',#709,#710,#711);
#713=CYLINDRICAL_SURFACE('',#712,22.);
#714=CARTESIAN_POINT('',(-42.75,6.5,-9.));
#715=VERTEX_POINT('',#714);
#716=CARTESIAN_POINT('',(-42.75,28.5,-9.));
#717=DIRECTION('',(-0.,-0.,1.));
#718=DIRECTION('',(-1.,0.,0.));
#719=AXIS2_PLACEMENT_3D('',#716,#717,#718);
#720=CIRCLE('',#719,22.);
#721=EDGE_CURVE('',#715,#692,#720,.T.);
#722=ORIENTED_EDGE('',*,*,#721,.F.);
#723=CARTESIAN_POINT('',(-42.75,6.5,-9.));
#724=DIRECTION('',(0.,0.,-1.));
#725=VECTOR('',#724,1.5);
#726=LINE('',#723,#725);
#727=EDGE_CURVE('',#715,#627,#726,.T.);
#728=ORIENTED_EDGE('',*,*,#727,.T.);
#729=ORIENTED_EDGE('',*,*,#633,.F.);
#730=ORIENTED_EDGE('',*,*,#703,.F.);
#731=EDGE_LOOP('',(#722,#728,#729,#730));
#732=FACE_BOUND('',#731,.T.);
#733=ADVANCED_FACE('',(#732),#713,.T.);
#734=CARTESIAN_POINT('',(-57.75,6.5,-7.8));
#735=DIRECTION('',(-0.,-1.,0.));
#736=DIRECTION('',(0.,0.,1.));
#737=AXIS2_PLACEMENT_3D('',#734,#735,#736);
#738=PLANE('',#737);
#739=ORIENTED_EDGE('',*,*,#727,.F.);
#740=CARTESIAN_POINT('',(-72.75,6.5,-9.));
#741=VERTEX_POINT('',#740);
#742=CARTESIAN_POINT('',(-72.75,6.5,-9.));
#743=DIRECTION('',(1.,-0.,0.));
#744=VECTOR('',#743,30.);
#745=LINE('',#742,#744);
#746=EDGE_CURVE('',#741,#715,#745,.T.);
#747=ORIENTED_EDGE('',*,*,#746,.F.);
#748=CARTESIAN_POINT('',(-72.75,6.5,-9.));
#749=DIRECTION('',(0.,0.,-1.));
#750=VECTOR('',#749,1.5);
#751=LINE('',#748,#750);
#752=EDGE_CURVE('',#741,#636,#751,.T.);
#753=ORIENTED_EDGE('',*,*,#752,.T.);
#754=ORIENTED_EDGE('',*,*,#641,.F.);
#755=EDGE_LOOP('',(#739,#747,#753,#754));
#756=FACE_BOUND('',#755,.T.);
#757=ADVANCED_FACE('',(#756),#738,.T.);
#758=CARTESIAN_POINT('',(-72.75,28.5,-7.8));
#759=DIRECTION('',(0.,0.,-1.));
#760=DIRECTION('',(1.,-0.,0.));
#761=AXIS2_PLACEMENT_3D('',#758,#759,#760);
#762=CYLINDRICAL_SURFACE('',#761,22.);
#763=ORIENTED_EDGE('',*,*,#752,.F.);
#764=CARTESIAN_POINT('',(-94.75,28.5,-9.));
#765=VERTEX_POINT('',#764);
#766=CARTESIAN_POINT('',(-72.75,28.5,-9.));
#767=DIRECTION('',(-0.,-0.,1.));
#768=DIRECTION('',(-1.,0.,0.));
#769=AXIS2_PLACEMENT_3D('',#766,#767,#768);
#770=CIRCLE('',#769,22.);
#771=EDGE_CURVE('',#765,#741,#770,.T.);
#772=ORIENTED_EDGE('',*,*,#771,.F.);
#773=CARTESIAN_POINT('',(-94.75,28.5,-9.));
#774=DIRECTION('',(0.,0.,-1.));
#775=VECTOR('',#774,1.5);
#776=LINE('',#773,#775);
#777=EDGE_CURVE('',#765,#644,#776,.T.);
#778=ORIENTED_EDGE('',*,*,#777,.T.);
#779=ORIENTED_EDGE('',*,*,#650,.F.);
#780=EDGE_LOOP('',(#763,#772,#778,#779));
#781=FACE_BOUND('',#780,.T.);
#782=ADVANCED_FACE('',(#781),#762,.T.);
#783=CARTESIAN_POINT('',(-94.75,43.5,-7.8));
#784=DIRECTION('',(1.,-0.,0.));
#785=DIRECTION('',(0.,0.,1.));
#786=AXIS2_PLACEMENT_3D('',#783,#784,#785);
#787=PLANE('',#786);
#788=ORIENTED_EDGE('',*,*,#777,.F.);
#789=CARTESIAN_POINT('',(-94.75,58.5,-9.));
#790=VERTEX_POINT('',#789);
#791=CARTESIAN_POINT('',(-94.75,58.5,-9.));
#792=DIRECTION('',(0.,-1.,0.));
#793=VECTOR('',#792,30.);
#794=LINE('',#791,#793);
#795=EDGE_CURVE('',#790,#765,#794,.T.);
#796=ORIENTED_EDGE('',*,*,#795,.F.);
#797=CARTESIAN_POINT('',(-94.75,58.5,-9.));
#798=DIRECTION('',(0.,0.,-1.));
#799=VECTOR('',#798,1.5);
#800=LINE('',#797,#799);
#801=EDGE_CURVE('',#790,#653,#800,.T.);
#802=ORIENTED_EDGE('',*,*,#801,.T.);
#803=ORIENTED_EDGE('',*,*,#658,.T.);
#804=EDGE_LOOP('',(#788,#796,#802,#803));
#805=FACE_BOUND('',#804,.T.);
#806=ADVANCED_FACE('',(#805),#787,.F.);
#807=CARTESIAN_POINT('',(-42.75,58.5,-7.8));
#808=DIRECTION('',(0.,0.,-1.));
#809=DIRECTION('',(1.,-0.,0.));
#810=AXIS2_PLACEMENT_3D('',#807,#808,#809);
#811=CYLINDRICAL_SURFACE('',#810,22.);
#812=CARTESIAN_POINT('',(-42.75,80.5,-9.));
#813=VERTEX_POINT('',#812);
#814=CARTESIAN_POINT('',(-42.75,80.5,-9.));
#815=DIRECTION('',(0.,0.,-1.));
#816=VECTOR('',#815,1.5);
#817=LINE('',#814,#816);
#818=EDGE_CURVE('',#813,#608,#817,.T.);
#819=ORIENTED_EDGE('',*,*,#818,.F.);
#820=CARTESIAN_POINT('',(-42.75,58.5,-9.));
#821=DIRECTION('',(-0.,-0.,1.));
#822=DIRECTION('',(-1.,0.,0.));
#823=AXIS2_PLACEMENT_3D('',#820,#821,#822);
#824=CIRCLE('',#823,22.);
#825=EDGE_CURVE('',#684,#813,#824,.T.);
#826=ORIENTED_EDGE('',*,*,#825,.F.);
#827=ORIENTED_EDGE('',*,*,#689,.T.);
#828=ORIENTED_EDGE('',*,*,#616,.F.);
#829=EDGE_LOOP('',(#819,#826,#827,#828));
#830=FACE_BOUND('',#829,.T.);
#831=ADVANCED_FACE('',(#830),#811,.T.);
#832=CARTESIAN_POINT('',(-57.75,80.5,-7.8));
#833=DIRECTION('',(0.,1.,0.));
#834=DIRECTION('',(0.,0.,-1.));
#835=AXIS2_PLACEMENT_3D('',#832,#833,#834);
#836=PLANE('',#835);
#837=CARTESIAN_POINT('',(-72.75,80.5,-9.));
#838=VERTEX_POINT('',#837);
#839=CARTESIAN_POINT('',(-72.75,80.5,-9.));
#840=DIRECTION('',(0.,0.,-1.));
#841=VECTOR('',#840,1.5);
#842=LINE('',#839,#841);
#843=EDGE_CURVE('',#838,#661,#842,.T.);
#844=ORIENTED_EDGE('',*,*,#843,.F.);
#845=CARTESIAN_POINT('',(-42.75,80.5,-9.));
#846=DIRECTION('',(-1.,0.,0.));
#847=VECTOR('',#846,30.);
#848=LINE('',#845,#847);
#849=EDGE_CURVE('',#813,#838,#848,.T.);
#850=ORIENTED_EDGE('',*,*,#849,.F.);
#851=ORIENTED_EDGE('',*,*,#818,.T.);
#852=ORIENTED_EDGE('',*,*,#673,.F.);
#853=EDGE_LOOP('',(#844,#850,#851,#852));
#854=FACE_BOUND('',#853,.T.);
#855=ADVANCED_FACE('',(#854),#836,.T.);
#856=CARTESIAN_POINT('',(-72.75,58.5,-7.8));
#857=DIRECTION('',(0.,0.,-1.));
#858=DIRECTION('',(1.,-0.,0.));
#859=AXIS2_PLACEMENT_3D('',#856,#857,#858);
#860=CYLINDRICAL_SURFACE('',#859,22.);
#861=ORIENTED_EDGE('',*,*,#801,.F.);
#862=CARTESIAN_POINT('',(-72.75,58.5,-9.));
#863=DIRECTION('',(-0.,-0.,1.));
#864=DIRECTION('',(-1.,0.,0.));
#865=AXIS2_PLACEMENT_3D('',#862,#863,#864);
#866=CIRCLE('',#865,22.);
#867=EDGE_CURVE('',#838,#790,#866,.T.);
#868=ORIENTED_EDGE('',*,*,#867,.F.);
#869=ORIENTED_EDGE('',*,*,#843,.T.);
#870=ORIENTED_EDGE('',*,*,#667,.F.);
#871=EDGE_LOOP('',(#861,#868,#869,#870));
#872=FACE_BOUND('',#871,.T.);
#873=ADVANCED_FACE('',(#872),#860,.T.);
#874=CARTESIAN_POINT('',(-92.75,43.5,-7.8));
#875=DIRECTION('',(1.,0.,0.));
#876=DIRECTION('',(0.,0.,-1.));
#877=AXIS2_PLACEMENT_3D('',#874,#875,#876);
#878=PLANE('',#877);
#879=CARTESIAN_POINT('',(-92.75,27.751262658,-9.));
#880=VERTEX_POINT('',#879);
#881=CARTESIAN_POINT('',(-92.75,59.248737342,-9.));
#882=VERTEX_POINT('',#881);
#883=CARTESIAN_POINT('',(-92.75,27.751262658,-9.));
#884=DIRECTION('',(0.,1.,0.));
#885=VECTOR('',#884,31.497474683);
#886=LINE('',#883,#885);
#887=EDGE_CURVE('',#880,#882,#886,.T.);
#888=ORIENTED_EDGE('',*,*,#887,.F.);
#889=CARTESIAN_POINT('',(-92.75,27.751262658,-9.));
#890=DIRECTION('',(0.,0.,-1.));
#891=VECTOR('',#890,0.5);
#892=LINE('',#889,#891);
#893=EDGE_CURVE('',#880,#509,#892,.T.);
#894=ORIENTED_EDGE('',*,*,#893,.T.);
#895=ORIENTED_EDGE('',*,*,#514,.T.);
#896=ORIENTED_EDGE('',*,*,#170,.F.);
#897=ORIENTED_EDGE('',*,*,#563,.T.);
#898=CARTESIAN_POINT('',(-92.75,59.248737342,-9.5));
#899=DIRECTION('',(0.,0.,1.));
#900=VECTOR('',#899,0.5);
#901=LINE('',#898,#900);
#902=EDGE_CURVE('',#551,#882,#901,.T.);
#903=ORIENTED_EDGE('',*,*,#902,.T.);
#904=EDGE_LOOP('',(#888,#894,#895,#896,#897,#903));
#905=FACE_BOUND('',#904,.T.);
#906=ADVANCED_FACE('',(#905),#878,.T.);
#907=CARTESIAN_POINT('',(0.,0.,-9.));
#908=DIRECTION('',(0.,0.,-1.));
#909=DIRECTION('',(-1.,0.,0.));
#910=AXIS2_PLACEMENT_3D('',#907,#908,#909);
#911=PLANE('',#910);
#912=CARTESIAN_POINT('',(-87.75,22.751262658,-9.));
#913=VERTEX_POINT('',#912);
#914=CARTESIAN_POINT('',(-87.75,27.751262658,-9.));
#915=DIRECTION('',(-0.,0.,-1.));
#916=DIRECTION('',(0.,1.,0.));
#917=AXIS2_PLACEMENT_3D('',#914,#915,#916);
#918=CIRCLE('',#917,5.);
#919=EDGE_CURVE('',#913,#880,#918,.T.);
#920=ORIENTED_EDGE('',*,*,#919,.T.);
#921=ORIENTED_EDGE('',*,*,#887,.T.);
#922=CARTESIAN_POINT('',(-87.75,64.248737342,-9.));
#923=VERTEX_POINT('',#922);
#924=CARTESIAN_POINT('',(-87.75,59.248737342,-9.));
#925=DIRECTION('',(-0.,-0.,-1.));
#926=DIRECTION('',(1.,0.,-0.));
#927=AXIS2_PLACEMENT_3D('',#924,#925,#926);
#928=CIRCLE('',#927,5.);
#929=EDGE_CURVE('',#882,#923,#928,.T.);
#930=ORIENTED_EDGE('',*,*,#929,.T.);
#931=CARTESIAN_POINT('',(-82.498737342,64.248737342,-9.));
#932=VERTEX_POINT('',#931);
#933=CARTESIAN_POINT('',(-82.498737342,64.248737342,-9.));
#934=DIRECTION('',(-1.,0.,0.));
#935=VECTOR('',#934,5.251262658);
#936=LINE('',#933,#935);
#937=EDGE_CURVE('',#932,#923,#936,.T.);
#938=ORIENTED_EDGE('',*,*,#937,.F.);
#939=CARTESIAN_POINT('',(-78.498737342,68.248737342,-9.));
#940=VERTEX_POINT('',#939);
#941=CARTESIAN_POINT('',(-82.498737342,68.248737342,-9.));
#942=DIRECTION('',(0.,0.,1.));
#943=DIRECTION('',(1.,0.,-0.));
#944=AXIS2_PLACEMENT_3D('',#941,#942,#943);
#945=CIRCLE('',#944,4.);
#946=EDGE_CURVE('',#932,#940,#945,.T.);
#947=ORIENTED_EDGE('',*,*,#946,.T.);
#948=CARTESIAN_POINT('',(-78.498737342,73.5,-9.));
#949=VERTEX_POINT('',#948);
#950=CARTESIAN_POINT('',(-78.498737342,68.248737342,-9.));
#951=DIRECTION('',(0.,1.,0.));
#952=VECTOR('',#951,5.251262658);
#953=LINE('',#950,#952);
#954=EDGE_CURVE('',#940,#949,#953,.T.);
#955=ORIENTED_EDGE('',*,*,#954,.T.);
#956=CARTESIAN_POINT('',(-73.498737342,73.5,-9.));
#957=DIRECTION('',(-0.,-0.,-1.));
#958=DIRECTION('',(1.,0.,-0.));
#959=AXIS2_PLACEMENT_3D('',#956,#957,#958);
#960=CIRCLE('',#959,5.);
#961=EDGE_CURVE('',#949,#357,#960,.T.);
#962=ORIENTED_EDGE('',*,*,#961,.T.);
#963=ORIENTED_EDGE('',*,*,#362,.T.);
#964=CARTESIAN_POINT('',(-37.001262658,73.5,-9.));
#965=VERTEX_POINT('',#964);
#966=CARTESIAN_POINT('',(-42.001262658,73.5,-9.));
#967=DIRECTION('',(-0.,-0.,-1.));
#968=DIRECTION('',(-0.,-1.,0.));
#969=AXIS2_PLACEMENT_3D('',#966,#967,#968);
#970=CIRCLE('',#969,5.);
#971=EDGE_CURVE('',#349,#965,#970,.T.);
#972=ORIENTED_EDGE('',*,*,#971,.T.);
#973=CARTESIAN_POINT('',(-37.001262658,68.248737342,-9.));
#974=VERTEX_POINT('',#973);
#975=CARTESIAN_POINT('',(-37.001262658,68.248737342,-9.));
#976=DIRECTION('',(0.,1.,0.));
#977=VECTOR('',#976,5.251262658);
#978=LINE('',#975,#977);
#979=EDGE_CURVE('',#974,#965,#978,.T.);
#980=ORIENTED_EDGE('',*,*,#979,.F.);
#981=CARTESIAN_POINT('',(-33.001262658,64.248737342,-9.));
#982=VERTEX_POINT('',#981);
#983=CARTESIAN_POINT('',(-33.001262658,68.248737342,-9.));
#984=DIRECTION('',(0.,0.,1.));
#985=DIRECTION('',(-0.,-1.,0.));
#986=AXIS2_PLACEMENT_3D('',#983,#984,#985);
#987=CIRCLE('',#986,4.);
#988=EDGE_CURVE('',#974,#982,#987,.T.);
#989=ORIENTED_EDGE('',*,*,#988,.T.);
#990=CARTESIAN_POINT('',(-27.75,64.248737342,-9.));
#991=VERTEX_POINT('',#990);
#992=CARTESIAN_POINT('',(-33.001262658,64.248737342,-9.));
#993=DIRECTION('',(1.,-0.,0.));
#994=VECTOR('',#993,5.251262658);
#995=LINE('',#992,#994);
#996=EDGE_CURVE('',#982,#991,#995,.T.);
#997=ORIENTED_EDGE('',*,*,#996,.T.);
#998=CARTESIAN_POINT('',(-27.75,59.248737342,-9.));
#999=DIRECTION('',(-0.,-0.,-1.));
#1000=DIRECTION('',(-0.,-1.,0.));
#1001=AXIS2_PLACEMENT_3D('',#998,#999,#1000);
#1002=CIRCLE('',#1001,5.);
#1003=EDGE_CURVE('',#991,#388,#1002,.T.);
#1004=ORIENTED_EDGE('',*,*,#1003,.T.);
#1005=ORIENTED_EDGE('',*,*,#395,.T.);
#1006=CARTESIAN_POINT('',(-27.75,22.751262658,-9.));
#1007=VERTEX_POINT('',#1006);
#1008=CARTESIAN_POINT('',(-27.75,27.751262658,-9.));
#1009=DIRECTION('',(-0.,-0.,-1.));
#1010=DIRECTION('',(-1.,0.,0.));
#1011=AXIS2_PLACEMENT_3D('',#1008,#1009,#1010);
#1012=CIRCLE('',#1011,5.);
#1013=EDGE_CURVE('',#390,#1007,#1012,.T.);
#1014=ORIENTED_EDGE('',*,*,#1013,.T.);
#1015=CARTESIAN_POINT('',(-33.001262658,22.751262658,-9.));
#1016=VERTEX_POINT('',#1015);
#1017=CARTESIAN_POINT('',(-33.001262658,22.751262658,-9.));
#1018=DIRECTION('',(1.,-0.,0.));
#1019=VECTOR('',#1018,5.251262658);
#1020=LINE('',#1017,#1019);
#1021=EDGE_CURVE('',#1016,#1007,#1020,.T.);
#1022=ORIENTED_EDGE('',*,*,#1021,.F.);
#1023=CARTESIAN_POINT('',(-37.001262658,18.751262658,-9.));
#1024=VERTEX_POINT('',#1023);
#1025=CARTESIAN_POINT('',(-33.001262658,18.751262658,-9.));
#1026=DIRECTION('',(0.,0.,1.));
#1027=DIRECTION('',(-1.,0.,0.));
#1028=AXIS2_PLACEMENT_3D('',#1025,#1026,#1027);
#1029=CIRCLE('',#1028,4.);
#1030=EDGE_CURVE('',#1016,#1024,#1029,.T.);
#1031=ORIENTED_EDGE('',*,*,#1030,.T.);
#1032=CARTESIAN_POINT('',(-37.001262658,13.5,-9.));
#1033=VERTEX_POINT('',#1032);
#1034=CARTESIAN_POINT('',(-37.001262658,18.751262658,-9.));
#1035=DIRECTION('',(-0.,-1.,0.));
#1036=VECTOR('',#1035,5.251262658);
#1037=LINE('',#1034,#1036);
#1038=EDGE_CURVE('',#1024,#1033,#1037,.T.);
#1039=ORIENTED_EDGE('',*,*,#1038,.T.);
#1040=CARTESIAN_POINT('',(-42.001262658,13.5,-9.));
#1041=DIRECTION('',(-0.,-0.,-1.));
#1042=DIRECTION('',(-1.,0.,0.));
#1043=AXIS2_PLACEMENT_3D('',#1040,#1041,#1042);
#1044=CIRCLE('',#1043,5.);
#1045=EDGE_CURVE('',#1033,#428,#1044,.T.);
#1046=ORIENTED_EDGE('',*,*,#1045,.T.);
#1047=ORIENTED_EDGE('',*,*,#435,.T.);
#1048=CARTESIAN_POINT('',(-78.498737342,13.5,-9.));
#1049=VERTEX_POINT('',#1048);
#1050=CARTESIAN_POINT('',(-73.498737342,13.5,-9.));
#1051=DIRECTION('',(-0.,0.,-1.));
#1052=DIRECTION('',(0.,1.,0.));
#1053=AXIS2_PLACEMENT_3D('',#1050,#1051,#1052);
#1054=CIRCLE('',#1053,5.);
#1055=EDGE_CURVE('',#430,#1049,#1054,.T.);
#1056=ORIENTED_EDGE('',*,*,#1055,.T.);
#1057=CARTESIAN_POINT('',(-78.498737342,18.751262658,-9.));
#1058=VERTEX_POINT('',#1057);
#1059=CARTESIAN_POINT('',(-78.498737342,18.751262658,-9.));
#1060=DIRECTION('',(-0.,-1.,0.));
#1061=VECTOR('',#1060,5.251262658);
#1062=LINE('',#1059,#1061);
#1063=EDGE_CURVE('',#1058,#1049,#1062,.T.);
#1064=ORIENTED_EDGE('',*,*,#1063,.F.);
#1065=CARTESIAN_POINT('',(-82.498737342,22.751262658,-9.));
#1066=VERTEX_POINT('',#1065);
#1067=CARTESIAN_POINT('',(-82.498737342,18.751262658,-9.));
#1068=DIRECTION('',(0.,-0.,1.));
#1069=DIRECTION('',(0.,1.,0.));
#1070=AXIS2_PLACEMENT_3D('',#1067,#1068,#1069);
#1071=CIRCLE('',#1070,4.);
#1072=EDGE_CURVE('',#1058,#1066,#1071,.T.);
#1073=ORIENTED_EDGE('',*,*,#1072,.T.);
#1074=CARTESIAN_POINT('',(-82.498737342,22.751262658,-9.));
#1075=DIRECTION('',(-1.,0.,0.));
#1076=VECTOR('',#1075,5.251262658);
#1077=LINE('',#1074,#1076);
#1078=EDGE_CURVE('',#1066,#913,#1077,.T.);
#1079=ORIENTED_EDGE('',*,*,#1078,.T.);
#1080=EDGE_LOOP('',(#920,#921,#930,#938,#947,#955,#962,#963,#972,#980,#989,#997,#1004,#1005,#1014,#1022,#1031,#1039,#1046,#1047,#1056,#1064,#1073,#1079));
#1081=FACE_BOUND('',#1080,.T.);
#1082=ORIENTED_EDGE('',*,*,#867,.T.);
#1083=ORIENTED_EDGE('',*,*,#795,.T.);
#1084=ORIENTED_EDGE('',*,*,#771,.T.);
#1085=ORIENTED_EDGE('',*,*,#746,.T.);
#1086=ORIENTED_EDGE('',*,*,#721,.T.);
#1087=ORIENTED_EDGE('',*,*,#697,.F.);
#1088=ORIENTED_EDGE('',*,*,#825,.T.);
#1089=ORIENTED_EDGE('',*,*,#849,.T.);
#1090=EDGE_LOOP('',(#1082,#1083,#1084,#1085,#1086,#1087,#1088,#1089));
#1091=FACE_BOUND('',#1090,.T.);
#1092=CARTESIAN_POINT('',(-34.601262658,18.751262658,-9.));
#1093=VERTEX_POINT('',#1092);
#1094=CARTESIAN_POINT('',(-31.401262658,18.751262658,-9.));
#1095=VERTEX_POINT('',#1094);
#1096=CARTESIAN_POINT('',(-33.001262658,18.751262658,-9.));
#1097=DIRECTION('',(-0.,-0.,-1.));
#1098=DIRECTION('',(-1.,0.,0.));
#1099=AXIS2_PLACEMENT_3D('',#1096,#1097,#1098);
#1100=CIRCLE('',#1099,1.6);
#1101=EDGE_CURVE('',#1093,#1095,#1100,.T.);
#1102=ORIENTED_EDGE('',*,*,#1101,.T.);
#1103=CARTESIAN_POINT('',(-33.001262658,18.751262658,-9.));
#1104=DIRECTION('',(-0.,-0.,-1.));
#1105=DIRECTION('',(-1.,0.,0.));
#1106=AXIS2_PLACEMENT_3D('',#1103,#1104,#1105);
#1107=CIRCLE('',#1106,1.6);
#1108=EDGE_CURVE('',#1095,#1093,#1107,.T.);
#1109=ORIENTED_EDGE('',*,*,#1108,.T.);
#1110=EDGE_LOOP('',(#1102,#1109));
#1111=FACE_BOUND('',#1110,.T.);
#1112=CARTESIAN_POINT('',(-33.001262658,66.648737342,-9.));
#1113=VERTEX_POINT('',#1112);
#1114=CARTESIAN_POINT('',(-33.001262658,69.848737342,-9.));
#1115=VERTEX_POINT('',#1114);
#1116=CARTESIAN_POINT('',(-33.001262658,68.248737342,-9.));
#1117=DIRECTION('',(-0.,-0.,-1.));
#1118=DIRECTION('',(-0.,-1.,0.));
#1119=AXIS2_PLACEMENT_3D('',#1116,#1117,#1118);
#1120=CIRCLE('',#1119,1.6);
#1121=EDGE_CURVE('',#1113,#1115,#1120,.T.);
#1122=ORIENTED_EDGE('',*,*,#1121,.T.);
#1123=CARTESIAN_POINT('',(-33.001262658,68.248737342,-9.));
#1124=DIRECTION('',(-0.,-0.,-1.));
#1125=DIRECTION('',(-0.,-1.,0.));
#1126=AXIS2_PLACEMENT_3D('',#1123,#1124,#1125);
#1127=CIRCLE('',#1126,1.6);
#1128=EDGE_CURVE('',#1115,#1113,#1127,.T.);
#1129=ORIENTED_EDGE('',*,*,#1128,.T.);
#1130=EDGE_LOOP('',(#1122,#1129));
#1131=FACE_BOUND('',#1130,.T.);
#1132=CARTESIAN_POINT('',(-82.498737342,20.351262658,-9.));
#1133=VERTEX_POINT('',#1132);
#1134=CARTESIAN_POINT('',(-82.498737342,17.151262658,-9.));
#1135=VERTEX_POINT('',#1134);
#1136=CARTESIAN_POINT('',(-82.498737342,18.751262658,-9.));
#1137=DIRECTION('',(-0.,0.,-1.));
#1138=DIRECTION('',(0.,1.,0.));
#1139=AXIS2_PLACEMENT_3D('',#1136,#1137,#1138);
#1140=CIRCLE('',#1139,1.6);
#1141=EDGE_CURVE('',#1133,#1135,#1140,.T.);
#1142=ORIENTED_EDGE('',*,*,#1141,.T.);
#1143=CARTESIAN_POINT('',(-82.498737342,18.751262658,-9.));
#1144=DIRECTION('',(-0.,0.,-1.));
#1145=DIRECTION('',(0.,1.,0.));
#1146=AXIS2_PLACEMENT_3D('',#1143,#1144,#1145);
#1147=CIRCLE('',#1146,1.6);
#1148=EDGE_CURVE('',#1135,#1133,#1147,.T.);
#1149=ORIENTED_EDGE('',*,*,#1148,.T.);
#1150=EDGE_LOOP('',(#1142,#1149));
#1151=FACE_BOUND('',#1150,.T.);
#1152=CARTESIAN_POINT('',(-80.898737342,68.248737342,-9.));
#1153=VERTEX_POINT('',#1152);
#1154=CARTESIAN_POINT('',(-84.098737342,68.248737342,-9.));
#1155=VERTEX_POINT('',#1154);
#1156=CARTESIAN_POINT('',(-82.498737342,68.248737342,-9.));
#1157=DIRECTION('',(-0.,-0.,-1.));
#1158=DIRECTION('',(1.,0.,-0.));
#1159=AXIS2_PLACEMENT_3D('',#1156,#1157,#1158);
#1160=CIRCLE('',#1159,1.6);
#1161=EDGE_CURVE('',#1153,#1155,#1160,.T.);
#1162=ORIENTED_EDGE('',*,*,#1161,.T.);
#1163=CARTESIAN_POINT('',(-82.498737342,68.248737342,-9.));
#1164=DIRECTION('',(-0.,-0.,-1.));
#1165=DIRECTION('',(1.,0.,-0.));
#1166=AXIS2_PLACEMENT_3D('',#1163,#1164,#1165);
#1167=CIRCLE('',#1166,1.6);
#1168=EDGE_CURVE('',#1155,#1153,#1167,.T.);
#1169=ORIENTED_EDGE('',*,*,#1168,.T.);
#1170=EDGE_LOOP('',(#1162,#1169));
#1171=FACE_BOUND('',#1170,.T.);
#1172=ADVANCED_FACE('',(#1081,#1091,#1111,#1131,#1151,#1171),#911,.F.);
#1173=CARTESIAN_POINT('',(-82.498737342,68.248737342,-9.));
#1174=DIRECTION('',(0.,0.,-1.));
#1175=DIRECTION('',(-1.,0.,0.));
#1176=AXIS2_PLACEMENT_3D('',#1173,#1174,#1175);
#1177=CYLINDRICAL_SURFACE('',#1176,4.);
#1178=CARTESIAN_POINT('',(-78.498737342,68.248737342,-9.));
#1179=DIRECTION('',(0.,0.,-1.));
#1180=VECTOR('',#1179,0.5);
#1181=LINE('',#1178,#1180);
#1182=EDGE_CURVE('',#940,#122,#1181,.T.);
#1183=ORIENTED_EDGE('',*,*,#1182,.F.);
#1184=ORIENTED_EDGE('',*,*,#946,.F.);
#1185=CARTESIAN_POINT('',(-82.498737342,64.248737342,-9.));
#1186=DIRECTION('',(0.,0.,-1.));
#1187=VECTOR('',#1186,0.5);
#1188=LINE('',#1185,#1187);
#1189=EDGE_CURVE('',#932,#130,#1188,.T.);
#1190=ORIENTED_EDGE('',*,*,#1189,.T.);
#1191=ORIENTED_EDGE('',*,*,#136,.F.);
#1192=EDGE_LOOP('',(#1183,#1184,#1190,#1191));
#1193=FACE_BOUND('',#1192,.T.);
#1194=ADVANCED_FACE('',(#1193),#1177,.T.);
#1195=CARTESIAN_POINT('',(-73.498737342,73.5,-7.8));
#1196=DIRECTION('',(0.,0.,-1.));
#1197=DIRECTION('',(-1.,0.,0.));
#1198=AXIS2_PLACEMENT_3D('',#1195,#1196,#1197);
#1199=CYLINDRICAL_SURFACE('',#1198,5.);
#1200=ORIENTED_EDGE('',*,*,#961,.F.);
#1201=CARTESIAN_POINT('',(-78.498737342,73.5,-9.5));
#1202=DIRECTION('',(-0.,-0.,1.));
#1203=VECTOR('',#1202,0.5);
#1204=LINE('',#1201,#1203);
#1205=EDGE_CURVE('',#113,#949,#1204,.T.);
#1206=ORIENTED_EDGE('',*,*,#1205,.F.);
#1207=ORIENTED_EDGE('',*,*,#119,.F.);
#1208=ORIENTED_EDGE('',*,*,#580,.F.);
#1209=ORIENTED_EDGE('',*,*,#370,.F.);
#1210=EDGE_LOOP('',(#1200,#1206,#1207,#1208,#1209));
#1211=FACE_BOUND('',#1210,.T.);
#1212=ADVANCED_FACE('',(#1211),#1199,.F.);
#1213=CARTESIAN_POINT('',(-78.498737342,73.109129313,-9.));
#1214=DIRECTION('',(-1.,0.,0.));
#1215=DIRECTION('',(0.,0.,1.));
#1216=AXIS2_PLACEMENT_3D('',#1213,#1214,#1215);
#1217=PLANE('',#1216);
#1218=ORIENTED_EDGE('',*,*,#127,.T.);
#1219=ORIENTED_EDGE('',*,*,#1205,.T.);
#1220=ORIENTED_EDGE('',*,*,#954,.F.);
#1221=ORIENTED_EDGE('',*,*,#1182,.T.);
#1222=EDGE_LOOP('',(#1218,#1219,#1220,#1221));
#1223=FACE_BOUND('',#1222,.T.);
#1224=ADVANCED_FACE('',(#1223),#1217,.F.);
#1225=CARTESIAN_POINT('',(-87.75,59.248737342,-7.8));
#1226=DIRECTION('',(0.,0.,-1.));
#1227=DIRECTION('',(-1.,0.,0.));
#1228=AXIS2_PLACEMENT_3D('',#1225,#1226,#1227);
#1229=CYLINDRICAL_SURFACE('',#1228,5.);
#1230=ORIENTED_EDGE('',*,*,#153,.F.);
#1231=CARTESIAN_POINT('',(-87.75,64.248737342,-9.));
#1232=DIRECTION('',(-0.,-0.,-1.));
#1233=VECTOR('',#1232,0.5);
#1234=LINE('',#1231,#1233);
#1235=EDGE_CURVE('',#923,#139,#1234,.T.);
#1236=ORIENTED_EDGE('',*,*,#1235,.F.);
#1237=ORIENTED_EDGE('',*,*,#929,.F.);
#1238=ORIENTED_EDGE('',*,*,#902,.F.);
#1239=ORIENTED_EDGE('',*,*,#557,.F.);
#1240=EDGE_LOOP('',(#1230,#1236,#1237,#1238,#1239));
#1241=FACE_BOUND('',#1240,.T.);
#1242=ADVANCED_FACE('',(#1241),#1229,.F.);
#1243=CARTESIAN_POINT('',(-87.38392252,64.248737342,-9.));
#1244=DIRECTION('',(0.,-1.,0.));
#1245=DIRECTION('',(0.,0.,-1.));
#1246=AXIS2_PLACEMENT_3D('',#1243,#1244,#1245);
#1247=PLANE('',#1246);
#1248=ORIENTED_EDGE('',*,*,#937,.T.);
#1249=ORIENTED_EDGE('',*,*,#1235,.T.);
#1250=ORIENTED_EDGE('',*,*,#144,.F.);
#1251=ORIENTED_EDGE('',*,*,#1189,.F.);
#1252=EDGE_LOOP('',(#1248,#1249,#1250,#1251));
#1253=FACE_BOUND('',#1252,.T.);
#1254=ADVANCED_FACE('',(#1253),#1247,.T.);
#1255=CARTESIAN_POINT('',(-82.498737342,68.248737342,-6.7));
#1256=DIRECTION('',(0.,0.,-1.));
#1257=DIRECTION('',(-1.,0.,0.));
#1258=AXIS2_PLACEMENT_3D('',#1255,#1256,#1257);
#1259=CYLINDRICAL_SURFACE('',#1258,1.6);
#1260=CARTESIAN_POINT('',(-84.098737342,68.248737342,-7.1));
#1261=VERTEX_POINT('',#1260);
#1262=CARTESIAN_POINT('',(-84.098737342,68.248737342,-9.));
#1263=DIRECTION('',(-0.,-0.,1.));
#1264=VECTOR('',#1263,1.9);
#1265=LINE('',#1262,#1264);
#1266=EDGE_CURVE('',#1155,#1261,#1265,.T.);
#1267=ORIENTED_EDGE('',*,*,#1266,.T.);
#1268=CARTESIAN_POINT('',(-80.898737342,68.248737342,-7.1));
#1269=VERTEX_POINT('',#1268);
#1270=CARTESIAN_POINT('',(-82.498737342,68.248737342,-7.1));
#1271=DIRECTION('',(0.,0.,1.));
#1272=DIRECTION('',(1.,0.,-0.));
#1273=AXIS2_PLACEMENT_3D('',#1270,#1271,#1272);
#1274=CIRCLE('',#1273,1.6);
#1275=EDGE_CURVE('',#1269,#1261,#1274,.T.);
#1276=ORIENTED_EDGE('',*,*,#1275,.F.);
#1277=CARTESIAN_POINT('',(-82.498737342,68.248737342,-7.1));
#1278=DIRECTION('',(0.,0.,1.));
#1279=DIRECTION('',(1.,0.,-0.));
#1280=AXIS2_PLACEMENT_3D('',#1277,#1278,#1279);
#1281=CIRCLE('',#1280,1.6);
#1282=EDGE_CURVE('',#1261,#1269,#1281,.T.);
#1283=ORIENTED_EDGE('',*,*,#1282,.F.);
#1284=ORIENTED_EDGE('',*,*,#1266,.F.);
#1285=ORIENTED_EDGE('',*,*,#1161,.F.);
#1286=ORIENTED_EDGE('',*,*,#1168,.F.);
#1287=EDGE_LOOP('',(#1267,#1276,#1283,#1284,#1285,#1286));
#1288=FACE_BOUND('',#1287,.T.);
#1289=ADVANCED_FACE('',(#1288),#1259,.T.);
#1290=CARTESIAN_POINT('',(0.,0.,-7.1));
#1291=DIRECTION('',(0.,0.,1.));
#1292=DIRECTION('',(1.,0.,0.));
#1293=AXIS2_PLACEMENT_3D('',#1290,#1291,#1292);
#1294=PLANE('',#1293);
#1295=ORIENTED_EDGE('',*,*,#1275,.T.);
#1296=ORIENTED_EDGE('',*,*,#1282,.T.);
#1297=EDGE_LOOP('',(#1295,#1296));
#1298=FACE_BOUND('',#1297,.T.);
#1299=CARTESIAN_POINT('',(-81.698737342,68.248737342,-7.1));
#1300=VERTEX_POINT('',#1299);
#1301=CARTESIAN_POINT('',(-82.498737342,68.248737342,-7.1));
#1302=DIRECTION('',(-0.,-0.,-1.));
#1303=DIRECTION('',(1.,0.,-0.));
#1304=AXIS2_PLACEMENT_3D('',#1301,#1302,#1303);
#1305=CIRCLE('',#1304,0.8);
#1306=EDGE_CURVE('',#1300,#1300,#1305,.T.);
#1307=ORIENTED_EDGE('',*,*,#1306,.T.);
#1308=EDGE_LOOP('',(#1307));
#1309=FACE_BOUND('',#1308,.T.);
#1310=ADVANCED_FACE('',(#1298,#1309),#1294,.T.);
#1311=CARTESIAN_POINT('',(-82.498737342,68.248737342,-15.7));
#1312=DIRECTION('',(0.,0.,1.));
#1313=DIRECTION('',(1.,0.,-0.));
#1314=AXIS2_PLACEMENT_3D('',#1311,#1312,#1313);
#1315=CYLINDRICAL_SURFACE('',#1314,0.8);
#1316=CARTESIAN_POINT('',(-81.698737342,68.248737342,-9.9));
#1317=VERTEX_POINT('',#1316);
#1318=CARTESIAN_POINT('',(-81.698737342,68.248737342,-7.1));
#1319=DIRECTION('',(-0.,-0.,-1.));
#1320=VECTOR('',#1319,2.8);
#1321=LINE('',#1318,#1320);
#1322=EDGE_CURVE('',#1300,#1317,#1321,.T.);
#1323=ORIENTED_EDGE('',*,*,#1322,.F.);
#1324=ORIENTED_EDGE('',*,*,#1306,.F.);
#1325=ORIENTED_EDGE('',*,*,#1322,.T.);
#1326=CARTESIAN_POINT('',(-83.298737342,68.248737342,-9.9));
#1327=VERTEX_POINT('',#1326);
#1328=CARTESIAN_POINT('',(-82.498737342,68.248737342,-9.9));
#1329=DIRECTION('',(0.,0.,-1.));
#1330=DIRECTION('',(-1.,0.,0.));
#1331=AXIS2_PLACEMENT_3D('',#1328,#1329,#1330);
#1332=CIRCLE('',#1331,0.8);
#1333=EDGE_CURVE('',#1317,#1327,#1332,.T.);
#1334=ORIENTED_EDGE('',*,*,#1333,.T.);
#1335=CARTESIAN_POINT('',(-82.498737342,68.248737342,-9.9));
#1336=DIRECTION('',(0.,0.,-1.));
#1337=DIRECTION('',(-1.,0.,0.));
#1338=AXIS2_PLACEMENT_3D('',#1335,#1336,#1337);
#1339=CIRCLE('',#1338,0.8);
#1340=EDGE_CURVE('',#1327,#1317,#1339,.T.);
#1341=ORIENTED_EDGE('',*,*,#1340,.T.);
#1342=EDGE_LOOP('',(#1323,#1324,#1325,#1334,#1341));
#1343=FACE_BOUND('',#1342,.T.);
#1344=ADVANCED_FACE('',(#1343),#1315,.F.);
#1345=CARTESIAN_POINT('',(-82.498737342,18.751262658,-15.7));
#1346=DIRECTION('',(0.,-0.,1.));
#1347=DIRECTION('',(0.,1.,0.));
#1348=AXIS2_PLACEMENT_3D('',#1345,#1346,#1347);
#1349=CYLINDRICAL_SURFACE('',#1348,0.8);
#1350=CARTESIAN_POINT('',(-82.498737342,19.551262658,-7.1));
#1351=VERTEX_POINT('',#1350);
#1352=CARTESIAN_POINT('',(-82.498737342,19.551262658,-9.9));
#1353=VERTEX_POINT('',#1352);
#1354=CARTESIAN_POINT('',(-82.498737342,19.551262658,-7.1));
#1355=DIRECTION('',(-0.,-0.,-1.));
#1356=VECTOR('',#1355,2.8);
#1357=LINE('',#1354,#1356);
#1358=EDGE_CURVE('',#1351,#1353,#1357,.T.);
#1359=ORIENTED_EDGE('',*,*,#1358,.F.);
#1360=CARTESIAN_POINT('',(-82.498737342,18.751262658,-7.1));
#1361=DIRECTION('',(-0.,0.,-1.));
#1362=DIRECTION('',(0.,1.,0.));
#1363=AXIS2_PLACEMENT_3D('',#1360,#1361,#1362);
#1364=CIRCLE('',#1363,0.8);
#1365=EDGE_CURVE('',#1351,#1351,#1364,.T.);
#1366=ORIENTED_EDGE('',*,*,#1365,.F.);
#1367=ORIENTED_EDGE('',*,*,#1358,.T.);
#1368=CARTESIAN_POINT('',(-83.298737342,18.751262658,-9.9));
#1369=VERTEX_POINT('',#1368);
#1370=CARTESIAN_POINT('',(-82.498737342,18.751262658,-9.9));
#1371=DIRECTION('',(0.,0.,-1.));
#1372=DIRECTION('',(-1.,0.,0.));
#1373=AXIS2_PLACEMENT_3D('',#1370,#1371,#1372);
#1374=CIRCLE('',#1373,0.8);
#1375=EDGE_CURVE('',#1353,#1369,#1374,.T.);
#1376=ORIENTED_EDGE('',*,*,#1375,.T.);
#1377=CARTESIAN_POINT('',(-82.498737342,18.751262658,-9.9));
#1378=DIRECTION('',(0.,0.,-1.));
#1379=DIRECTION('',(-1.,0.,0.));
#1380=AXIS2_PLACEMENT_3D('',#1377,#1378,#1379);
#1381=CIRCLE('',#1380,0.8);
#1382=EDGE_CURVE('',#1369,#1353,#1381,.T.);
#1383=ORIENTED_EDGE('',*,*,#1382,.T.);
#1384=EDGE_LOOP('',(#1359,#1366,#1367,#1376,#1383));
#1385=FACE_BOUND('',#1384,.T.);
#1386=ADVANCED_FACE('',(#1385),#1349,.F.);
#1387=CARTESIAN_POINT('',(-14.25,101.25,-7.1));
#1388=DIRECTION('',(0.,0.,1.));
#1389=DIRECTION('',(0.,1.,0.));
#1390=AXIS2_PLACEMENT_3D('',#1387,#1388,#1389);
#1391=PLANE('',#1390);
#1392=CARTESIAN_POINT('',(-82.498737342,20.351262658,-7.1));
#1393=VERTEX_POINT('',#1392);
#1394=CARTESIAN_POINT('',(-82.498737342,17.151262658,-7.1));
#1395=VERTEX_POINT('',#1394);
#1396=CARTESIAN_POINT('',(-82.498737342,18.751262658,-7.1));
#1397=DIRECTION('',(0.,-0.,1.));
#1398=DIRECTION('',(0.,1.,0.));
#1399=AXIS2_PLACEMENT_3D('',#1396,#1397,#1398);
#1400=CIRCLE('',#1399,1.6);
#1401=EDGE_CURVE('',#1393,#1395,#1400,.T.);
#1402=ORIENTED_EDGE('',*,*,#1401,.T.);
#1403=CARTESIAN_POINT('',(-82.498737342,18.751262658,-7.1));
#1404=DIRECTION('',(0.,-0.,1.));
#1405=DIRECTION('',(0.,1.,0.));
#1406=AXIS2_PLACEMENT_3D('',#1403,#1404,#1405);
#1407=CIRCLE('',#1406,1.6);
#1408=EDGE_CURVE('',#1395,#1393,#1407,.T.);
#1409=ORIENTED_EDGE('',*,*,#1408,.T.);
#1410=EDGE_LOOP('',(#1402,#1409));
#1411=FACE_BOUND('',#1410,.T.);
#1412=ORIENTED_EDGE('',*,*,#1365,.T.);
#1413=EDGE_LOOP('',(#1412));
#1414=FACE_BOUND('',#1413,.T.);
#1415=ADVANCED_FACE('',(#1411,#1414),#1391,.T.);
#1416=CARTESIAN_POINT('',(-82.498737342,18.751262658,-6.7));
#1417=DIRECTION('',(-0.,0.,-1.));
#1418=DIRECTION('',(-0.,-1.,0.));
#1419=AXIS2_PLACEMENT_3D('',#1416,#1417,#1418);
#1420=CYLINDRICAL_SURFACE('',#1419,1.6);
#1421=CARTESIAN_POINT('',(-82.498737342,17.151262658,-9.));
#1422=DIRECTION('',(-0.,-0.,1.));
#1423=VECTOR('',#1422,1.9);
#1424=LINE('',#1421,#1423);
#1425=EDGE_CURVE('',#1135,#1395,#1424,.T.);
#1426=ORIENTED_EDGE('',*,*,#1425,.T.);
#1427=ORIENTED_EDGE('',*,*,#1401,.F.);
#1428=ORIENTED_EDGE('',*,*,#1408,.F.);
#1429=ORIENTED_EDGE('',*,*,#1425,.F.);
#1430=ORIENTED_EDGE('',*,*,#1141,.F.);
#1431=ORIENTED_EDGE('',*,*,#1148,.F.);
#1432=EDGE_LOOP('',(#1426,#1427,#1428,#1429,#1430,#1431));
#1433=FACE_BOUND('',#1432,.T.);
#1434=ADVANCED_FACE('',(#1433),#1420,.T.);
#1435=CARTESIAN_POINT('',(-78.498737342,13.86607748,-9.));
#1436=DIRECTION('',(1.,-0.,0.));
#1437=DIRECTION('',(0.,0.,-1.));
#1438=AXIS2_PLACEMENT_3D('',#1435,#1436,#1437);
#1439=PLANE('',#1438);
#1440=ORIENTED_EDGE('',*,*,#1063,.T.);
#1441=CARTESIAN_POINT('',(-78.498737342,13.5,-9.));
#1442=DIRECTION('',(-0.,-0.,-1.));
#1443=VECTOR('',#1442,0.5);
#1444=LINE('',#1441,#1443);
#1445=EDGE_CURVE('',#1049,#208,#1444,.T.);
#1446=ORIENTED_EDGE('',*,*,#1445,.T.);
#1447=ORIENTED_EDGE('',*,*,#213,.F.);
#1448=CARTESIAN_POINT('',(-78.498737342,18.751262658,-9.));
#1449=DIRECTION('',(0.,0.,-1.));
#1450=VECTOR('',#1449,0.5);
#1451=LINE('',#1448,#1450);
#1452=EDGE_CURVE('',#1058,#199,#1451,.T.);
#1453=ORIENTED_EDGE('',*,*,#1452,.F.);
#1454=EDGE_LOOP('',(#1440,#1446,#1447,#1453));
#1455=FACE_BOUND('',#1454,.T.);
#1456=ADVANCED_FACE('',(#1455),#1439,.T.);
#1457=CARTESIAN_POINT('',(-73.498737342,13.5,-7.8));
#1458=DIRECTION('',(-0.,0.,-1.));
#1459=DIRECTION('',(-0.,-1.,0.));
#1460=AXIS2_PLACEMENT_3D('',#1457,#1458,#1459);
#1461=CYLINDRICAL_SURFACE('',#1460,5.);
#1462=ORIENTED_EDGE('',*,*,#222,.F.);
#1463=ORIENTED_EDGE('',*,*,#1445,.F.);
#1464=ORIENTED_EDGE('',*,*,#1055,.F.);
#1465=ORIENTED_EDGE('',*,*,#464,.F.);
#1466=ORIENTED_EDGE('',*,*,#538,.F.);
#1467=EDGE_LOOP('',(#1462,#1463,#1464,#1465,#1466));
#1468=FACE_BOUND('',#1467,.T.);
#1469=ADVANCED_FACE('',(#1468),#1461,.F.);
#1470=CARTESIAN_POINT('',(-87.359129313,22.751262658,-9.));
#1471=DIRECTION('',(-0.,-1.,0.));
#1472=DIRECTION('',(0.,0.,1.));
#1473=AXIS2_PLACEMENT_3D('',#1470,#1471,#1472);
#1474=PLANE('',#1473);
#1475=ORIENTED_EDGE('',*,*,#196,.T.);
#1476=CARTESIAN_POINT('',(-87.75,22.751262658,-9.5));
#1477=DIRECTION('',(-0.,-0.,1.));
#1478=VECTOR('',#1477,0.5);
#1479=LINE('',#1476,#1478);
#1480=EDGE_CURVE('',#182,#913,#1479,.T.);
#1481=ORIENTED_EDGE('',*,*,#1480,.T.);
#1482=ORIENTED_EDGE('',*,*,#1078,.F.);
#1483=CARTESIAN_POINT('',(-82.498737342,22.751262658,-9.));
#1484=DIRECTION('',(0.,0.,-1.));
#1485=VECTOR('',#1484,0.5);
#1486=LINE('',#1483,#1485);
#1487=EDGE_CURVE('',#1066,#191,#1486,.T.);
#1488=ORIENTED_EDGE('',*,*,#1487,.T.);
#1489=EDGE_LOOP('',(#1475,#1481,#1482,#1488));
#1490=FACE_BOUND('',#1489,.T.);
#1491=ADVANCED_FACE('',(#1490),#1474,.F.);
#1492=CARTESIAN_POINT('',(-87.75,27.751262658,-7.8));
#1493=DIRECTION('',(-0.,0.,-1.));
#1494=DIRECTION('',(-0.,-1.,0.));
#1495=AXIS2_PLACEMENT_3D('',#1492,#1493,#1494);
#1496=CYLINDRICAL_SURFACE('',#1495,5.);
#1497=ORIENTED_EDGE('',*,*,#919,.F.);
#1498=ORIENTED_EDGE('',*,*,#1480,.F.);
#1499=ORIENTED_EDGE('',*,*,#188,.F.);
#1500=ORIENTED_EDGE('',*,*,#521,.F.);
#1501=ORIENTED_EDGE('',*,*,#893,.F.);
#1502=EDGE_LOOP('',(#1497,#1498,#1499,#1500,#1501));
#1503=FACE_BOUND('',#1502,.T.);
#1504=ADVANCED_FACE('',(#1503),#1496,.F.);
#1505=CARTESIAN_POINT('',(-82.498737342,18.751262658,-9.));
#1506=DIRECTION('',(-0.,0.,-1.));
#1507=DIRECTION('',(-0.,-1.,0.));
#1508=AXIS2_PLACEMENT_3D('',#1505,#1506,#1507);
#1509=CYLINDRICAL_SURFACE('',#1508,4.);
#1510=ORIENTED_EDGE('',*,*,#1487,.F.);
#1511=ORIENTED_EDGE('',*,*,#1072,.F.);
#1512=ORIENTED_EDGE('',*,*,#1452,.T.);
#1513=ORIENTED_EDGE('',*,*,#205,.F.);
#1514=EDGE_LOOP('',(#1510,#1511,#1512,#1513));
#1515=FACE_BOUND('',#1514,.T.);
#1516=ADVANCED_FACE('',(#1515),#1509,.T.);
#1517=CARTESIAN_POINT('',(-115.5,87.,-9.9));
#1518=DIRECTION('',(0.,0.,-1.));
#1519=DIRECTION('',(-1.,0.,0.));
#1520=AXIS2_PLACEMENT_3D('',#1517,#1518,#1519);
#1521=PLANE('',#1520);
#1522=ORIENTED_EDGE('',*,*,#1333,.F.);
#1523=ORIENTED_EDGE('',*,*,#1340,.F.);
#1524=EDGE_LOOP('',(#1522,#1523));
#1525=FACE_BOUND('',#1524,.T.);
#1526=ADVANCED_FACE('',(#1525),#1521,.F.);
#1527=CARTESIAN_POINT('',(-115.5,87.,-9.9));
#1528=DIRECTION('',(0.,0.,-1.));
#1529=DIRECTION('',(-1.,0.,0.));
#1530=AXIS2_PLACEMENT_3D('',#1527,#1528,#1529);
#1531=PLANE('',#1530);
#1532=ORIENTED_EDGE('',*,*,#1375,.F.);
#1533=ORIENTED_EDGE('',*,*,#1382,.F.);
#1534=EDGE_LOOP('',(#1532,#1533));
#1535=FACE_BOUND('',#1534,.T.);
#1536=ADVANCED_FACE('',(#1535),#1531,.F.);
#1537=CARTESIAN_POINT('',(-33.001262658,18.751262658,-6.7));
#1538=DIRECTION('',(0.,0.,-1.));
#1539=DIRECTION('',(1.,-0.,0.));
#1540=AXIS2_PLACEMENT_3D('',#1537,#1538,#1539);
#1541=CYLINDRICAL_SURFACE('',#1540,1.6);
#1542=CARTESIAN_POINT('',(-31.401262658,18.751262658,-7.1));
#1543=VERTEX_POINT('',#1542);
#1544=CARTESIAN_POINT('',(-31.401262658,18.751262658,-9.));
#1545=DIRECTION('',(-0.,-0.,1.));
#1546=VECTOR('',#1545,1.9);
#1547=LINE('',#1544,#1546);
#1548=EDGE_CURVE('',#1095,#1543,#1547,.T.);
#1549=ORIENTED_EDGE('',*,*,#1548,.T.);
#1550=CARTESIAN_POINT('',(-34.601262658,18.751262658,-7.1));
#1551=VERTEX_POINT('',#1550);
#1552=CARTESIAN_POINT('',(-33.001262658,18.751262658,-7.1));
#1553=DIRECTION('',(0.,0.,1.));
#1554=DIRECTION('',(-1.,0.,0.));
#1555=AXIS2_PLACEMENT_3D('',#1552,#1553,#1554);
#1556=CIRCLE('',#1555,1.6);
#1557=EDGE_CURVE('',#1551,#1543,#1556,.T.);
#1558=ORIENTED_EDGE('',*,*,#1557,.F.);
#1559=CARTESIAN_POINT('',(-33.001262658,18.751262658,-7.1));
#1560=DIRECTION('',(0.,0.,1.));
#1561=DIRECTION('',(-1.,0.,0.));
#1562=AXIS2_PLACEMENT_3D('',#1559,#1560,#1561);
#1563=CIRCLE('',#1562,1.6);
#1564=EDGE_CURVE('',#1543,#1551,#1563,.T.);
#1565=ORIENTED_EDGE('',*,*,#1564,.F.);
#1566=ORIENTED_EDGE('',*,*,#1548,.F.);
#1567=ORIENTED_EDGE('',*,*,#1101,.F.);
#1568=ORIENTED_EDGE('',*,*,#1108,.F.);
#1569=EDGE_LOOP('',(#1549,#1558,#1565,#1566,#1567,#1568));
#1570=FACE_BOUND('',#1569,.T.);
#1571=ADVANCED_FACE('',(#1570),#1541,.T.);
#1572=CARTESIAN_POINT('',(-42.001262658,13.5,-7.8));
#1573=DIRECTION('',(0.,0.,-1.));
#1574=DIRECTION('',(1.,-0.,0.));
#1575=AXIS2_PLACEMENT_3D('',#1572,#1573,#1574);
#1576=CYLINDRICAL_SURFACE('',#1575,5.);
#1577=ORIENTED_EDGE('',*,*,#1045,.F.);
#1578=CARTESIAN_POINT('',(-37.001262658,13.5,-9.5));
#1579=DIRECTION('',(-0.,-0.,1.));
#1580=VECTOR('',#1579,0.5);
#1581=LINE('',#1578,#1580);
#1582=EDGE_CURVE('',#251,#1033,#1581,.T.);
#1583=ORIENTED_EDGE('',*,*,#1582,.F.);
#1584=ORIENTED_EDGE('',*,*,#257,.F.);
#1585=ORIENTED_EDGE('',*,*,#481,.F.);
#1586=ORIENTED_EDGE('',*,*,#443,.F.);
#1587=EDGE_LOOP('',(#1577,#1583,#1584,#1585,#1586));
#1588=FACE_BOUND('',#1587,.T.);
#1589=ADVANCED_FACE('',(#1588),#1576,.F.);
#1590=CARTESIAN_POINT('',(-27.75,27.751262658,-7.8));
#1591=DIRECTION('',(0.,0.,-1.));
#1592=DIRECTION('',(1.,-0.,0.));
#1593=AXIS2_PLACEMENT_3D('',#1590,#1591,#1592);
#1594=CYLINDRICAL_SURFACE('',#1593,5.);
#1595=ORIENTED_EDGE('',*,*,#291,.F.);
#1596=CARTESIAN_POINT('',(-27.75,22.751262658,-9.));
#1597=DIRECTION('',(-0.,-0.,-1.));
#1598=VECTOR('',#1597,0.5);
#1599=LINE('',#1596,#1598);
#1600=EDGE_CURVE('',#1007,#277,#1599,.T.);
#1601=ORIENTED_EDGE('',*,*,#1600,.F.);
#1602=ORIENTED_EDGE('',*,*,#1013,.F.);
#1603=ORIENTED_EDGE('',*,*,#417,.F.);
#1604=ORIENTED_EDGE('',*,*,#497,.F.);
#1605=EDGE_LOOP('',(#1595,#1601,#1602,#1603,#1604));
#1606=FACE_BOUND('',#1605,.T.);
#1607=ADVANCED_FACE('',(#1606),#1594,.F.);
#1608=CARTESIAN_POINT('',(-37.001262658,13.890870687,-9.));
#1609=DIRECTION('',(1.,-0.,0.));
#1610=DIRECTION('',(0.,0.,1.));
#1611=AXIS2_PLACEMENT_3D('',#1608,#1609,#1610);
#1612=PLANE('',#1611);
#1613=ORIENTED_EDGE('',*,*,#265,.T.);
#1614=ORIENTED_EDGE('',*,*,#1582,.T.);
#1615=ORIENTED_EDGE('',*,*,#1038,.F.);
#1616=CARTESIAN_POINT('',(-37.001262658,18.751262658,-9.));
#1617=DIRECTION('',(0.,0.,-1.));
#1618=VECTOR('',#1617,0.5);
#1619=LINE('',#1616,#1618);
#1620=EDGE_CURVE('',#1024,#260,#1619,.T.);
#1621=ORIENTED_EDGE('',*,*,#1620,.T.);
#1622=EDGE_LOOP('',(#1613,#1614,#1615,#1621));
#1623=FACE_BOUND('',#1622,.T.);
#1624=ADVANCED_FACE('',(#1623),#1612,.F.);
#1625=CARTESIAN_POINT('',(-28.11607748,22.751262658,-9.));
#1626=DIRECTION('',(0.,1.,0.));
#1627=DIRECTION('',(0.,0.,-1.));
#1628=AXIS2_PLACEMENT_3D('',#1625,#1626,#1627);
#1629=PLANE('',#1628);
#1630=ORIENTED_EDGE('',*,*,#1021,.T.);
#1631=ORIENTED_EDGE('',*,*,#1600,.T.);
#1632=ORIENTED_EDGE('',*,*,#282,.F.);
#1633=CARTESIAN_POINT('',(-33.001262658,22.751262658,-9.));
#1634=DIRECTION('',(0.,0.,-1.));
#1635=VECTOR('',#1634,0.5);
#1636=LINE('',#1633,#1635);
#1637=EDGE_CURVE('',#1016,#268,#1636,.T.);
#1638=ORIENTED_EDGE('',*,*,#1637,.F.);
#1639=EDGE_LOOP('',(#1630,#1631,#1632,#1638));
#1640=FACE_BOUND('',#1639,.T.);
#1641=ADVANCED_FACE('',(#1640),#1629,.T.);
#1642=CARTESIAN_POINT('',(-33.001262658,18.751262658,-9.));
#1643=DIRECTION('',(0.,0.,-1.));
#1644=DIRECTION('',(1.,-0.,0.));
#1645=AXIS2_PLACEMENT_3D('',#1642,#1643,#1644);
#1646=CYLINDRICAL_SURFACE('',#1645,4.);
#1647=ORIENTED_EDGE('',*,*,#1620,.F.);
#1648=ORIENTED_EDGE('',*,*,#1030,.F.);
#1649=ORIENTED_EDGE('',*,*,#1637,.T.);
#1650=ORIENTED_EDGE('',*,*,#274,.T.);
#1651=EDGE_LOOP('',(#1647,#1648,#1649,#1650));
#1652=FACE_BOUND('',#1651,.T.);
#1653=ADVANCED_FACE('',(#1652),#1646,.T.);
#1654=CARTESIAN_POINT('',(-115.5,87.,-7.1));
#1655=DIRECTION('',(0.,0.,1.));
#1656=DIRECTION('',(-1.,0.,0.));
#1657=AXIS2_PLACEMENT_3D('',#1654,#1655,#1656);
#1658=PLANE('',#1657);
#1659=ORIENTED_EDGE('',*,*,#1557,.T.);
#1660=ORIENTED_EDGE('',*,*,#1564,.T.);
#1661=EDGE_LOOP('',(#1659,#1660));
#1662=FACE_BOUND('',#1661,.T.);
#1663=CARTESIAN_POINT('',(-33.801262658,18.751262658,-7.1));
#1664=VERTEX_POINT('',#1663);
#1665=CARTESIAN_POINT('',(-33.001262658,18.751262658,-7.1));
#1666=DIRECTION('',(-0.,-0.,-1.));
#1667=DIRECTION('',(-1.,0.,0.));
#1668=AXIS2_PLACEMENT_3D('',#1665,#1666,#1667);
#1669=CIRCLE('',#1668,0.8);
#1670=EDGE_CURVE('',#1664,#1664,#1669,.T.);
#1671=ORIENTED_EDGE('',*,*,#1670,.T.);
#1672=EDGE_LOOP('',(#1671));
#1673=FACE_BOUND('',#1672,.T.);
#1674=ADVANCED_FACE('',(#1662,#1673),#1658,.T.);
#1675=CARTESIAN_POINT('',(-33.001262658,18.751262658,-15.7));
#1676=DIRECTION('',(0.,0.,1.));
#1677=DIRECTION('',(-1.,0.,0.));
#1678=AXIS2_PLACEMENT_3D('',#1675,#1676,#1677);
#1679=CYLINDRICAL_SURFACE('',#1678,0.8);
#1680=CARTESIAN_POINT('',(-33.801262658,18.751262658,-9.9));
#1681=VERTEX_POINT('',#1680);
#1682=CARTESIAN_POINT('',(-33.801262658,18.751262658,-7.1));
#1683=DIRECTION('',(-0.,-0.,-1.));
#1684=VECTOR('',#1683,2.8);
#1685=LINE('',#1682,#1684);
#1686=EDGE_CURVE('',#1664,#1681,#1685,.T.);
#1687=ORIENTED_EDGE('',*,*,#1686,.F.);
#1688=ORIENTED_EDGE('',*,*,#1670,.F.);
#1689=ORIENTED_EDGE('',*,*,#1686,.T.);
#1690=CARTESIAN_POINT('',(-33.001262658,18.751262658,-9.9));
#1691=DIRECTION('',(0.,0.,-1.));
#1692=DIRECTION('',(-1.,0.,0.));
#1693=AXIS2_PLACEMENT_3D('',#1690,#1691,#1692);
#1694=CIRCLE('',#1693,0.8);
#1695=EDGE_CURVE('',#1681,#1681,#1694,.T.);
#1696=ORIENTED_EDGE('',*,*,#1695,.T.);
#1697=EDGE_LOOP('',(#1687,#1688,#1689,#1696));
#1698=FACE_BOUND('',#1697,.T.);
#1699=ADVANCED_FACE('',(#1698),#1679,.F.);
#1700=CARTESIAN_POINT('',(-33.001262658,68.248737342,-15.7));
#1701=DIRECTION('',(0.,0.,1.));
#1702=DIRECTION('',(-0.,-1.,0.));
#1703=AXIS2_PLACEMENT_3D('',#1700,#1701,#1702);
#1704=CYLINDRICAL_SURFACE('',#1703,0.8);
#1705=CARTESIAN_POINT('',(-33.001262658,67.448737342,-7.1));
#1706=VERTEX_POINT('',#1705);
#1707=CARTESIAN_POINT('',(-33.001262658,67.448737342,-9.9));
#1708=VERTEX_POINT('',#1707);
#1709=CARTESIAN_POINT('',(-33.001262658,67.448737342,-7.1));
#1710=DIRECTION('',(-0.,-0.,-1.));
#1711=VECTOR('',#1710,2.8);
#1712=LINE('',#1709,#1711);
#1713=EDGE_CURVE('',#1706,#1708,#1712,.T.);
#1714=ORIENTED_EDGE('',*,*,#1713,.F.);
#1715=CARTESIAN_POINT('',(-33.001262658,68.248737342,-7.1));
#1716=DIRECTION('',(-0.,-0.,-1.));
#1717=DIRECTION('',(-0.,-1.,0.));
#1718=AXIS2_PLACEMENT_3D('',#1715,#1716,#1717);
#1719=CIRCLE('',#1718,0.8);
#1720=EDGE_CURVE('',#1706,#1706,#1719,.T.);
#1721=ORIENTED_EDGE('',*,*,#1720,.F.);
#1722=ORIENTED_EDGE('',*,*,#1713,.T.);
#1723=CARTESIAN_POINT('',(-33.801262658,68.248737342,-9.9));
#1724=VERTEX_POINT('',#1723);
#1725=CARTESIAN_POINT('',(-33.001262658,68.248737342,-9.9));
#1726=DIRECTION('',(0.,0.,-1.));
#1727=DIRECTION('',(-1.,0.,0.));
#1728=AXIS2_PLACEMENT_3D('',#1725,#1726,#1727);
#1729=CIRCLE('',#1728,0.8);
#1730=EDGE_CURVE('',#1708,#1724,#1729,.T.);
#1731=ORIENTED_EDGE('',*,*,#1730,.T.);
#1732=CARTESIAN_POINT('',(-33.001262658,68.248737342,-9.9));
#1733=DIRECTION('',(0.,0.,-1.));
#1734=DIRECTION('',(-1.,0.,0.));
#1735=AXIS2_PLACEMENT_3D('',#1732,#1733,#1734);
#1736=CIRCLE('',#1735,0.8);
#1737=EDGE_CURVE('',#1724,#1708,#1736,.T.);
#1738=ORIENTED_EDGE('',*,*,#1737,.T.);
#1739=EDGE_LOOP('',(#1714,#1721,#1722,#1731,#1738));
#1740=FACE_BOUND('',#1739,.T.);
#1741=ADVANCED_FACE('',(#1740),#1704,.F.);
#1742=CARTESIAN_POINT('',(-101.25,-14.25,-7.1));
#1743=DIRECTION('',(0.,0.,1.));
#1744=DIRECTION('',(-0.,-1.,0.));
#1745=AXIS2_PLACEMENT_3D('',#1742,#1743,#1744);
#1746=PLANE('',#1745);
#1747=CARTESIAN_POINT('',(-33.001262658,66.648737342,-7.1));
#1748=VERTEX_POINT('',#1747);
#1749=CARTESIAN_POINT('',(-33.001262658,69.848737342,-7.1));
#1750=VERTEX_POINT('',#1749);
#1751=CARTESIAN_POINT('',(-33.001262658,68.248737342,-7.1));
#1752=DIRECTION('',(0.,0.,1.));
#1753=DIRECTION('',(-0.,-1.,0.));
#1754=AXIS2_PLACEMENT_3D('',#1751,#1752,#1753);
#1755=CIRCLE('',#1754,1.6);
#1756=EDGE_CURVE('',#1748,#1750,#1755,.T.);
#1757=ORIENTED_EDGE('',*,*,#1756,.T.);
#1758=CARTESIAN_POINT('',(-33.001262658,68.248737342,-7.1));
#1759=DIRECTION('',(0.,0.,1.));
#1760=DIRECTION('',(-0.,-1.,0.));
#1761=AXIS2_PLACEMENT_3D('',#1758,#1759,#1760);
#1762=CIRCLE('',#1761,1.6);
#1763=EDGE_CURVE('',#1750,#1748,#1762,.T.);
#1764=ORIENTED_EDGE('',*,*,#1763,.T.);
#1765=EDGE_LOOP('',(#1757,#1764));
#1766=FACE_BOUND('',#1765,.T.);
#1767=ORIENTED_EDGE('',*,*,#1720,.T.);
#1768=EDGE_LOOP('',(#1767));
#1769=FACE_BOUND('',#1768,.T.);
#1770=ADVANCED_FACE('',(#1766,#1769),#1746,.T.);
#1771=CARTESIAN_POINT('',(-33.001262658,68.248737342,-6.7));
#1772=DIRECTION('',(0.,0.,-1.));
#1773=DIRECTION('',(0.,1.,0.));
#1774=AXIS2_PLACEMENT_3D('',#1771,#1772,#1773);
#1775=CYLINDRICAL_SURFACE('',#1774,1.6);
#1776=CARTESIAN_POINT('',(-33.001262658,69.848737342,-9.));
#1777=DIRECTION('',(-0.,-0.,1.));
#1778=VECTOR('',#1777,1.9);
#1779=LINE('',#1776,#1778);
#1780=EDGE_CURVE('',#1115,#1750,#1779,.T.);
#1781=ORIENTED_EDGE('',*,*,#1780,.T.);
#1782=ORIENTED_EDGE('',*,*,#1756,.F.);
#1783=ORIENTED_EDGE('',*,*,#1763,.F.);
#1784=ORIENTED_EDGE('',*,*,#1780,.F.);
#1785=ORIENTED_EDGE('',*,*,#1121,.F.);
#1786=ORIENTED_EDGE('',*,*,#1128,.F.);
#1787=EDGE_LOOP('',(#1781,#1782,#1783,#1784,#1785,#1786));
#1788=FACE_BOUND('',#1787,.T.);
#1789=ADVANCED_FACE('',(#1788),#1775,.T.);
#1790=CARTESIAN_POINT('',(-37.001262658,73.13392252,-9.));
#1791=DIRECTION('',(-1.,0.,0.));
#1792=DIRECTION('',(0.,0.,-1.));
#1793=AXIS2_PLACEMENT_3D('',#1790,#1791,#1792);
#1794=PLANE('',#1793);
#1795=ORIENTED_EDGE('',*,*,#979,.T.);
#1796=CARTESIAN_POINT('',(-37.001262658,73.5,-9.));
#1797=DIRECTION('',(-0.,-0.,-1.));
#1798=VECTOR('',#1797,0.5);
#1799=LINE('',#1796,#1798);
#1800=EDGE_CURVE('',#965,#70,#1799,.T.);
#1801=ORIENTED_EDGE('',*,*,#1800,.T.);
#1802=ORIENTED_EDGE('',*,*,#75,.F.);
#1803=CARTESIAN_POINT('',(-37.001262658,68.248737342,-9.));
#1804=DIRECTION('',(0.,0.,-1.));
#1805=VECTOR('',#1804,0.5);
#1806=LINE('',#1803,#1805);
#1807=EDGE_CURVE('',#974,#61,#1806,.T.);
#1808=ORIENTED_EDGE('',*,*,#1807,.F.);
#1809=EDGE_LOOP('',(#1795,#1801,#1802,#1808));
#1810=FACE_BOUND('',#1809,.T.);
#1811=ADVANCED_FACE('',(#1810),#1794,.T.);
#1812=CARTESIAN_POINT('',(-42.001262658,73.5,-7.8));
#1813=DIRECTION('',(0.,0.,-1.));
#1814=DIRECTION('',(0.,1.,0.));
#1815=AXIS2_PLACEMENT_3D('',#1812,#1813,#1814);
#1816=CYLINDRICAL_SURFACE('',#1815,5.);
#1817=ORIENTED_EDGE('',*,*,#84,.F.);
#1818=ORIENTED_EDGE('',*,*,#1800,.F.);
#1819=ORIENTED_EDGE('',*,*,#971,.F.);
#1820=ORIENTED_EDGE('',*,*,#354,.F.);
#1821=ORIENTED_EDGE('',*,*,#596,.F.);
#1822=EDGE_LOOP('',(#1817,#1818,#1819,#1820,#1821));
#1823=FACE_BOUND('',#1822,.T.);
#1824=ADVANCED_FACE('',(#1823),#1816,.F.);
#1825=CARTESIAN_POINT('',(-28.140870687,64.248737342,-9.));
#1826=DIRECTION('',(0.,1.,0.));
#1827=DIRECTION('',(0.,0.,1.));
#1828=AXIS2_PLACEMENT_3D('',#1825,#1826,#1827);
#1829=PLANE('',#1828);
#1830=ORIENTED_EDGE('',*,*,#58,.T.);
#1831=CARTESIAN_POINT('',(-27.75,64.248737342,-9.5));
#1832=DIRECTION('',(-0.,-0.,1.));
#1833=VECTOR('',#1832,0.5);
#1834=LINE('',#1831,#1833);
#1835=EDGE_CURVE('',#44,#991,#1834,.T.);
#1836=ORIENTED_EDGE('',*,*,#1835,.T.);
#1837=ORIENTED_EDGE('',*,*,#996,.F.);
#1838=CARTESIAN_POINT('',(-33.001262658,64.248737342,-9.));
#1839=DIRECTION('',(0.,0.,-1.));
#1840=VECTOR('',#1839,0.5);
#1841=LINE('',#1838,#1840);
#1842=EDGE_CURVE('',#982,#53,#1841,.T.);
#1843=ORIENTED_EDGE('',*,*,#1842,.T.);
#1844=EDGE_LOOP('',(#1830,#1836,#1837,#1843));
#1845=FACE_BOUND('',#1844,.T.);
#1846=ADVANCED_FACE('',(#1845),#1829,.F.);
#1847=CARTESIAN_POINT('',(-27.75,59.248737342,-7.8));
#1848=DIRECTION('',(0.,0.,-1.));
#1849=DIRECTION('',(0.,1.,0.));
#1850=AXIS2_PLACEMENT_3D('',#1847,#1848,#1849);
#1851=CYLINDRICAL_SURFACE('',#1850,5.);
#1852=ORIENTED_EDGE('',*,*,#1003,.F.);
#1853=ORIENTED_EDGE('',*,*,#1835,.F.);
#1854=ORIENTED_EDGE('',*,*,#50,.F.);
#1855=ORIENTED_EDGE('',*,*,#329,.F.);
#1856=ORIENTED_EDGE('',*,*,#401,.F.);
#1857=EDGE_LOOP('',(#1852,#1853,#1854,#1855,#1856));
#1858=FACE_BOUND('',#1857,.T.);
#1859=ADVANCED_FACE('',(#1858),#1851,.F.);
#1860=CARTESIAN_POINT('',(-33.001262658,68.248737342,-9.));
#1861=DIRECTION('',(0.,0.,-1.));
#1862=DIRECTION('',(0.,1.,0.));
#1863=AXIS2_PLACEMENT_3D('',#1860,#1861,#1862);
#1864=CYLINDRICAL_SURFACE('',#1863,4.);
#1865=ORIENTED_EDGE('',*,*,#1842,.F.);
#1866=ORIENTED_EDGE('',*,*,#988,.F.);
#1867=ORIENTED_EDGE('',*,*,#1807,.T.);
#1868=ORIENTED_EDGE('',*,*,#67,.F.);
#1869=EDGE_LOOP('',(#1865,#1866,#1867,#1868));
#1870=FACE_BOUND('',#1869,.T.);
#1871=ADVANCED_FACE('',(#1870),#1864,.T.);
#1872=CARTESIAN_POINT('',(-115.5,87.,-9.9));
#1873=DIRECTION('',(0.,0.,-1.));
#1874=DIRECTION('',(-1.,0.,0.));
#1875=AXIS2_PLACEMENT_3D('',#1872,#1873,#1874);
#1876=PLANE('',#1875);
#1877=ORIENTED_EDGE('',*,*,#1730,.F.);
#1878=ORIENTED_EDGE('',*,*,#1737,.F.);
#1879=EDGE_LOOP('',(#1877,#1878));
#1880=FACE_BOUND('',#1879,.T.);
#1881=ADVANCED_FACE('',(#1880),#1876,.F.);
#1882=CARTESIAN_POINT('',(-115.5,87.,-9.9));
#1883=DIRECTION('',(0.,0.,-1.));
#1884=DIRECTION('',(-1.,0.,0.));
#1885=AXIS2_PLACEMENT_3D('',#1882,#1883,#1884);
#1886=PLANE('',#1885);
#1887=ORIENTED_EDGE('',*,*,#1695,.F.);
#1888=EDGE_LOOP('',(#1887));
#1889=FACE_BOUND('',#1888,.T.);
#1890=ADVANCED_FACE('',(#1889),#1886,.F.);
#1891=CLOSED_SHELL('',(#310,#334,#381,#421,#468,#485,#502,#526,#543,#567,#584,#601,#677,#708,#733,#757,#782,#806,#831,#855,#873,#906,#1172,#1194,#1212,#1224,
#1242,#1254,#1289,#1310,#1344,#1386,#1415,#1434,#1456,#1469,#1491,#1504,#1516,#1526,#1536,#1571,#1589,#1607,#1624,#1641,#1653,#1674,#1699,#1741,#1770,
#1789,#1811,#1824,#1846,#1859,#1871,#1881,#1890));
#1892=MANIFOLD_SOLID_BREP('\X2\5B9E4F53\X0\  09 (5)',#1891);
#1893=COLOUR_RGB('',0.627451003,0.627451003,0.643137276);
#1894=FILL_AREA_STYLE_COLOUR('',#1893);
#1895=FILL_AREA_STYLE('',(#1894));
#1896=SURFACE_STYLE_FILL_AREA(#1895);
#1897=SURFACE_SIDE_STYLE('',(#1896));
#1898=SURFACE_STYLE_USAGE(.BOTH.,#1897);
#1899=PRESENTATION_STYLE_ASSIGNMENT((#1898));
#26=STYLED_ITEM('',(#1899),#1892);
#16=SHAPE_REPRESENTATION('root',(#15),#10);
#17=ADVANCED_BREP_SHAPE_REPRESENTATION('root',(#1892),#10);
#1907=SHAPE_REPRESENTATION_RELATIONSHIP('','',#16,#17);
#1908=CARTESIAN_POINT('',(0.,0.,0.));
#1909=DIRECTION('',(0.,0.,1.));
#1910=DIRECTION('',(1.,0.,0.));
#1911=AXIS2_PLACEMENT_3D('',#1908,#1909,#1910);
#1913=MAPPED_ITEM('',#1912,#1911);
#1912=REPRESENTATION_MAP(#1911,#16);
#1914=APPLICATION_CONTEXT('Managed model based 3d engineering');
#1915=APPLICATION_PROTOCOL_DEFINITION('international standard','ap242_managed_model_based_3d_engineering',2014,#1914);
#1916=PRODUCT_CONTEXT('',#1914,'mechanical');
#1917=PRODUCT_DEFINITION_CONTEXT('part definition',#1914,'design');
#24=PRODUCT('root','root','',(#1916));
#1918=PRODUCT_RELATED_PRODUCT_CATEGORY('part','',(#24));
#1919=PRODUCT_DEFINITION_FORMATION_WITH_SPECIFIED_SOURCE('','',#24,.NOT_KNOWN.);
#25=PRODUCT_DEFINITION('design','',#1919,#1917);
#23=PRODUCT_DEFINITION_SHAPE('','',#25);
#1920=SHAPE_DEFINITION_REPRESENTATION(#23,#16);
#11=DRAUGHTING_MODEL('',(#1913),#10);
#1921=DESCRIPTIVE_REPRESENTATION_ITEM('KEY','C:\\Users\\chang\\AppData\\Local\\Packages\\Shapr3D.Shapr3D_dvv5p1vgwv6mp\\TempState\\6768014f-538f-4bf7-b948-dd58b849f6b7.tmp');
#1922=PROPERTY_DEFINITION('KEY','',#25);
#1923=REPRESENTATION('',(#1921),#10);
#1924=PROPERTY_DEFINITION_REPRESENTATION(#1922,#1923);
#1925=GENERAL_PROPERTY('','KEY','');
#1926=GENERAL_PROPERTY_ASSOCIATION('','',#1925,#1922);
#1=MECHANICAL_DESIGN_GEOMETRIC_PRESENTATION_REPRESENTATION('',(#26),#10);
ENDSEC;
END-ISO-10303-21;
