ISO-10303-21;
HEADER;

/* File generated by Shapr3D Version 26.170.11783.0 */

FILE_DESCRIPTION(('HOOPS Exchange Step'),'2;1');

FILE_NAME('C:\\Users\\chang\\AppData\\Local\\Packages\\Shapr3D.Shapr3D_dvv5p1vgwv6mp\\TempState\\export\\temp_export',
'2026-09-22T09:25:13+08:00',
('chang'),
('Shapr3D Limited'),
'HOOPS Exchange 2026.3',
'Shapr3D',
'Authorized');

FILE_SCHEMA( ('AP242_MANAGED_MODEL_BASED_3D_ENGINEERING_MIM_LF {1 0 10303 442 1 1 4}') );

ENDSEC;

DATA;
#3=(NAMED_UNIT(*)PLANE_ANGLE_UNIT()SI_UNIT($,.RADIAN.));
#4=PLANE_ANGLE_MEASURE_WITH_UNIT(PLANE_ANGLE_MEASURE(0.0174532925),#3);
#5=(CONVERSION_BASED_UNIT('DEGREE',#4)NAMED_UNIT(#6)PLANE_ANGLE_UNIT());
#6=DIMENSIONAL_EXPONENTS(0.,0.,0.,0.,0.,0.,0.);
#7=(NAMED_UNIT(*)SI_UNIT($,.STERADIAN.)SOLID_ANGLE_UNIT());
#8=(LENGTH_UNIT()NAMED_UNIT(*)SI_UNIT(.MILLI.,.METRE.));
#9=UNCERTAINTY_MEASURE_WITH_UNIT(LENGTH_MEASURE(1.000000E-05),#8,'DISTANCE_ACCURACY_VALUE','Maximum Tolerance applied to model');
#10=(GEOMETRIC_REPRESENTATION_CONTEXT(3)GLOBAL_UNCERTAINTY_ASSIGNED_CONTEXT((#9))GLOBAL_UNIT_ASSIGNED_CONTEXT((#8,#5,#7))REPRESENTATION_CONTEXT('','root'));
#12=CARTESIAN_POINT('',(0.,0.,0.));
#13=DIRECTION('',(0.,0.,1.));
#14=DIRECTION('',(1.,0.,0.));
#15=AXIS2_PLACEMENT_3D('',#12,#13,#14);
#27=CARTESIAN_POINT('',(780.,-150.,1.));
#28=DIRECTION('',(0.,0.,-1.));
#29=DIRECTION('',(-1.,0.,0.));
#30=AXIS2_PLACEMENT_3D('',#27,#28,#29);
#31=CYLINDRICAL_SURFACE('',#30,40.);
#32=CARTESIAN_POINT('',(740.,-150.,-9.3));
#33=VERTEX_POINT('',#32);
#34=CARTESIAN_POINT('',(740.,-150.,-1.4));
#35=VERTEX_POINT('',#34);
#36=CARTESIAN_POINT('',(740.,-150.,-9.3));
#37=DIRECTION('',(-0.,-0.,1.));
#38=VECTOR('',#37,7.9);
#39=LINE('',#36,#38);
#40=EDGE_CURVE('',#33,#35,#39,.T.);
#41=ORIENTED_EDGE('',*,*,#40,.F.);
#42=CARTESIAN_POINT('',(755.236265321,-118.587304402,-9.3));
#43=VERTEX_POINT('',#42);
#44=CARTESIAN_POINT('',(780.,-150.,-9.3));
#45=DIRECTION('',(-0.,-0.,1.));
#46=DIRECTION('',(-1.,0.,0.));
#47=AXIS2_PLACEMENT_3D('',#44,#45,#46);
#48=CIRCLE('',#47,40.);
#49=EDGE_CURVE('',#43,#33,#48,.T.);
#50=ORIENTED_EDGE('',*,*,#49,.F.);
#51=CARTESIAN_POINT('',(755.236265321,-118.587304402,-7.3));
#52=VERTEX_POINT('',#51);
#53=CARTESIAN_POINT('',(755.236265321,-118.587304402,-7.3));
#54=DIRECTION('',(0.,0.,-1.));
#55=VECTOR('',#54,2.);
#56=LINE('',#53,#55);
#57=EDGE_CURVE('',#52,#43,#56,.T.);
#58=ORIENTED_EDGE('',*,*,#57,.F.);
#59=CARTESIAN_POINT('',(760.130089457,-115.284201651,-7.3));
#60=VERTEX_POINT('',#59);
#61=CARTESIAN_POINT('',(780.,-150.,-7.3));
#62=DIRECTION('',(0.,0.,1.));
#63=DIRECTION('',(-1.,0.,0.));
#64=AXIS2_PLACEMENT_3D('',#61,#62,#63);
#65=CIRCLE('',#64,40.);
#66=EDGE_CURVE('',#60,#52,#65,.T.);
#67=ORIENTED_EDGE('',*,*,#66,.F.);
#68=CARTESIAN_POINT('',(760.130089457,-115.284201651,-9.3));
#69=VERTEX_POINT('',#68);
#70=CARTESIAN_POINT('',(760.130089457,-115.284201651,-7.3));
#71=DIRECTION('',(0.,0.,-1.));
#72=VECTOR('',#71,2.);
#73=LINE('',#70,#72);
#74=EDGE_CURVE('',#60,#69,#73,.T.);
#75=ORIENTED_EDGE('',*,*,#74,.T.);
#76=CARTESIAN_POINT('',(811.412980601,-125.23662685,-9.3));
#77=VERTEX_POINT('',#76);
#78=CARTESIAN_POINT('',(780.,-150.,-9.3));
#79=DIRECTION('',(-0.,-0.,1.));
#80=DIRECTION('',(-1.,0.,0.));
#81=AXIS2_PLACEMENT_3D('',#78,#79,#80);
#82=CIRCLE('',#81,40.);
#83=EDGE_CURVE('',#77,#69,#82,.T.);
#84=ORIENTED_EDGE('',*,*,#83,.F.);
#85=CARTESIAN_POINT('',(811.412980601,-125.23662685,-7.3));
#86=VERTEX_POINT('',#85);
#87=CARTESIAN_POINT('',(811.412980601,-125.23662685,-7.3));
#88=DIRECTION('',(0.,0.,-1.));
#89=VECTOR('',#88,2.);
#90=LINE('',#87,#89);
#91=EDGE_CURVE('',#86,#77,#90,.T.);
#92=ORIENTED_EDGE('',*,*,#91,.F.);
#93=CARTESIAN_POINT('',(814.715788567,-130.130072366,-7.3));
#94=VERTEX_POINT('',#93);
#95=CARTESIAN_POINT('',(780.,-150.,-7.3));
#96=DIRECTION('',(0.,0.,1.));
#97=DIRECTION('',(-1.,0.,0.));
#98=AXIS2_PLACEMENT_3D('',#95,#96,#97);
#99=CIRCLE('',#98,40.);
#100=EDGE_CURVE('',#94,#86,#99,.T.);
#101=ORIENTED_EDGE('',*,*,#100,.F.);
#102=CARTESIAN_POINT('',(814.715788567,-130.130072366,-9.3));
#103=VERTEX_POINT('',#102);
#104=CARTESIAN_POINT('',(814.715788567,-130.130072366,-7.3));
#105=DIRECTION('',(0.,0.,-1.));
#106=VECTOR('',#105,2.);
#107=LINE('',#104,#106);
#108=EDGE_CURVE('',#94,#103,#107,.T.);
#109=ORIENTED_EDGE('',*,*,#108,.T.);
#110=CARTESIAN_POINT('',(804.764382764,-181.412184679,-9.3));
#111=VERTEX_POINT('',#110);
#112=CARTESIAN_POINT('',(780.,-150.,-9.3));
#113=DIRECTION('',(-0.,-0.,1.));
#114=DIRECTION('',(-1.,0.,0.));
#115=AXIS2_PLACEMENT_3D('',#112,#113,#114);
#116=CIRCLE('',#115,40.);
#117=EDGE_CURVE('',#111,#103,#116,.T.);
#118=ORIENTED_EDGE('',*,*,#117,.F.);
#119=CARTESIAN_POINT('',(804.764382764,-181.412184679,-7.3));
#120=VERTEX_POINT('',#119);
#121=CARTESIAN_POINT('',(804.764382764,-181.412184679,-7.3));
#122=DIRECTION('',(0.,0.,-1.));
#123=VECTOR('',#122,2.);
#124=LINE('',#121,#123);
#125=EDGE_CURVE('',#120,#111,#124,.T.);
#126=ORIENTED_EDGE('',*,*,#125,.F.);
#127=CARTESIAN_POINT('',(799.87111276,-184.715110221,-7.3));
#128=VERTEX_POINT('',#127);
#129=CARTESIAN_POINT('',(780.,-150.,-7.3));
#130=DIRECTION('',(0.,0.,1.));
#131=DIRECTION('',(-1.,0.,0.));
#132=AXIS2_PLACEMENT_3D('',#129,#130,#131);
#133=CIRCLE('',#132,40.);
#134=EDGE_CURVE('',#128,#120,#133,.T.);
#135=ORIENTED_EDGE('',*,*,#134,.F.);
#136=CARTESIAN_POINT('',(799.87111276,-184.715110221,-9.3));
#137=VERTEX_POINT('',#136);
#138=CARTESIAN_POINT('',(799.87111276,-184.715110221,-7.3));
#139=DIRECTION('',(0.,0.,-1.));
#140=VECTOR('',#139,2.);
#141=LINE('',#138,#140);
#142=EDGE_CURVE('',#128,#137,#141,.T.);
#143=ORIENTED_EDGE('',*,*,#142,.T.);
#144=CARTESIAN_POINT('',(748.588100423,-174.764744395,-9.3));
#145=VERTEX_POINT('',#144);
#146=CARTESIAN_POINT('',(780.,-150.,-9.3));
#147=DIRECTION('',(-0.,-0.,1.));
#148=DIRECTION('',(-1.,0.,0.));
#149=AXIS2_PLACEMENT_3D('',#146,#147,#148);
#150=CIRCLE('',#149,40.);
#151=EDGE_CURVE('',#145,#137,#150,.T.);
#152=ORIENTED_EDGE('',*,*,#151,.F.);
#153=CARTESIAN_POINT('',(748.588100423,-174.764744395,-7.3));
#154=VERTEX_POINT('',#153);
#155=CARTESIAN_POINT('',(748.588100423,-174.764744395,-7.3));
#156=DIRECTION('',(0.,0.,-1.));
#157=VECTOR('',#156,2.);
#158=LINE('',#155,#157);
#159=EDGE_CURVE('',#154,#145,#158,.T.);
#160=ORIENTED_EDGE('',*,*,#159,.F.);
#161=CARTESIAN_POINT('',(745.284879968,-169.871095621,-7.3));
#162=VERTEX_POINT('',#161);
#163=CARTESIAN_POINT('',(780.,-150.,-7.3));
#164=DIRECTION('',(0.,0.,1.));
#165=DIRECTION('',(-1.,0.,0.));
#166=AXIS2_PLACEMENT_3D('',#163,#164,#165);
#167=CIRCLE('',#166,40.);
#168=EDGE_CURVE('',#162,#154,#167,.T.);
#169=ORIENTED_EDGE('',*,*,#168,.F.);
#170=CARTESIAN_POINT('',(745.284879968,-169.871095621,-9.3));
#171=VERTEX_POINT('',#170);
#172=CARTESIAN_POINT('',(745.284879968,-169.871095621,-7.3));
#173=DIRECTION('',(0.,0.,-1.));
#174=VECTOR('',#173,2.);
#175=LINE('',#172,#174);
#176=EDGE_CURVE('',#162,#171,#175,.T.);
#177=ORIENTED_EDGE('',*,*,#176,.T.);
#178=CARTESIAN_POINT('',(780.,-150.,-9.3));
#179=DIRECTION('',(-0.,-0.,1.));
#180=DIRECTION('',(-1.,0.,0.));
#181=AXIS2_PLACEMENT_3D('',#178,#179,#180);
#182=CIRCLE('',#181,40.);
#183=EDGE_CURVE('',#33,#171,#182,.T.);
#184=ORIENTED_EDGE('',*,*,#183,.F.);
#185=ORIENTED_EDGE('',*,*,#40,.T.);
#186=CARTESIAN_POINT('',(820.,-150.,-1.4));
#187=VERTEX_POINT('',#186);
#188=CARTESIAN_POINT('',(780.,-150.,-1.4));
#189=DIRECTION('',(-0.,-0.,-1.));
#190=DIRECTION('',(1.,0.,-0.));
#191=AXIS2_PLACEMENT_3D('',#188,#189,#190);
#192=CIRCLE('',#191,40.);
#193=EDGE_CURVE('',#187,#35,#192,.T.);
#194=ORIENTED_EDGE('',*,*,#193,.F.);
#195=CARTESIAN_POINT('',(780.,-150.,-1.4));
#196=DIRECTION('',(-0.,-0.,-1.));
#197=DIRECTION('',(1.,0.,-0.));
#198=AXIS2_PLACEMENT_3D('',#195,#196,#197);
#199=CIRCLE('',#198,40.);
#200=EDGE_CURVE('',#35,#187,#199,.T.);
#201=ORIENTED_EDGE('',*,*,#200,.F.);
#202=EDGE_LOOP('',(#41,#50,#58,#67,#75,#84,#92,#101,#109,#118,#126,#135,#143,#152,#160,#169,#177,#184,#185,#194,#201));
#203=FACE_BOUND('',#202,.T.);
#204=ADVANCED_FACE('',(#203),#31,.F.);
#205=CARTESIAN_POINT('',(747.361986866,-186.75,-8.07));
#206=DIRECTION('',(0.,0.,-1.));
#207=DIRECTION('',(-1.,0.,0.));
#208=AXIS2_PLACEMENT_3D('',#205,#206,#207);
#209=CYLINDRICAL_SURFACE('',#208,1.75);
#210=CARTESIAN_POINT('',(745.611986866,-186.75,-9.3));
#211=VERTEX_POINT('',#210);
#212=CARTESIAN_POINT('',(745.611986866,-186.75,-8.1));
#213=VERTEX_POINT('',#212);
#214=CARTESIAN_POINT('',(745.611986866,-186.75,-9.3));
#215=DIRECTION('',(-0.,-0.,1.));
#216=VECTOR('',#215,1.2);
#217=LINE('',#214,#216);
#218=EDGE_CURVE('',#211,#213,#217,.T.);
#219=ORIENTED_EDGE('',*,*,#218,.F.);
#220=CARTESIAN_POINT('',(746.074408978,-185.564823564,-9.3));
#221=VERTEX_POINT('',#220);
#222=CARTESIAN_POINT('',(747.361986866,-186.75,-9.3));
#223=DIRECTION('',(0.,0.,-1.));
#224=DIRECTION('',(-0.735758793,0.677243677,0.));
#225=AXIS2_PLACEMENT_3D('',#222,#223,#224);
#226=CIRCLE('',#225,1.75);
#227=EDGE_CURVE('',#211,#221,#226,.T.);
#228=ORIENTED_EDGE('',*,*,#227,.T.);
#229=CARTESIAN_POINT('',(747.361986866,-186.75,-9.3));
#230=DIRECTION('',(0.,0.,-1.));
#231=DIRECTION('',(-0.735758793,0.677243677,0.));
#232=AXIS2_PLACEMENT_3D('',#229,#230,#231);
#233=CIRCLE('',#232,1.75);
#234=EDGE_CURVE('',#221,#211,#233,.T.);
#235=ORIENTED_EDGE('',*,*,#234,.T.);
#236=ORIENTED_EDGE('',*,*,#218,.T.);
#237=CARTESIAN_POINT('',(749.111986866,-186.75,-8.1));
#238=VERTEX_POINT('',#237);
#239=CARTESIAN_POINT('',(747.361986866,-186.75,-8.1));
#240=DIRECTION('',(-0.,-0.,-1.));
#241=DIRECTION('',(1.,0.,-0.));
#242=AXIS2_PLACEMENT_3D('',#239,#240,#241);
#243=CIRCLE('',#242,1.75);
#244=EDGE_CURVE('',#238,#213,#243,.T.);
#245=ORIENTED_EDGE('',*,*,#244,.F.);
#246=CARTESIAN_POINT('',(747.361986866,-186.75,-8.1));
#247=DIRECTION('',(-0.,-0.,-1.));
#248=DIRECTION('',(1.,0.,-0.));
#249=AXIS2_PLACEMENT_3D('',#246,#247,#248);
#250=CIRCLE('',#249,1.75);
#251=EDGE_CURVE('',#213,#238,#250,.T.);
#252=ORIENTED_EDGE('',*,*,#251,.F.);
#253=EDGE_LOOP('',(#219,#228,#235,#236,#245,#252));
#254=FACE_BOUND('',#253,.T.);
#255=ADVANCED_FACE('',(#254),#209,.F.);
#256=CARTESIAN_POINT('',(747.361986866,-113.25,-8.7));
#257=DIRECTION('',(0.,0.,-1.));
#258=DIRECTION('',(-1.,0.,0.));
#259=AXIS2_PLACEMENT_3D('',#256,#257,#258);
#260=CYLINDRICAL_SURFACE('',#259,1.75);
#261=CARTESIAN_POINT('',(745.611986866,-113.25,-9.3));
#262=VERTEX_POINT('',#261);
#263=CARTESIAN_POINT('',(745.611986866,-113.25,-8.1));
#264=VERTEX_POINT('',#263);
#265=CARTESIAN_POINT('',(745.611986866,-113.25,-9.3));
#266=DIRECTION('',(-0.,-0.,1.));
#267=VECTOR('',#266,1.2);
#268=LINE('',#265,#267);
#269=EDGE_CURVE('',#262,#264,#268,.T.);
#270=ORIENTED_EDGE('',*,*,#269,.F.);
#271=CARTESIAN_POINT('',(746.074408978,-114.435176436,-9.3));
#272=VERTEX_POINT('',#271);
#273=CARTESIAN_POINT('',(747.361986866,-113.25,-9.3));
#274=DIRECTION('',(-0.,0.,-1.));
#275=DIRECTION('',(-0.735758793,-0.677243677,0.));
#276=AXIS2_PLACEMENT_3D('',#273,#274,#275);
#277=CIRCLE('',#276,1.75);
#278=EDGE_CURVE('',#262,#272,#277,.T.);
#279=ORIENTED_EDGE('',*,*,#278,.T.);
#280=CARTESIAN_POINT('',(747.361986866,-113.25,-9.3));
#281=DIRECTION('',(-0.,0.,-1.));
#282=DIRECTION('',(-0.735758793,-0.677243677,0.));
#283=AXIS2_PLACEMENT_3D('',#280,#281,#282);
#284=CIRCLE('',#283,1.75);
#285=EDGE_CURVE('',#272,#262,#284,.T.);
#286=ORIENTED_EDGE('',*,*,#285,.T.);
#287=ORIENTED_EDGE('',*,*,#269,.T.);
#288=CARTESIAN_POINT('',(749.111986866,-113.25,-8.1));
#289=VERTEX_POINT('',#288);
#290=CARTESIAN_POINT('',(747.361986866,-113.25,-8.1));
#291=DIRECTION('',(-0.,-0.,-1.));
#292=DIRECTION('',(1.,0.,-0.));
#293=AXIS2_PLACEMENT_3D('',#290,#291,#292);
#294=CIRCLE('',#293,1.75);
#295=EDGE_CURVE('',#289,#264,#294,.T.);
#296=ORIENTED_EDGE('',*,*,#295,.F.);
#297=CARTESIAN_POINT('',(747.361986866,-113.25,-8.1));
#298=DIRECTION('',(-0.,-0.,-1.));
#299=DIRECTION('',(1.,0.,-0.));
#300=AXIS2_PLACEMENT_3D('',#297,#298,#299);
#301=CIRCLE('',#300,1.75);
#302=EDGE_CURVE('',#264,#289,#301,.T.);
#303=ORIENTED_EDGE('',*,*,#302,.F.);
#304=EDGE_LOOP('',(#270,#279,#286,#287,#296,#303));
#305=FACE_BOUND('',#304,.T.);
#306=ADVANCED_FACE('',(#305),#260,.F.);
#307=CARTESIAN_POINT('',(95.936847625,14.809573412,-5.6));
#308=DIRECTION('',(0.,0.,1.));
#309=DIRECTION('',(0.,1.,0.));
#310=AXIS2_PLACEMENT_3D('',#307,#308,#309);
#311=PLANE('',#310);
#312=CARTESIAN_POINT('',(750.061986866,-186.75,-5.6));
#313=VERTEX_POINT('',#312);
#314=CARTESIAN_POINT('',(747.361986866,-189.45,-5.6));
#315=VERTEX_POINT('',#314);
#316=CARTESIAN_POINT('',(747.361986866,-186.75,-5.6));
#317=DIRECTION('',(0.,0.,1.));
#318=DIRECTION('',(0.,-1.,0.));
#319=AXIS2_PLACEMENT_3D('',#316,#317,#318);
#320=CIRCLE('',#319,2.7);
#321=EDGE_CURVE('',#313,#315,#320,.T.);
#322=ORIENTED_EDGE('',*,*,#321,.F.);
#323=CARTESIAN_POINT('',(747.361986866,-186.75,-5.6));
#324=DIRECTION('',(0.,0.,1.));
#325=DIRECTION('',(0.,-1.,0.));
#326=AXIS2_PLACEMENT_3D('',#323,#324,#325);
#327=CIRCLE('',#326,2.7);
#328=EDGE_CURVE('',#315,#313,#327,.T.);
#329=ORIENTED_EDGE('',*,*,#328,.F.);
#330=EDGE_LOOP('',(#322,#329));
#331=FACE_BOUND('',#330,.T.);
#332=CARTESIAN_POINT('',(737.116877309,-170.206749066,-5.6));
#333=VERTEX_POINT('',#332);
#334=CARTESIAN_POINT('',(733.952949079,-171.697269673,-5.6));
#335=VERTEX_POINT('',#334);
#336=CARTESIAN_POINT('',(737.116877309,-170.206749066,-5.6));
#337=DIRECTION('',(-0.904640917,-0.426174626,0.));
#338=VECTOR('',#337,3.497440997);
#339=LINE('',#336,#338);
#340=EDGE_CURVE('',#333,#335,#339,.T.);
#341=ORIENTED_EDGE('',*,*,#340,.T.);
#342=CARTESIAN_POINT('',(732.231472956,-174.411192423,-5.6));
#343=VERTEX_POINT('',#342);
#344=CARTESIAN_POINT('',(735.231472956,-174.411192423,-5.6));
#345=DIRECTION('',(0.,0.,1.));
#346=DIRECTION('',(1.,0.,-0.));
#347=AXIS2_PLACEMENT_3D('',#344,#345,#346);
#348=CIRCLE('',#347,3.);
#349=EDGE_CURVE('',#335,#343,#348,.T.);
#350=ORIENTED_EDGE('',*,*,#349,.T.);
#351=CARTESIAN_POINT('',(732.597456929,-175.847144919,-5.6));
#352=VERTEX_POINT('',#351);
#353=CARTESIAN_POINT('',(735.231472956,-174.411192423,-5.6));
#354=DIRECTION('',(0.,0.,1.));
#355=DIRECTION('',(1.,0.,-0.));
#356=AXIS2_PLACEMENT_3D('',#353,#354,#355);
#357=CIRCLE('',#356,3.);
#358=EDGE_CURVE('',#343,#352,#357,.T.);
#359=ORIENTED_EDGE('',*,*,#358,.T.);
#360=CARTESIAN_POINT('',(788.618007781,-96.690546626,-5.6));
#361=VERTEX_POINT('',#360);
#362=CARTESIAN_POINT('',(780.009745416,-150.,-5.6));
#363=DIRECTION('',(0.,0.,1.));
#364=DIRECTION('',(1.,0.,-0.));
#365=AXIS2_PLACEMENT_3D('',#362,#363,#364);
#366=CIRCLE('',#365,54.);
#367=EDGE_CURVE('',#352,#361,#366,.T.);
#368=ORIENTED_EDGE('',*,*,#367,.T.);
#369=CARTESIAN_POINT('',(785.155131486,-99.348988143,-5.6));
#370=VERTEX_POINT('',#369);
#371=CARTESIAN_POINT('',(788.139770983,-99.652182924,-5.6));
#372=DIRECTION('',(0.,0.,1.));
#373=DIRECTION('',(1.,0.,-0.));
#374=AXIS2_PLACEMENT_3D('',#371,#372,#373);
#375=CIRCLE('',#374,3.);
#376=EDGE_CURVE('',#361,#370,#375,.T.);
#377=ORIENTED_EDGE('',*,*,#376,.T.);
#378=CARTESIAN_POINT('',(784.800707692,-102.837924359,-5.6));
#379=VERTEX_POINT('',#378);
#380=CARTESIAN_POINT('',(785.155131486,-99.348988143,-5.6));
#381=DIRECTION('',(-0.101064927,-0.994879832,0.));
#382=VECTOR('',#381,3.506892093);
#383=LINE('',#380,#382);
#384=EDGE_CURVE('',#370,#379,#383,.T.);
#385=ORIENTED_EDGE('',*,*,#384,.T.);
#386=CARTESIAN_POINT('',(781.701369151,-105.53253613,-5.6));
#387=VERTEX_POINT('',#386);
#388=CARTESIAN_POINT('',(781.816068195,-102.534729577,-5.6));
#389=DIRECTION('',(-0.,-0.,-1.));
#390=DIRECTION('',(1.,0.,-0.));
#391=AXIS2_PLACEMENT_3D('',#388,#389,#390);
#392=CIRCLE('',#391,3.);
#393=EDGE_CURVE('',#379,#387,#392,.T.);
#394=ORIENTED_EDGE('',*,*,#393,.T.);
#395=CARTESIAN_POINT('',(738.627510058,-166.388016232,-5.6));
#396=VERTEX_POINT('',#395);
#397=CARTESIAN_POINT('',(780.,-150.,-5.6));
#398=DIRECTION('',(0.,0.,1.));
#399=DIRECTION('',(1.,0.,-0.));
#400=AXIS2_PLACEMENT_3D('',#397,#398,#399);
#401=CIRCLE('',#400,44.5);
#402=EDGE_CURVE('',#396,#387,#401,.T.);
#403=ORIENTED_EDGE('',*,*,#402,.F.);
#404=CARTESIAN_POINT('',(735.838353433,-167.492826315,-5.6));
#405=DIRECTION('',(-0.,-0.,-1.));
#406=DIRECTION('',(1.,0.,-0.));
#407=AXIS2_PLACEMENT_3D('',#404,#405,#406);
#408=CIRCLE('',#407,3.);
#409=EDGE_CURVE('',#396,#333,#408,.T.);
#410=ORIENTED_EDGE('',*,*,#409,.T.);
#411=EDGE_LOOP('',(#341,#350,#359,#368,#377,#385,#394,#403,#410));
#412=FACE_BOUND('',#411,.T.);
#413=CARTESIAN_POINT('',(817.459745416,-115.25,-5.6));
#414=VERTEX_POINT('',#413);
#415=CARTESIAN_POINT('',(814.759745416,-112.55,-5.6));
#416=VERTEX_POINT('',#415);
#417=CARTESIAN_POINT('',(814.759745416,-115.25,-5.6));
#418=DIRECTION('',(0.,-0.,1.));
#419=DIRECTION('',(0.,1.,0.));
#420=AXIS2_PLACEMENT_3D('',#417,#418,#419);
#421=CIRCLE('',#420,2.7);
#422=EDGE_CURVE('',#414,#416,#421,.T.);
#423=ORIENTED_EDGE('',*,*,#422,.F.);
#424=CARTESIAN_POINT('',(814.759745416,-115.25,-5.6));
#425=DIRECTION('',(0.,-0.,1.));
#426=DIRECTION('',(0.,1.,0.));
#427=AXIS2_PLACEMENT_3D('',#424,#425,#426);
#428=CIRCLE('',#427,2.7);
#429=EDGE_CURVE('',#416,#414,#428,.T.);
#430=ORIENTED_EDGE('',*,*,#429,.F.);
#431=EDGE_LOOP('',(#423,#430));
#432=FACE_BOUND('',#431,.T.);
#433=CARTESIAN_POINT('',(817.459745416,-184.75,-5.6));
#434=VERTEX_POINT('',#433);
#435=CARTESIAN_POINT('',(814.759745416,-182.05,-5.6));
#436=VERTEX_POINT('',#435);
#437=CARTESIAN_POINT('',(814.759745416,-184.75,-5.6));
#438=DIRECTION('',(0.,-0.,1.));
#439=DIRECTION('',(0.,1.,0.));
#440=AXIS2_PLACEMENT_3D('',#437,#438,#439);
#441=CIRCLE('',#440,2.7);
#442=EDGE_CURVE('',#434,#436,#441,.T.);
#443=ORIENTED_EDGE('',*,*,#442,.F.);
#444=CARTESIAN_POINT('',(814.759745416,-184.75,-5.6));
#445=DIRECTION('',(0.,-0.,1.));
#446=DIRECTION('',(0.,1.,0.));
#447=AXIS2_PLACEMENT_3D('',#444,#445,#446);
#448=CIRCLE('',#447,2.7);
#449=EDGE_CURVE('',#436,#434,#448,.T.);
#450=ORIENTED_EDGE('',*,*,#449,.F.);
#451=EDGE_LOOP('',(#443,#450));
#452=FACE_BOUND('',#451,.T.);
#453=ADVANCED_FACE('',(#331,#412,#432,#452),#311,.T.);
#454=CARTESIAN_POINT('',(95.936847625,14.809573412,-5.6));
#455=DIRECTION('',(0.,0.,1.));
#456=DIRECTION('',(0.,1.,0.));
#457=AXIS2_PLACEMENT_3D('',#454,#455,#456);
#458=PLANE('',#457);
#459=CARTESIAN_POINT('',(750.061986866,-113.25,-5.6));
#460=VERTEX_POINT('',#459);
#461=CARTESIAN_POINT('',(747.361986866,-115.95,-5.6));
#462=VERTEX_POINT('',#461);
#463=CARTESIAN_POINT('',(747.361986866,-113.25,-5.6));
#464=DIRECTION('',(0.,0.,1.));
#465=DIRECTION('',(0.,-1.,0.));
#466=AXIS2_PLACEMENT_3D('',#463,#464,#465);
#467=CIRCLE('',#466,2.7);
#468=EDGE_CURVE('',#460,#462,#467,.T.);
#469=ORIENTED_EDGE('',*,*,#468,.F.);
#470=CARTESIAN_POINT('',(747.361986866,-113.25,-5.6));
#471=DIRECTION('',(0.,0.,1.));
#472=DIRECTION('',(0.,-1.,0.));
#473=AXIS2_PLACEMENT_3D('',#470,#471,#472);
#474=CIRCLE('',#473,2.7);
#475=EDGE_CURVE('',#462,#460,#474,.T.);
#476=ORIENTED_EDGE('',*,*,#475,.F.);
#477=EDGE_LOOP('',(#469,#476));
#478=FACE_BOUND('',#477,.T.);
#479=CARTESIAN_POINT('',(748.843150904,-105.901889082,-5.6));
#480=VERTEX_POINT('',#479);
#481=CARTESIAN_POINT('',(727.961276641,-135.6140034,-5.6));
#482=VERTEX_POINT('',#481);
#483=CARTESIAN_POINT('',(780.009745416,-150.,-5.6));
#484=DIRECTION('',(0.,0.,1.));
#485=DIRECTION('',(1.,0.,-0.));
#486=AXIS2_PLACEMENT_3D('',#483,#484,#485);
#487=CIRCLE('',#486,54.);
#488=EDGE_CURVE('',#480,#482,#487,.T.);
#489=ORIENTED_EDGE('',*,*,#488,.T.);
#490=CARTESIAN_POINT('',(727.852858239,-136.413225433,-5.6));
#491=VERTEX_POINT('',#490);
#492=CARTESIAN_POINT('',(730.852858239,-136.413225433,-5.6));
#493=DIRECTION('',(0.,0.,1.));
#494=DIRECTION('',(1.,0.,-0.));
#495=AXIS2_PLACEMENT_3D('',#492,#493,#494);
#496=CIRCLE('',#495,3.);
#497=EDGE_CURVE('',#482,#491,#496,.T.);
#498=ORIENTED_EDGE('',*,*,#497,.T.);
#499=CARTESIAN_POINT('',(730.225113176,-139.346813021,-5.6));
#500=VERTEX_POINT('',#499);
#501=CARTESIAN_POINT('',(730.852858239,-136.413225433,-5.6));
#502=DIRECTION('',(0.,0.,1.));
#503=DIRECTION('',(1.,0.,-0.));
#504=AXIS2_PLACEMENT_3D('',#501,#502,#503);
#505=CIRCLE('',#504,3.);
#506=EDGE_CURVE('',#491,#500,#505,.T.);
#507=ORIENTED_EDGE('',*,*,#506,.T.);
#508=CARTESIAN_POINT('',(733.644562585,-140.078525445,-5.6));
#509=VERTEX_POINT('',#508);
#510=CARTESIAN_POINT('',(733.644562585,-140.078525445,-5.6));
#511=DIRECTION('',(-0.977862529,0.209248354,0.));
#512=VECTOR('',#511,3.496861068);
#513=LINE('',#510,#512);
#514=EDGE_CURVE('',#509,#500,#513,.T.);
#515=ORIENTED_EDGE('',*,*,#514,.F.);
#516=CARTESIAN_POINT('',(735.984176416,-143.453453262,-5.6));
#517=VERTEX_POINT('',#516);
#518=CARTESIAN_POINT('',(733.016817522,-143.012113033,-5.6));
#519=DIRECTION('',(-0.,-0.,-1.));
#520=DIRECTION('',(1.,0.,-0.));
#521=AXIS2_PLACEMENT_3D('',#518,#519,#520);
#522=CIRCLE('',#521,3.);
#523=EDGE_CURVE('',#509,#517,#522,.T.);
#524=ORIENTED_EDGE('',*,*,#523,.T.);
#525=CARTESIAN_POINT('',(758.938916662,-110.799479995,-5.6));
#526=VERTEX_POINT('',#525);
#527=CARTESIAN_POINT('',(780.,-150.,-5.6));
#528=DIRECTION('',(0.,0.,1.));
#529=DIRECTION('',(1.,0.,-0.));
#530=AXIS2_PLACEMENT_3D('',#527,#528,#529);
#531=CIRCLE('',#530,44.5);
#532=EDGE_CURVE('',#526,#517,#531,.T.);
#533=ORIENTED_EDGE('',*,*,#532,.F.);
#534=CARTESIAN_POINT('',(754.971563926,-109.741116077,-5.6));
#535=VERTEX_POINT('',#534);
#536=CARTESIAN_POINT('',(757.519068348,-108.156748309,-5.6));
#537=DIRECTION('',(-0.,-0.,-1.));
#538=DIRECTION('',(1.,0.,-0.));
#539=AXIS2_PLACEMENT_3D('',#536,#537,#538);
#540=CIRCLE('',#539,3.);
#541=EDGE_CURVE('',#526,#535,#540,.T.);
#542=ORIENTED_EDGE('',*,*,#541,.T.);
#543=CARTESIAN_POINT('',(753.122132799,-106.767416365,-5.6));
#544=VERTEX_POINT('',#543);
#545=CARTESIAN_POINT('',(753.122132799,-106.767416365,-5.6));
#546=DIRECTION('',(0.528122589,-0.84916814,0.));
#547=VECTOR('',#546,3.50189741);
#548=LINE('',#545,#547);
#549=EDGE_CURVE('',#544,#535,#548,.T.);
#550=ORIENTED_EDGE('',*,*,#549,.F.);
#551=CARTESIAN_POINT('',(750.574628377,-108.351784133,-5.6));
#552=DIRECTION('',(0.,0.,1.));
#553=DIRECTION('',(1.,0.,-0.));
#554=AXIS2_PLACEMENT_3D('',#551,#552,#553);
#555=CIRCLE('',#554,3.);
#556=EDGE_CURVE('',#544,#480,#555,.T.);
#557=ORIENTED_EDGE('',*,*,#556,.T.);
#558=EDGE_LOOP('',(#489,#498,#507,#515,#524,#533,#542,#550,#557));
#559=FACE_BOUND('',#558,.T.);
#560=ADVANCED_FACE('',(#478,#559),#458,.T.);
#561=CARTESIAN_POINT('',(780.009745416,-150.,-4.1));
#562=DIRECTION('',(0.,0.,-1.));
#563=DIRECTION('',(-1.,0.,0.));
#564=AXIS2_PLACEMENT_3D('',#561,#562,#563);
#565=CYLINDRICAL_SURFACE('',#564,54.);
#566=CARTESIAN_POINT('',(748.843151233,-105.901888849,-9.3));
#567=VERTEX_POINT('',#566);
#568=CARTESIAN_POINT('',(748.843150904,-105.901889082,-5.6));
#569=DIRECTION('',(0.,0.,-1.));
#570=VECTOR('',#569,3.7);
#571=LINE('',#568,#570);
#572=EDGE_CURVE('',#480,#567,#571,.T.);
#573=ORIENTED_EDGE('',*,*,#572,.T.);
#574=CARTESIAN_POINT('',(727.961276641,-135.6140034,-9.3));
#575=VERTEX_POINT('',#574);
#576=CARTESIAN_POINT('',(780.009745416,-150.,-9.3));
#577=DIRECTION('',(-0.,-0.,1.));
#578=DIRECTION('',(-1.,0.,0.));
#579=AXIS2_PLACEMENT_3D('',#576,#577,#578);
#580=CIRCLE('',#579,54.);
#581=EDGE_CURVE('',#567,#575,#580,.T.);
#582=ORIENTED_EDGE('',*,*,#581,.T.);
#583=CARTESIAN_POINT('',(727.961276641,-135.6140034,-9.3));
#584=DIRECTION('',(-0.,-0.,1.));
#585=VECTOR('',#584,3.7);
#586=LINE('',#583,#585);
#587=EDGE_CURVE('',#575,#482,#586,.T.);
#588=ORIENTED_EDGE('',*,*,#587,.T.);
#589=ORIENTED_EDGE('',*,*,#488,.F.);
#590=EDGE_LOOP('',(#573,#582,#588,#589));
#591=FACE_BOUND('',#590,.T.);
#592=ADVANCED_FACE('',(#591),#565,.T.);
#593=CARTESIAN_POINT('',(814.759745416,-115.25,-4.1));
#594=DIRECTION('',(0.,0.,-1.));
#595=DIRECTION('',(-1.,0.,0.));
#596=AXIS2_PLACEMENT_3D('',#593,#594,#595);
#597=CYLINDRICAL_SURFACE('',#596,1.75);
#598=CARTESIAN_POINT('',(813.009745416,-115.25,-9.3));
#599=VERTEX_POINT('',#598);
#600=CARTESIAN_POINT('',(813.009745416,-115.25,-8.1));
#601=VERTEX_POINT('',#600);
#602=CARTESIAN_POINT('',(813.009745416,-115.25,-9.3));
#603=DIRECTION('',(-0.,-0.,1.));
#604=VECTOR('',#603,1.2);
#605=LINE('',#602,#604);
#606=EDGE_CURVE('',#599,#601,#605,.T.);
#607=ORIENTED_EDGE('',*,*,#606,.F.);
#608=CARTESIAN_POINT('',(814.759745416,-115.25,-9.3));
#609=DIRECTION('',(-0.,-0.,1.));
#610=DIRECTION('',(-1.,0.,0.));
#611=AXIS2_PLACEMENT_3D('',#608,#609,#610);
#612=CIRCLE('',#611,1.75);
#613=EDGE_CURVE('',#599,#599,#612,.T.);
#614=ORIENTED_EDGE('',*,*,#613,.F.);
#615=ORIENTED_EDGE('',*,*,#606,.T.);
#616=CARTESIAN_POINT('',(816.509745416,-115.25,-8.1));
#617=VERTEX_POINT('',#616);
#618=CARTESIAN_POINT('',(814.759745416,-115.25,-8.1));
#619=DIRECTION('',(0.,0.,1.));
#620=DIRECTION('',(1.,0.,-0.));
#621=AXIS2_PLACEMENT_3D('',#618,#619,#620);
#622=CIRCLE('',#621,1.75);
#623=EDGE_CURVE('',#601,#617,#622,.T.);
#624=ORIENTED_EDGE('',*,*,#623,.T.);
#625=CARTESIAN_POINT('',(814.759745416,-115.25,-8.1));
#626=DIRECTION('',(0.,0.,1.));
#627=DIRECTION('',(1.,0.,-0.));
#628=AXIS2_PLACEMENT_3D('',#625,#626,#627);
#629=CIRCLE('',#628,1.75);
#630=EDGE_CURVE('',#617,#601,#629,.T.);
#631=ORIENTED_EDGE('',*,*,#630,.T.);
#632=EDGE_LOOP('',(#607,#614,#615,#624,#631));
#633=FACE_BOUND('',#632,.T.);
#634=ADVANCED_FACE('',(#633),#597,.F.);
#635=CARTESIAN_POINT('',(814.759745416,-184.75,-4.1));
#636=DIRECTION('',(0.,0.,-1.));
#637=DIRECTION('',(-1.,0.,0.));
#638=AXIS2_PLACEMENT_3D('',#635,#636,#637);
#639=CYLINDRICAL_SURFACE('',#638,1.75);
#640=CARTESIAN_POINT('',(813.009745416,-184.75,-9.3));
#641=VERTEX_POINT('',#640);
#642=CARTESIAN_POINT('',(813.009745416,-184.75,-8.1));
#643=VERTEX_POINT('',#642);
#644=CARTESIAN_POINT('',(813.009745416,-184.75,-9.3));
#645=DIRECTION('',(-0.,-0.,1.));
#646=VECTOR('',#645,1.2);
#647=LINE('',#644,#646);
#648=EDGE_CURVE('',#641,#643,#647,.T.);
#649=ORIENTED_EDGE('',*,*,#648,.F.);
#650=CARTESIAN_POINT('',(814.759745416,-184.75,-9.3));
#651=DIRECTION('',(-0.,-0.,1.));
#652=DIRECTION('',(-1.,0.,0.));
#653=AXIS2_PLACEMENT_3D('',#650,#651,#652);
#654=CIRCLE('',#653,1.75);
#655=EDGE_CURVE('',#641,#641,#654,.T.);
#656=ORIENTED_EDGE('',*,*,#655,.F.);
#657=ORIENTED_EDGE('',*,*,#648,.T.);
#658=CARTESIAN_POINT('',(816.509745416,-184.75,-8.1));
#659=VERTEX_POINT('',#658);
#660=CARTESIAN_POINT('',(814.759745416,-184.75,-8.1));
#661=DIRECTION('',(0.,0.,1.));
#662=DIRECTION('',(1.,0.,-0.));
#663=AXIS2_PLACEMENT_3D('',#660,#661,#662);
#664=CIRCLE('',#663,1.75);
#665=EDGE_CURVE('',#643,#659,#664,.T.);
#666=ORIENTED_EDGE('',*,*,#665,.T.);
#667=CARTESIAN_POINT('',(814.759745416,-184.75,-8.1));
#668=DIRECTION('',(0.,0.,1.));
#669=DIRECTION('',(1.,0.,-0.));
#670=AXIS2_PLACEMENT_3D('',#667,#668,#669);
#671=CIRCLE('',#670,1.75);
#672=EDGE_CURVE('',#659,#643,#671,.T.);
#673=ORIENTED_EDGE('',*,*,#672,.T.);
#674=EDGE_LOOP('',(#649,#656,#657,#666,#673));
#675=FACE_BOUND('',#674,.T.);
#676=ADVANCED_FACE('',(#675),#639,.F.);
#677=CARTESIAN_POINT('',(780.009745416,-150.,-4.1));
#678=DIRECTION('',(0.,0.,-1.));
#679=DIRECTION('',(-1.,0.,0.));
#680=AXIS2_PLACEMENT_3D('',#677,#678,#679);
#681=CYLINDRICAL_SURFACE('',#680,54.);
#682=CARTESIAN_POINT('',(732.597456764,-175.847144617,-9.3));
#683=VERTEX_POINT('',#682);
#684=CARTESIAN_POINT('',(732.597456929,-175.847144919,-5.6));
#685=DIRECTION('',(0.,0.,-1.));
#686=VECTOR('',#685,3.7);
#687=LINE('',#684,#686);
#688=EDGE_CURVE('',#352,#683,#687,.T.);
#689=ORIENTED_EDGE('',*,*,#688,.T.);
#690=CARTESIAN_POINT('',(788.618007781,-96.690546626,-9.3));
#691=VERTEX_POINT('',#690);
#692=CARTESIAN_POINT('',(780.009745416,-150.,-9.3));
#693=DIRECTION('',(-0.,-0.,1.));
#694=DIRECTION('',(-1.,0.,0.));
#695=AXIS2_PLACEMENT_3D('',#692,#693,#694);
#696=CIRCLE('',#695,54.);
#697=EDGE_CURVE('',#683,#691,#696,.T.);
#698=ORIENTED_EDGE('',*,*,#697,.T.);
#699=CARTESIAN_POINT('',(788.618007781,-96.690546626,-9.3));
#700=DIRECTION('',(-0.,-0.,1.));
#701=VECTOR('',#700,3.7);
#702=LINE('',#699,#701);
#703=EDGE_CURVE('',#691,#361,#702,.T.);
#704=ORIENTED_EDGE('',*,*,#703,.T.);
#705=ORIENTED_EDGE('',*,*,#367,.F.);
#706=EDGE_LOOP('',(#689,#698,#704,#705));
#707=FACE_BOUND('',#706,.T.);
#708=ADVANCED_FACE('',(#707),#681,.T.);
#709=CARTESIAN_POINT('',(747.5,-150.,-1.5));
#710=DIRECTION('',(0.,0.,1.));
#711=DIRECTION('',(1.,0.,-0.));
#712=AXIS2_PLACEMENT_3D('',#709,#710,#711);
#713=CYLINDRICAL_SURFACE('',#712,2.25);
#714=CARTESIAN_POINT('',(749.75,-150.,-1.4));
#715=VERTEX_POINT('',#714);
#716=CARTESIAN_POINT('',(749.75,-150.,-6.6));
#717=VERTEX_POINT('',#716);
#718=CARTESIAN_POINT('',(749.75,-150.,-1.4));
#719=DIRECTION('',(-0.,-0.,-1.));
#720=VECTOR('',#719,5.2);
#721=LINE('',#718,#720);
#722=EDGE_CURVE('',#715,#717,#721,.T.);
#723=ORIENTED_EDGE('',*,*,#722,.T.);
#724=CARTESIAN_POINT('',(747.5,-150.,-6.6));
#725=DIRECTION('',(0.,0.,1.));
#726=DIRECTION('',(1.,0.,-0.));
#727=AXIS2_PLACEMENT_3D('',#724,#725,#726);
#728=CIRCLE('',#727,2.25);
#729=EDGE_CURVE('',#717,#717,#728,.T.);
#730=ORIENTED_EDGE('',*,*,#729,.T.);
#731=ORIENTED_EDGE('',*,*,#722,.F.);
#732=CARTESIAN_POINT('',(747.5,-150.,-1.4));
#733=DIRECTION('',(0.,0.,1.));
#734=DIRECTION('',(1.,0.,-0.));
#735=AXIS2_PLACEMENT_3D('',#732,#733,#734);
#736=CIRCLE('',#735,2.25);
#737=EDGE_CURVE('',#715,#715,#736,.T.);
#738=ORIENTED_EDGE('',*,*,#737,.F.);
#739=EDGE_LOOP('',(#723,#730,#731,#738));
#740=FACE_BOUND('',#739,.T.);
#741=ADVANCED_FACE('',(#740),#713,.T.);
#742=CARTESIAN_POINT('',(812.5,-150.,-1.5));
#743=DIRECTION('',(0.,0.,1.));
#744=DIRECTION('',(1.,0.,-0.));
#745=AXIS2_PLACEMENT_3D('',#742,#743,#744);
#746=CYLINDRICAL_SURFACE('',#745,2.25);
#747=CARTESIAN_POINT('',(814.75,-150.,-1.4));
#748=VERTEX_POINT('',#747);
#749=CARTESIAN_POINT('',(814.75,-150.,-6.6));
#750=VERTEX_POINT('',#749);
#751=CARTESIAN_POINT('',(814.75,-150.,-1.4));
#752=DIRECTION('',(-0.,-0.,-1.));
#753=VECTOR('',#752,5.2);
#754=LINE('',#751,#753);
#755=EDGE_CURVE('',#748,#750,#754,.T.);
#756=ORIENTED_EDGE('',*,*,#755,.T.);
#757=CARTESIAN_POINT('',(812.5,-150.,-6.6));
#758=DIRECTION('',(0.,0.,1.));
#759=DIRECTION('',(1.,0.,-0.));
#760=AXIS2_PLACEMENT_3D('',#757,#758,#759);
#761=CIRCLE('',#760,2.25);
#762=EDGE_CURVE('',#750,#750,#761,.T.);
#763=ORIENTED_EDGE('',*,*,#762,.T.);
#764=ORIENTED_EDGE('',*,*,#755,.F.);
#765=CARTESIAN_POINT('',(812.5,-150.,-1.4));
#766=DIRECTION('',(0.,0.,1.));
#767=DIRECTION('',(1.,0.,-0.));
#768=AXIS2_PLACEMENT_3D('',#765,#766,#767);
#769=CIRCLE('',#768,2.25);
#770=EDGE_CURVE('',#748,#748,#769,.T.);
#771=ORIENTED_EDGE('',*,*,#770,.F.);
#772=EDGE_LOOP('',(#756,#763,#764,#771));
#773=FACE_BOUND('',#772,.T.);
#774=ADVANCED_FACE('',(#773),#746,.T.);
#775=CARTESIAN_POINT('',(757.722958179,-160.499263329,-14.7));
#776=DIRECTION('',(-0.426174626,0.904640917,0.));
#777=DIRECTION('',(-0.904640917,-0.426174626,0.));
#778=AXIS2_PLACEMENT_3D('',#775,#776,#777);
#779=PLANE('',#778);
#780=CARTESIAN_POINT('',(737.116878048,-170.206748718,-9.3));
#781=VERTEX_POINT('',#780);
#782=CARTESIAN_POINT('',(737.116877309,-170.206749066,-5.6));
#783=DIRECTION('',(0.,0.,-1.));
#784=VECTOR('',#783,3.7);
#785=LINE('',#782,#784);
#786=EDGE_CURVE('',#333,#781,#785,.T.);
#787=ORIENTED_EDGE('',*,*,#786,.T.);
#788=CARTESIAN_POINT('',(733.952949371,-171.697269535,-9.3));
#789=VERTEX_POINT('',#788);
#790=CARTESIAN_POINT('',(737.116878048,-170.206748718,-9.3));
#791=DIRECTION('',(-0.904640917,-0.426174626,0.));
#792=VECTOR('',#791,3.497441491);
#793=LINE('',#790,#792);
#794=EDGE_CURVE('',#781,#789,#793,.T.);
#795=ORIENTED_EDGE('',*,*,#794,.T.);
#796=CARTESIAN_POINT('',(733.952949079,-171.697269673,-9.3));
#797=DIRECTION('',(0.,0.,1.));
#798=VECTOR('',#797,3.7);
#799=LINE('',#796,#798);
#800=EDGE_CURVE('',#789,#335,#799,.T.);
#801=ORIENTED_EDGE('',*,*,#800,.T.);
#802=ORIENTED_EDGE('',*,*,#340,.F.);
#803=EDGE_LOOP('',(#787,#795,#801,#802));
#804=FACE_BOUND('',#803,.T.);
#805=ADVANCED_FACE('',(#804),#779,.T.);
#806=CARTESIAN_POINT('',(755.919066197,-144.844945144,-13.7));
#807=DIRECTION('',(0.209248354,0.977862529,0.));
#808=DIRECTION('',(-0.977862529,0.209248354,0.));
#809=AXIS2_PLACEMENT_3D('',#806,#807,#808);
#810=PLANE('',#809);
#811=CARTESIAN_POINT('',(730.225113176,-139.346813021,-9.3));
#812=VERTEX_POINT('',#811);
#813=CARTESIAN_POINT('',(730.225113176,-139.346813021,-5.6));
#814=DIRECTION('',(0.,0.,-1.));
#815=VECTOR('',#814,3.7);
#816=LINE('',#813,#815);
#817=EDGE_CURVE('',#500,#812,#816,.T.);
#818=ORIENTED_EDGE('',*,*,#817,.T.);
#819=CARTESIAN_POINT('',(733.644561744,-140.078525265,-9.3));
#820=VERTEX_POINT('',#819);
#821=CARTESIAN_POINT('',(733.644561744,-140.078525265,-9.3));
#822=DIRECTION('',(-0.977862529,0.209248354,0.));
#823=VECTOR('',#822,3.496860208);
#824=LINE('',#821,#823);
#825=EDGE_CURVE('',#820,#812,#824,.T.);
#826=ORIENTED_EDGE('',*,*,#825,.F.);
#827=CARTESIAN_POINT('',(733.644562585,-140.078525445,-9.3));
#828=DIRECTION('',(0.,0.,1.));
#829=VECTOR('',#828,3.7);
#830=LINE('',#827,#829);
#831=EDGE_CURVE('',#820,#509,#830,.T.);
#832=ORIENTED_EDGE('',*,*,#831,.T.);
#833=ORIENTED_EDGE('',*,*,#514,.T.);
#834=EDGE_LOOP('',(#818,#826,#832,#833));
#835=FACE_BOUND('',#834,.T.);
#836=ADVANCED_FACE('',(#835),#810,.F.);
#837=CARTESIAN_POINT('',(782.499586953,-125.490081499,-15.6));
#838=DIRECTION('',(-0.994879832,0.101064927,0.));
#839=DIRECTION('',(-0.101064927,-0.994879832,0.));
#840=AXIS2_PLACEMENT_3D('',#837,#838,#839);
#841=PLANE('',#840);
#842=CARTESIAN_POINT('',(785.155131486,-99.348988143,-9.3));
#843=VERTEX_POINT('',#842);
#844=CARTESIAN_POINT('',(785.155131486,-99.348988143,-5.6));
#845=DIRECTION('',(-0.,-0.,-1.));
#846=VECTOR('',#845,3.7);
#847=LINE('',#844,#846);
#848=EDGE_CURVE('',#370,#843,#847,.T.);
#849=ORIENTED_EDGE('',*,*,#848,.T.);
#850=CARTESIAN_POINT('',(784.800707692,-102.837924359,-9.3));
#851=VERTEX_POINT('',#850);
#852=CARTESIAN_POINT('',(785.155131486,-99.348988143,-9.3));
#853=DIRECTION('',(-0.101064927,-0.994879832,0.));
#854=VECTOR('',#853,3.506892093);
#855=LINE('',#852,#854);
#856=EDGE_CURVE('',#843,#851,#855,.T.);
#857=ORIENTED_EDGE('',*,*,#856,.T.);
#858=CARTESIAN_POINT('',(784.800707692,-102.837924359,-9.3));
#859=DIRECTION('',(-0.,-0.,1.));
#860=VECTOR('',#859,3.7);
#861=LINE('',#858,#860);
#862=EDGE_CURVE('',#851,#379,#861,.T.);
#863=ORIENTED_EDGE('',*,*,#862,.T.);
#864=ORIENTED_EDGE('',*,*,#384,.F.);
#865=EDGE_LOOP('',(#849,#857,#863,#864));
#866=FACE_BOUND('',#865,.T.);
#867=ADVANCED_FACE('',(#866),#841,.T.);
#868=CARTESIAN_POINT('',(761.229341748,-119.802995014,-15.6));
#869=DIRECTION('',(-0.84916814,-0.528122589,0.));
#870=DIRECTION('',(0.528122589,-0.84916814,0.));
#871=AXIS2_PLACEMENT_3D('',#868,#869,#870);
#872=PLANE('',#871);
#873=CARTESIAN_POINT('',(754.971564209,-109.741116532,-9.3));
#874=VERTEX_POINT('',#873);
#875=CARTESIAN_POINT('',(754.971563926,-109.741116077,-5.6));
#876=DIRECTION('',(-0.,-0.,-1.));
#877=VECTOR('',#876,3.7);
#878=LINE('',#875,#877);
#879=EDGE_CURVE('',#535,#874,#878,.T.);
#880=ORIENTED_EDGE('',*,*,#879,.T.);
#881=CARTESIAN_POINT('',(753.122133092,-106.767416837,-9.3));
#882=VERTEX_POINT('',#881);
#883=CARTESIAN_POINT('',(753.122133092,-106.767416837,-9.3));
#884=DIRECTION('',(0.528122589,-0.84916814,0.));
#885=VECTOR('',#884,3.501897391);
#886=LINE('',#883,#885);
#887=EDGE_CURVE('',#882,#874,#886,.T.);
#888=ORIENTED_EDGE('',*,*,#887,.F.);
#889=CARTESIAN_POINT('',(753.122132799,-106.767416365,-9.3));
#890=DIRECTION('',(-0.,-0.,1.));
#891=VECTOR('',#890,3.7);
#892=LINE('',#889,#891);
#893=EDGE_CURVE('',#882,#544,#892,.T.);
#894=ORIENTED_EDGE('',*,*,#893,.T.);
#895=ORIENTED_EDGE('',*,*,#549,.T.);
#896=EDGE_LOOP('',(#880,#888,#894,#895));
#897=FACE_BOUND('',#896,.T.);
#898=ADVANCED_FACE('',(#897),#872,.F.);
#899=CARTESIAN_POINT('',(788.139770983,-99.652182924,-4.1));
#900=DIRECTION('',(0.,0.,-1.));
#901=DIRECTION('',(-1.,0.,0.));
#902=AXIS2_PLACEMENT_3D('',#899,#900,#901);
#903=CYLINDRICAL_SURFACE('',#902,3.);
#904=ORIENTED_EDGE('',*,*,#703,.F.);
#905=CARTESIAN_POINT('',(788.139770983,-99.652182924,-9.3));
#906=DIRECTION('',(0.,0.,-1.));
#907=DIRECTION('',(-1.,0.,0.));
#908=AXIS2_PLACEMENT_3D('',#905,#906,#907);
#909=CIRCLE('',#908,3.);
#910=EDGE_CURVE('',#843,#691,#909,.T.);
#911=ORIENTED_EDGE('',*,*,#910,.F.);
#912=ORIENTED_EDGE('',*,*,#848,.F.);
#913=ORIENTED_EDGE('',*,*,#376,.F.);
#914=EDGE_LOOP('',(#904,#911,#912,#913));
#915=FACE_BOUND('',#914,.T.);
#916=ADVANCED_FACE('',(#915),#903,.T.);
#917=CARTESIAN_POINT('',(750.574628377,-108.351784133,-4.1));
#918=DIRECTION('',(0.,0.,-1.));
#919=DIRECTION('',(-1.,0.,0.));
#920=AXIS2_PLACEMENT_3D('',#917,#918,#919);
#921=CYLINDRICAL_SURFACE('',#920,3.);
#922=ORIENTED_EDGE('',*,*,#893,.F.);
#923=CARTESIAN_POINT('',(750.574628377,-108.351784133,-9.3));
#924=DIRECTION('',(0.,0.,-1.));
#925=DIRECTION('',(-1.,0.,0.));
#926=AXIS2_PLACEMENT_3D('',#923,#924,#925);
#927=CIRCLE('',#926,3.);
#928=EDGE_CURVE('',#567,#882,#927,.T.);
#929=ORIENTED_EDGE('',*,*,#928,.F.);
#930=ORIENTED_EDGE('',*,*,#572,.F.);
#931=ORIENTED_EDGE('',*,*,#556,.F.);
#932=EDGE_LOOP('',(#922,#929,#930,#931));
#933=FACE_BOUND('',#932,.T.);
#934=ADVANCED_FACE('',(#933),#921,.T.);
#935=CARTESIAN_POINT('',(781.816068195,-102.534729577,0.));
#936=DIRECTION('',(0.,0.,-1.));
#937=DIRECTION('',(-1.,0.,0.));
#938=AXIS2_PLACEMENT_3D('',#935,#936,#937);
#939=CYLINDRICAL_SURFACE('',#938,3.);
#940=CARTESIAN_POINT('',(781.701369875,-105.532536158,-9.3));
#941=VERTEX_POINT('',#940);
#942=CARTESIAN_POINT('',(781.816068195,-102.534729577,-9.3));
#943=DIRECTION('',(-0.,-0.,1.));
#944=DIRECTION('',(-1.,0.,0.));
#945=AXIS2_PLACEMENT_3D('',#942,#943,#944);
#946=CIRCLE('',#945,3.);
#947=EDGE_CURVE('',#941,#851,#946,.T.);
#948=ORIENTED_EDGE('',*,*,#947,.F.);
#949=CARTESIAN_POINT('',(781.701369151,-105.53253613,-5.6));
#950=DIRECTION('',(0.,0.,-1.));
#951=VECTOR('',#950,3.7);
#952=LINE('',#949,#951);
#953=EDGE_CURVE('',#387,#941,#952,.T.);
#954=ORIENTED_EDGE('',*,*,#953,.F.);
#955=ORIENTED_EDGE('',*,*,#393,.F.);
#956=ORIENTED_EDGE('',*,*,#862,.F.);
#957=EDGE_LOOP('',(#948,#954,#955,#956));
#958=FACE_BOUND('',#957,.T.);
#959=ADVANCED_FACE('',(#958),#939,.F.);
#960=CARTESIAN_POINT('',(757.519068348,-108.156748309,0.));
#961=DIRECTION('',(0.,0.,-1.));
#962=DIRECTION('',(-1.,0.,0.));
#963=AXIS2_PLACEMENT_3D('',#960,#961,#962);
#964=CYLINDRICAL_SURFACE('',#963,3.);
#965=CARTESIAN_POINT('',(758.938915837,-110.799480439,-9.3));
#966=VERTEX_POINT('',#965);
#967=CARTESIAN_POINT('',(757.519068348,-108.156748309,-9.3));
#968=DIRECTION('',(-0.,-0.,1.));
#969=DIRECTION('',(-1.,0.,0.));
#970=AXIS2_PLACEMENT_3D('',#967,#968,#969);
#971=CIRCLE('',#970,3.);
#972=EDGE_CURVE('',#874,#966,#971,.T.);
#973=ORIENTED_EDGE('',*,*,#972,.F.);
#974=ORIENTED_EDGE('',*,*,#879,.F.);
#975=ORIENTED_EDGE('',*,*,#541,.F.);
#976=CARTESIAN_POINT('',(758.938916662,-110.799479995,-9.3));
#977=DIRECTION('',(-0.,-0.,1.));
#978=VECTOR('',#977,3.7);
#979=LINE('',#976,#978);
#980=EDGE_CURVE('',#966,#526,#979,.T.);
#981=ORIENTED_EDGE('',*,*,#980,.F.);
#982=EDGE_LOOP('',(#973,#974,#975,#981));
#983=FACE_BOUND('',#982,.T.);
#984=ADVANCED_FACE('',(#983),#964,.F.);
#985=CARTESIAN_POINT('',(733.016817522,-143.012113033,0.));
#986=DIRECTION('',(0.,0.,-1.));
#987=DIRECTION('',(-1.,0.,0.));
#988=AXIS2_PLACEMENT_3D('',#985,#986,#987);
#989=CYLINDRICAL_SURFACE('',#988,3.);
#990=CARTESIAN_POINT('',(735.984176416,-143.453453262,-9.3));
#991=VERTEX_POINT('',#990);
#992=CARTESIAN_POINT('',(733.016817522,-143.012113033,-9.3));
#993=DIRECTION('',(-0.,-0.,1.));
#994=DIRECTION('',(-1.,0.,0.));
#995=AXIS2_PLACEMENT_3D('',#992,#993,#994);
#996=CIRCLE('',#995,3.);
#997=EDGE_CURVE('',#991,#820,#996,.T.);
#998=ORIENTED_EDGE('',*,*,#997,.F.);
#999=CARTESIAN_POINT('',(735.984176416,-143.453453262,-5.6));
#1000=DIRECTION('',(0.,0.,-1.));
#1001=VECTOR('',#1000,3.7);
#1002=LINE('',#999,#1001);
#1003=EDGE_CURVE('',#517,#991,#1002,.T.);
#1004=ORIENTED_EDGE('',*,*,#1003,.F.);
#1005=ORIENTED_EDGE('',*,*,#523,.F.);
#1006=ORIENTED_EDGE('',*,*,#831,.F.);
#1007=EDGE_LOOP('',(#998,#1004,#1005,#1006));
#1008=FACE_BOUND('',#1007,.T.);
#1009=ADVANCED_FACE('',(#1008),#989,.F.);
#1010=CARTESIAN_POINT('',(730.852858239,-136.413225433,-4.1));
#1011=DIRECTION('',(0.,0.,-1.));
#1012=DIRECTION('',(-1.,0.,0.));
#1013=AXIS2_PLACEMENT_3D('',#1010,#1011,#1012);
#1014=CYLINDRICAL_SURFACE('',#1013,3.);
#1015=CARTESIAN_POINT('',(727.852858239,-136.413225433,-9.3));
#1016=VERTEX_POINT('',#1015);
#1017=CARTESIAN_POINT('',(727.852858239,-136.413225433,-9.3));
#1018=DIRECTION('',(-0.,-0.,1.));
#1019=VECTOR('',#1018,3.7);
#1020=LINE('',#1017,#1019);
#1021=EDGE_CURVE('',#1016,#491,#1020,.T.);
#1022=ORIENTED_EDGE('',*,*,#1021,.T.);
#1023=ORIENTED_EDGE('',*,*,#497,.F.);
#1024=ORIENTED_EDGE('',*,*,#587,.F.);
#1025=CARTESIAN_POINT('',(730.852858239,-136.413225433,-9.3));
#1026=DIRECTION('',(0.,0.,-1.));
#1027=DIRECTION('',(-1.,0.,0.));
#1028=AXIS2_PLACEMENT_3D('',#1025,#1026,#1027);
#1029=CIRCLE('',#1028,3.);
#1030=EDGE_CURVE('',#1016,#575,#1029,.T.);
#1031=ORIENTED_EDGE('',*,*,#1030,.F.);
#1032=EDGE_LOOP('',(#1022,#1023,#1024,#1031));
#1033=FACE_BOUND('',#1032,.T.);
#1034=ADVANCED_FACE('',(#1033),#1014,.T.);
#1035=CARTESIAN_POINT('',(735.838353433,-167.492826315,0.));
#1036=DIRECTION('',(0.,0.,-1.));
#1037=DIRECTION('',(-1.,0.,0.));
#1038=AXIS2_PLACEMENT_3D('',#1035,#1036,#1037);
#1039=CYLINDRICAL_SURFACE('',#1038,3.);
#1040=CARTESIAN_POINT('',(738.627510058,-166.388016232,-9.3));
#1041=VERTEX_POINT('',#1040);
#1042=CARTESIAN_POINT('',(735.838353433,-167.492826315,-9.3));
#1043=DIRECTION('',(-0.,-0.,1.));
#1044=DIRECTION('',(-1.,0.,0.));
#1045=AXIS2_PLACEMENT_3D('',#1042,#1043,#1044);
#1046=CIRCLE('',#1045,3.);
#1047=EDGE_CURVE('',#781,#1041,#1046,.T.);
#1048=ORIENTED_EDGE('',*,*,#1047,.F.);
#1049=ORIENTED_EDGE('',*,*,#786,.F.);
#1050=ORIENTED_EDGE('',*,*,#409,.F.);
#1051=CARTESIAN_POINT('',(738.627510058,-166.388016232,-9.3));
#1052=DIRECTION('',(-0.,-0.,1.));
#1053=VECTOR('',#1052,3.7);
#1054=LINE('',#1051,#1053);
#1055=EDGE_CURVE('',#1041,#396,#1054,.T.);
#1056=ORIENTED_EDGE('',*,*,#1055,.F.);
#1057=EDGE_LOOP('',(#1048,#1049,#1050,#1056));
#1058=FACE_BOUND('',#1057,.T.);
#1059=ADVANCED_FACE('',(#1058),#1039,.F.);
#1060=CARTESIAN_POINT('',(735.231472956,-174.411192423,-4.1));
#1061=DIRECTION('',(0.,0.,-1.));
#1062=DIRECTION('',(-1.,0.,0.));
#1063=AXIS2_PLACEMENT_3D('',#1060,#1061,#1062);
#1064=CYLINDRICAL_SURFACE('',#1063,3.);
#1065=CARTESIAN_POINT('',(732.231472956,-174.411192423,-9.3));
#1066=VERTEX_POINT('',#1065);
#1067=CARTESIAN_POINT('',(732.231472956,-174.411192423,-9.3));
#1068=DIRECTION('',(-0.,-0.,1.));
#1069=VECTOR('',#1068,3.7);
#1070=LINE('',#1067,#1069);
#1071=EDGE_CURVE('',#1066,#343,#1070,.T.);
#1072=ORIENTED_EDGE('',*,*,#1071,.T.);
#1073=ORIENTED_EDGE('',*,*,#349,.F.);
#1074=ORIENTED_EDGE('',*,*,#800,.F.);
#1075=CARTESIAN_POINT('',(735.231472956,-174.411192423,-9.3));
#1076=DIRECTION('',(0.,0.,-1.));
#1077=DIRECTION('',(-1.,0.,0.));
#1078=AXIS2_PLACEMENT_3D('',#1075,#1076,#1077);
#1079=CIRCLE('',#1078,3.);
#1080=EDGE_CURVE('',#1066,#789,#1079,.T.);
#1081=ORIENTED_EDGE('',*,*,#1080,.F.);
#1082=EDGE_LOOP('',(#1072,#1073,#1074,#1081));
#1083=FACE_BOUND('',#1082,.T.);
#1084=ADVANCED_FACE('',(#1083),#1064,.T.);
#1085=CARTESIAN_POINT('',(780.,-150.,0.));
#1086=DIRECTION('',(0.,0.,-1.));
#1087=DIRECTION('',(-1.,0.,0.));
#1088=AXIS2_PLACEMENT_3D('',#1085,#1086,#1087);
#1089=CYLINDRICAL_SURFACE('',#1088,44.5);
#1090=CARTESIAN_POINT('',(735.5,-150.,-9.3));
#1091=VERTEX_POINT('',#1090);
#1092=CARTESIAN_POINT('',(735.5,-150.,0.1));
#1093=VERTEX_POINT('',#1092);
#1094=CARTESIAN_POINT('',(735.5,-150.,-9.3));
#1095=DIRECTION('',(-0.,-0.,1.));
#1096=VECTOR('',#1095,9.4);
#1097=LINE('',#1094,#1096);
#1098=EDGE_CURVE('',#1091,#1093,#1097,.T.);
#1099=ORIENTED_EDGE('',*,*,#1098,.T.);
#1100=CARTESIAN_POINT('',(824.5,-150.,0.1));
#1101=VERTEX_POINT('',#1100);
#1102=CARTESIAN_POINT('',(780.,-150.,0.1));
#1103=DIRECTION('',(0.,0.,1.));
#1104=DIRECTION('',(1.,0.,-0.));
#1105=AXIS2_PLACEMENT_3D('',#1102,#1103,#1104);
#1106=CIRCLE('',#1105,44.5);
#1107=EDGE_CURVE('',#1101,#1093,#1106,.T.);
#1108=ORIENTED_EDGE('',*,*,#1107,.F.);
#1109=CARTESIAN_POINT('',(780.,-150.,0.1));
#1110=DIRECTION('',(0.,0.,1.));
#1111=DIRECTION('',(1.,0.,-0.));
#1112=AXIS2_PLACEMENT_3D('',#1109,#1110,#1111);
#1113=CIRCLE('',#1112,44.5);
#1114=EDGE_CURVE('',#1093,#1101,#1113,.T.);
#1115=ORIENTED_EDGE('',*,*,#1114,.F.);
#1116=ORIENTED_EDGE('',*,*,#1098,.F.);
#1117=CARTESIAN_POINT('',(780.,-150.,-9.3));
#1118=DIRECTION('',(0.,0.,-1.));
#1119=DIRECTION('',(-1.,0.,0.));
#1120=AXIS2_PLACEMENT_3D('',#1117,#1118,#1119);
#1121=CIRCLE('',#1120,44.5);
#1122=EDGE_CURVE('',#1041,#1091,#1121,.T.);
#1123=ORIENTED_EDGE('',*,*,#1122,.F.);
#1124=ORIENTED_EDGE('',*,*,#1055,.T.);
#1125=ORIENTED_EDGE('',*,*,#402,.T.);
#1126=ORIENTED_EDGE('',*,*,#953,.T.);
#1127=CARTESIAN_POINT('',(780.,-150.,-9.3));
#1128=DIRECTION('',(0.,0.,-1.));
#1129=DIRECTION('',(-1.,0.,0.));
#1130=AXIS2_PLACEMENT_3D('',#1127,#1128,#1129);
#1131=CIRCLE('',#1130,44.5);
#1132=EDGE_CURVE('',#966,#941,#1131,.T.);
#1133=ORIENTED_EDGE('',*,*,#1132,.F.);
#1134=ORIENTED_EDGE('',*,*,#980,.T.);
#1135=ORIENTED_EDGE('',*,*,#532,.T.);
#1136=ORIENTED_EDGE('',*,*,#1003,.T.);
#1137=CARTESIAN_POINT('',(780.,-150.,-9.3));
#1138=DIRECTION('',(0.,0.,-1.));
#1139=DIRECTION('',(-1.,0.,0.));
#1140=AXIS2_PLACEMENT_3D('',#1137,#1138,#1139);
#1141=CIRCLE('',#1140,44.5);
#1142=EDGE_CURVE('',#1091,#991,#1141,.T.);
#1143=ORIENTED_EDGE('',*,*,#1142,.F.);
#1144=EDGE_LOOP('',(#1099,#1108,#1115,#1116,#1123,#1124,#1125,#1126,#1133,#1134,#1135,#1136,#1143));
#1145=FACE_BOUND('',#1144,.T.);
#1146=ADVANCED_FACE('',(#1145),#1089,.T.);
#1147=CARTESIAN_POINT('',(814.759745416,-184.75,-8.3));
#1148=DIRECTION('',(0.,0.,1.));
#1149=DIRECTION('',(1.,0.,-0.));
#1150=AXIS2_PLACEMENT_3D('',#1147,#1148,#1149);
#1151=CYLINDRICAL_SURFACE('',#1150,2.7);
#1152=CARTESIAN_POINT('',(817.459745416,-184.75,-8.1));
#1153=VERTEX_POINT('',#1152);
#1154=CARTESIAN_POINT('',(817.459745416,-184.75,-5.6));
#1155=DIRECTION('',(-0.,-0.,-1.));
#1156=VECTOR('',#1155,2.5);
#1157=LINE('',#1154,#1156);
#1158=EDGE_CURVE('',#434,#1153,#1157,.T.);
#1159=ORIENTED_EDGE('',*,*,#1158,.F.);
#1160=ORIENTED_EDGE('',*,*,#442,.T.);
#1161=ORIENTED_EDGE('',*,*,#449,.T.);
#1162=ORIENTED_EDGE('',*,*,#1158,.T.);
#1163=CARTESIAN_POINT('',(814.759745416,-184.75,-8.1));
#1164=DIRECTION('',(0.,0.,1.));
#1165=DIRECTION('',(1.,0.,-0.));
#1166=AXIS2_PLACEMENT_3D('',#1163,#1164,#1165);
#1167=CIRCLE('',#1166,2.7);
#1168=EDGE_CURVE('',#1153,#1153,#1167,.T.);
#1169=ORIENTED_EDGE('',*,*,#1168,.F.);
#1170=EDGE_LOOP('',(#1159,#1160,#1161,#1162,#1169));
#1171=FACE_BOUND('',#1170,.T.);
#1172=ADVANCED_FACE('',(#1171),#1151,.F.);
#1173=CARTESIAN_POINT('',(95.936847625,69.809573412,-8.1));
#1174=DIRECTION('',(0.,0.,1.));
#1175=DIRECTION('',(0.,1.,0.));
#1176=AXIS2_PLACEMENT_3D('',#1173,#1174,#1175);
#1177=PLANE('',#1176);
#1178=ORIENTED_EDGE('',*,*,#665,.F.);
#1179=ORIENTED_EDGE('',*,*,#672,.F.);
#1180=EDGE_LOOP('',(#1178,#1179));
#1181=FACE_BOUND('',#1180,.T.);
#1182=ORIENTED_EDGE('',*,*,#1168,.T.);
#1183=EDGE_LOOP('',(#1182));
#1184=FACE_BOUND('',#1183,.T.);
#1185=ADVANCED_FACE('',(#1181,#1184),#1177,.T.);
#1186=CARTESIAN_POINT('',(814.759745416,-115.25,-8.3));
#1187=DIRECTION('',(0.,0.,1.));
#1188=DIRECTION('',(1.,0.,-0.));
#1189=AXIS2_PLACEMENT_3D('',#1186,#1187,#1188);
#1190=CYLINDRICAL_SURFACE('',#1189,2.7);
#1191=CARTESIAN_POINT('',(817.459745416,-115.25,-8.1));
#1192=VERTEX_POINT('',#1191);
#1193=CARTESIAN_POINT('',(817.459745416,-115.25,-5.6));
#1194=DIRECTION('',(-0.,-0.,-1.));
#1195=VECTOR('',#1194,2.5);
#1196=LINE('',#1193,#1195);
#1197=EDGE_CURVE('',#414,#1192,#1196,.T.);
#1198=ORIENTED_EDGE('',*,*,#1197,.F.);
#1199=ORIENTED_EDGE('',*,*,#422,.T.);
#1200=ORIENTED_EDGE('',*,*,#429,.T.);
#1201=ORIENTED_EDGE('',*,*,#1197,.T.);
#1202=CARTESIAN_POINT('',(814.759745416,-115.25,-8.1));
#1203=DIRECTION('',(0.,0.,1.));
#1204=DIRECTION('',(1.,0.,-0.));
#1205=AXIS2_PLACEMENT_3D('',#1202,#1203,#1204);
#1206=CIRCLE('',#1205,2.7);
#1207=EDGE_CURVE('',#1192,#1192,#1206,.T.);
#1208=ORIENTED_EDGE('',*,*,#1207,.F.);
#1209=EDGE_LOOP('',(#1198,#1199,#1200,#1201,#1208));
#1210=FACE_BOUND('',#1209,.T.);
#1211=ADVANCED_FACE('',(#1210),#1190,.F.);
#1212=CARTESIAN_POINT('',(95.936847625,69.809573412,-8.1));
#1213=DIRECTION('',(0.,0.,1.));
#1214=DIRECTION('',(0.,1.,0.));
#1215=AXIS2_PLACEMENT_3D('',#1212,#1213,#1214);
#1216=PLANE('',#1215);
#1217=ORIENTED_EDGE('',*,*,#623,.F.);
#1218=ORIENTED_EDGE('',*,*,#630,.F.);
#1219=EDGE_LOOP('',(#1217,#1218));
#1220=FACE_BOUND('',#1219,.T.);
#1221=ORIENTED_EDGE('',*,*,#1207,.T.);
#1222=EDGE_LOOP('',(#1221));
#1223=FACE_BOUND('',#1222,.T.);
#1224=ADVANCED_FACE('',(#1220,#1223),#1216,.T.);
#1225=CARTESIAN_POINT('',(780.,-150.,-1.4));
#1226=DIRECTION('',(0.,0.,1.));
#1227=DIRECTION('',(1.,0.,0.));
#1228=AXIS2_PLACEMENT_3D('',#1225,#1226,#1227);
#1229=PLANE('',#1228);
#1230=CARTESIAN_POINT('',(790.8,-150.,-1.4));
#1231=VERTEX_POINT('',#1230);
#1232=CARTESIAN_POINT('',(780.,-150.,-1.4));
#1233=DIRECTION('',(-0.,-0.,-1.));
#1234=DIRECTION('',(1.,0.,-0.));
#1235=AXIS2_PLACEMENT_3D('',#1232,#1233,#1234);
#1236=CIRCLE('',#1235,10.8);
#1237=EDGE_CURVE('',#1231,#1231,#1236,.T.);
#1238=ORIENTED_EDGE('',*,*,#1237,.F.);
#1239=EDGE_LOOP('',(#1238));
#1240=FACE_BOUND('',#1239,.T.);
#1241=ORIENTED_EDGE('',*,*,#737,.T.);
#1242=EDGE_LOOP('',(#1241));
#1243=FACE_BOUND('',#1242,.T.);
#1244=ORIENTED_EDGE('',*,*,#770,.T.);
#1245=EDGE_LOOP('',(#1244));
#1246=FACE_BOUND('',#1245,.T.);
#1247=ORIENTED_EDGE('',*,*,#193,.T.);
#1248=ORIENTED_EDGE('',*,*,#200,.T.);
#1249=EDGE_LOOP('',(#1247,#1248));
#1250=FACE_BOUND('',#1249,.T.);
#1251=ADVANCED_FACE('',(#1240,#1243,#1246,#1250),#1229,.F.);
#1252=CARTESIAN_POINT('',(780.,-150.,-6.7));
#1253=DIRECTION('',(0.,0.,-1.));
#1254=DIRECTION('',(1.,0.,0.));
#1255=AXIS2_PLACEMENT_3D('',#1252,#1253,#1254);
#1256=CYLINDRICAL_SURFACE('',#1255,10.8);
#1257=CARTESIAN_POINT('',(790.8,-150.,0.1));
#1258=VERTEX_POINT('',#1257);
#1259=CARTESIAN_POINT('',(790.8,-150.,-1.4));
#1260=DIRECTION('',(-0.,-0.,1.));
#1261=VECTOR('',#1260,1.5);
#1262=LINE('',#1259,#1261);
#1263=EDGE_CURVE('',#1231,#1258,#1262,.T.);
#1264=ORIENTED_EDGE('',*,*,#1263,.F.);
#1265=ORIENTED_EDGE('',*,*,#1237,.T.);
#1266=ORIENTED_EDGE('',*,*,#1263,.T.);
#1267=CARTESIAN_POINT('',(780.,-150.,0.1));
#1268=DIRECTION('',(-0.,-0.,-1.));
#1269=DIRECTION('',(1.,0.,-0.));
#1270=AXIS2_PLACEMENT_3D('',#1267,#1268,#1269);
#1271=CIRCLE('',#1270,10.8);
#1272=EDGE_CURVE('',#1258,#1258,#1271,.T.);
#1273=ORIENTED_EDGE('',*,*,#1272,.F.);
#1274=EDGE_LOOP('',(#1264,#1265,#1266,#1273));
#1275=FACE_BOUND('',#1274,.T.);
#1276=ADVANCED_FACE('',(#1275),#1256,.F.);
#1277=COLOUR_RGB('',0.196078435,0.196078435,0.294117659);
#1278=FILL_AREA_STYLE_COLOUR('',#1277);
#1279=FILL_AREA_STYLE('',(#1278));
#1280=SURFACE_STYLE_FILL_AREA(#1279);
#1281=SURFACE_SIDE_STYLE('',(#1280));
#1282=SURFACE_STYLE_USAGE(.BOTH.,#1281);
#1283=PRESENTATION_STYLE_ASSIGNMENT((#1282));
#1284=OVER_RIDING_STYLED_ITEM('',(#1283),#1276,#26);
#1285=CARTESIAN_POINT('',(80.,-150.,0.1));
#1286=DIRECTION('',(0.,0.,1.));
#1287=DIRECTION('',(1.,0.,0.));
#1288=AXIS2_PLACEMENT_3D('',#1285,#1286,#1287);
#1289=PLANE('',#1288);
#1290=ORIENTED_EDGE('',*,*,#1107,.T.);
#1291=ORIENTED_EDGE('',*,*,#1114,.T.);
#1292=EDGE_LOOP('',(#1290,#1291));
#1293=FACE_BOUND('',#1292,.T.);
#1294=ORIENTED_EDGE('',*,*,#1272,.T.);
#1295=EDGE_LOOP('',(#1294));
#1296=FACE_BOUND('',#1295,.T.);
#1297=ADVANCED_FACE('',(#1293,#1296),#1289,.T.);
#1298=CARTESIAN_POINT('',(0.,0.,-9.3));
#1299=DIRECTION('',(0.,0.,-1.));
#1300=DIRECTION('',(0.,-1.,0.));
#1301=AXIS2_PLACEMENT_3D('',#1298,#1299,#1300);
#1302=PLANE('',#1301);
#1303=CARTESIAN_POINT('',(743.493824733,-172.616719876,-9.3));
#1304=VERTEX_POINT('',#1303);
#1305=CARTESIAN_POINT('',(746.493824733,-172.616719876,-9.3));
#1306=DIRECTION('',(0.,0.,-1.));
#1307=DIRECTION('',(-0.540274911,0.841488574,0.));
#1308=AXIS2_PLACEMENT_3D('',#1305,#1306,#1307);
#1309=CIRCLE('',#1308,3.);
#1310=EDGE_CURVE('',#1304,#171,#1309,.T.);
#1311=ORIENTED_EDGE('',*,*,#1310,.F.);
#1312=CARTESIAN_POINT('',(746.493824733,-172.616719876,-9.3));
#1313=DIRECTION('',(0.,0.,-1.));
#1314=DIRECTION('',(-0.540274911,0.841488574,0.));
#1315=AXIS2_PLACEMENT_3D('',#1312,#1313,#1314);
#1316=CIRCLE('',#1315,3.);
#1317=EDGE_CURVE('',#145,#1304,#1316,.T.);
#1318=ORIENTED_EDGE('',*,*,#1317,.F.);
#1319=ORIENTED_EDGE('',*,*,#151,.T.);
#1320=CARTESIAN_POINT('',(802.617284795,-183.507410278,-9.3));
#1321=DIRECTION('',(-0.,0.,-1.));
#1322=DIRECTION('',(-0.841791222,-0.539803241,0.));
#1323=AXIS2_PLACEMENT_3D('',#1320,#1321,#1322);
#1324=CIRCLE('',#1323,3.);
#1325=EDGE_CURVE('',#111,#137,#1324,.T.);
#1326=ORIENTED_EDGE('',*,*,#1325,.F.);
#1327=ORIENTED_EDGE('',*,*,#117,.T.);
#1328=CARTESIAN_POINT('',(813.507975197,-127.383950216,-9.3));
#1329=DIRECTION('',(0.,0.,-1.));
#1330=DIRECTION('',(0.539674934,-0.841873485,0.));
#1331=AXIS2_PLACEMENT_3D('',#1328,#1329,#1330);
#1332=CIRCLE('',#1331,3.);
#1333=EDGE_CURVE('',#77,#103,#1332,.T.);
#1334=ORIENTED_EDGE('',*,*,#1333,.F.);
#1335=ORIENTED_EDGE('',*,*,#83,.T.);
#1336=CARTESIAN_POINT('',(754.384515135,-116.493259814,-9.3));
#1337=VERTEX_POINT('',#1336);
#1338=CARTESIAN_POINT('',(757.384515135,-116.493259814,-9.3));
#1339=DIRECTION('',(0.,0.,-1.));
#1340=DIRECTION('',(0.841570939,0.540146605,0.));
#1341=AXIS2_PLACEMENT_3D('',#1338,#1339,#1340);
#1342=CIRCLE('',#1341,3.);
#1343=EDGE_CURVE('',#1337,#69,#1342,.T.);
#1344=ORIENTED_EDGE('',*,*,#1343,.F.);
#1345=CARTESIAN_POINT('',(757.384515135,-116.493259814,-9.3));
#1346=DIRECTION('',(0.,0.,-1.));
#1347=DIRECTION('',(0.841570939,0.540146605,0.));
#1348=AXIS2_PLACEMENT_3D('',#1345,#1346,#1347);
#1349=CIRCLE('',#1348,3.);
#1350=EDGE_CURVE('',#43,#1337,#1349,.T.);
#1351=ORIENTED_EDGE('',*,*,#1350,.F.);
#1352=ORIENTED_EDGE('',*,*,#49,.T.);
#1353=ORIENTED_EDGE('',*,*,#183,.T.);
#1354=EDGE_LOOP('',(#1311,#1318,#1319,#1326,#1327,#1334,#1335,#1344,#1351,#1352,#1353));
#1355=FACE_BOUND('',#1354,.T.);
#1356=ORIENTED_EDGE('',*,*,#227,.F.);
#1357=ORIENTED_EDGE('',*,*,#234,.F.);
#1358=EDGE_LOOP('',(#1356,#1357));
#1359=FACE_BOUND('',#1358,.T.);
#1360=ORIENTED_EDGE('',*,*,#278,.F.);
#1361=ORIENTED_EDGE('',*,*,#285,.F.);
#1362=EDGE_LOOP('',(#1360,#1361));
#1363=FACE_BOUND('',#1362,.T.);
#1364=ORIENTED_EDGE('',*,*,#1122,.T.);
#1365=ORIENTED_EDGE('',*,*,#1142,.T.);
#1366=ORIENTED_EDGE('',*,*,#997,.T.);
#1367=ORIENTED_EDGE('',*,*,#825,.T.);
#1368=CARTESIAN_POINT('',(730.852858239,-136.413225433,-9.3));
#1369=DIRECTION('',(0.,0.,-1.));
#1370=DIRECTION('',(-1.,0.,0.));
#1371=AXIS2_PLACEMENT_3D('',#1368,#1369,#1370);
#1372=CIRCLE('',#1371,3.);
#1373=EDGE_CURVE('',#812,#1016,#1372,.T.);
#1374=ORIENTED_EDGE('',*,*,#1373,.T.);
#1375=ORIENTED_EDGE('',*,*,#1030,.T.);
#1376=ORIENTED_EDGE('',*,*,#581,.F.);
#1377=ORIENTED_EDGE('',*,*,#928,.T.);
#1378=ORIENTED_EDGE('',*,*,#887,.T.);
#1379=ORIENTED_EDGE('',*,*,#972,.T.);
#1380=ORIENTED_EDGE('',*,*,#1132,.T.);
#1381=ORIENTED_EDGE('',*,*,#947,.T.);
#1382=ORIENTED_EDGE('',*,*,#856,.F.);
#1383=ORIENTED_EDGE('',*,*,#910,.T.);
#1384=ORIENTED_EDGE('',*,*,#697,.F.);
#1385=CARTESIAN_POINT('',(735.231472956,-174.411192423,-9.3));
#1386=DIRECTION('',(0.,0.,-1.));
#1387=DIRECTION('',(-1.,0.,0.));
#1388=AXIS2_PLACEMENT_3D('',#1385,#1386,#1387);
#1389=CIRCLE('',#1388,3.);
#1390=EDGE_CURVE('',#683,#1066,#1389,.T.);
#1391=ORIENTED_EDGE('',*,*,#1390,.T.);
#1392=ORIENTED_EDGE('',*,*,#1080,.T.);
#1393=ORIENTED_EDGE('',*,*,#794,.F.);
#1394=ORIENTED_EDGE('',*,*,#1047,.T.);
#1395=EDGE_LOOP('',(#1364,#1365,#1366,#1367,#1374,#1375,#1376,#1377,#1378,#1379,#1380,#1381,#1382,#1383,#1384,#1391,#1392,#1393,#1394));
#1396=FACE_BOUND('',#1395,.T.);
#1397=ORIENTED_EDGE('',*,*,#655,.T.);
#1398=EDGE_LOOP('',(#1397));
#1399=FACE_BOUND('',#1398,.T.);
#1400=ORIENTED_EDGE('',*,*,#613,.T.);
#1401=EDGE_LOOP('',(#1400));
#1402=FACE_BOUND('',#1401,.T.);
#1403=ADVANCED_FACE('',(#1355,#1359,#1363,#1396,#1399,#1402),#1302,.T.);
#1404=CARTESIAN_POINT('',(95.936847625,14.809573412,-6.6));
#1405=DIRECTION('',(0.,0.,1.));
#1406=DIRECTION('',(0.,1.,0.));
#1407=AXIS2_PLACEMENT_3D('',#1404,#1405,#1406);
#1408=PLANE('',#1407);
#1409=CARTESIAN_POINT('',(746.25,-150.,-6.6));
#1410=VERTEX_POINT('',#1409);
#1411=CARTESIAN_POINT('',(748.75,-150.,-6.6));
#1412=VERTEX_POINT('',#1411);
#1413=CARTESIAN_POINT('',(747.5,-150.,-6.6));
#1414=DIRECTION('',(-0.,-0.,-1.));
#1415=DIRECTION('',(1.,0.,-0.));
#1416=AXIS2_PLACEMENT_3D('',#1413,#1414,#1415);
#1417=CIRCLE('',#1416,1.25);
#1418=EDGE_CURVE('',#1410,#1412,#1417,.T.);
#1419=ORIENTED_EDGE('',*,*,#1418,.F.);
#1420=CARTESIAN_POINT('',(747.5,-150.,-6.6));
#1421=DIRECTION('',(-0.,-0.,-1.));
#1422=DIRECTION('',(1.,0.,-0.));
#1423=AXIS2_PLACEMENT_3D('',#1420,#1421,#1422);
#1424=CIRCLE('',#1423,1.25);
#1425=EDGE_CURVE('',#1412,#1410,#1424,.T.);
#1426=ORIENTED_EDGE('',*,*,#1425,.F.);
#1427=EDGE_LOOP('',(#1419,#1426));
#1428=FACE_BOUND('',#1427,.T.);
#1429=ORIENTED_EDGE('',*,*,#729,.F.);
#1430=EDGE_LOOP('',(#1429));
#1431=FACE_BOUND('',#1430,.T.);
#1432=ADVANCED_FACE('',(#1428,#1431),#1408,.F.);
#1433=CARTESIAN_POINT('',(95.936847625,14.809573412,-6.6));
#1434=DIRECTION('',(0.,0.,1.));
#1435=DIRECTION('',(0.,1.,0.));
#1436=AXIS2_PLACEMENT_3D('',#1433,#1434,#1435);
#1437=PLANE('',#1436);
#1438=CARTESIAN_POINT('',(811.25,-150.,-6.6));
#1439=VERTEX_POINT('',#1438);
#1440=CARTESIAN_POINT('',(813.75,-150.,-6.6));
#1441=VERTEX_POINT('',#1440);
#1442=CARTESIAN_POINT('',(812.5,-150.,-6.6));
#1443=DIRECTION('',(-0.,-0.,-1.));
#1444=DIRECTION('',(1.,0.,-0.));
#1445=AXIS2_PLACEMENT_3D('',#1442,#1443,#1444);
#1446=CIRCLE('',#1445,1.25);
#1447=EDGE_CURVE('',#1439,#1441,#1446,.T.);
#1448=ORIENTED_EDGE('',*,*,#1447,.F.);
#1449=CARTESIAN_POINT('',(812.5,-150.,-6.6));
#1450=DIRECTION('',(-0.,-0.,-1.));
#1451=DIRECTION('',(1.,0.,-0.));
#1452=AXIS2_PLACEMENT_3D('',#1449,#1450,#1451);
#1453=CIRCLE('',#1452,1.25);
#1454=EDGE_CURVE('',#1441,#1439,#1453,.T.);
#1455=ORIENTED_EDGE('',*,*,#1454,.F.);
#1456=EDGE_LOOP('',(#1448,#1455));
#1457=FACE_BOUND('',#1456,.T.);
#1458=ORIENTED_EDGE('',*,*,#762,.F.);
#1459=EDGE_LOOP('',(#1458));
#1460=FACE_BOUND('',#1459,.T.);
#1461=ADVANCED_FACE('',(#1457,#1460),#1437,.F.);
#1462=CARTESIAN_POINT('',(747.5,-150.,-1.7));
#1463=DIRECTION('',(0.,0.,-1.));
#1464=DIRECTION('',(-1.,0.,0.));
#1465=AXIS2_PLACEMENT_3D('',#1462,#1463,#1464);
#1466=CYLINDRICAL_SURFACE('',#1465,1.25);
#1467=CARTESIAN_POINT('',(746.25,-150.,-1.7));
#1468=VERTEX_POINT('',#1467);
#1469=CARTESIAN_POINT('',(746.25,-150.,-6.6));
#1470=DIRECTION('',(-0.,-0.,1.));
#1471=VECTOR('',#1470,4.9);
#1472=LINE('',#1469,#1471);
#1473=EDGE_CURVE('',#1410,#1468,#1472,.T.);
#1474=ORIENTED_EDGE('',*,*,#1473,.F.);
#1475=ORIENTED_EDGE('',*,*,#1418,.T.);
#1476=ORIENTED_EDGE('',*,*,#1425,.T.);
#1477=ORIENTED_EDGE('',*,*,#1473,.T.);
#1478=CARTESIAN_POINT('',(747.5,-148.75,-1.7));
#1479=VERTEX_POINT('',#1478);
#1480=CARTESIAN_POINT('',(747.5,-150.,-1.7));
#1481=DIRECTION('',(0.,0.,-1.));
#1482=DIRECTION('',(0.,1.,0.));
#1483=AXIS2_PLACEMENT_3D('',#1480,#1481,#1482);
#1484=CIRCLE('',#1483,1.25);
#1485=EDGE_CURVE('',#1479,#1468,#1484,.T.);
#1486=ORIENTED_EDGE('',*,*,#1485,.F.);
#1487=CARTESIAN_POINT('',(747.5,-150.,-1.7));
#1488=DIRECTION('',(0.,0.,-1.));
#1489=DIRECTION('',(0.,1.,0.));
#1490=AXIS2_PLACEMENT_3D('',#1487,#1488,#1489);
#1491=CIRCLE('',#1490,1.25);
#1492=EDGE_CURVE('',#1468,#1479,#1491,.T.);
#1493=ORIENTED_EDGE('',*,*,#1492,.F.);
#1494=EDGE_LOOP('',(#1474,#1475,#1476,#1477,#1486,#1493));
#1495=FACE_BOUND('',#1494,.T.);
#1496=ADVANCED_FACE('',(#1495),#1466,.F.);
#1497=CARTESIAN_POINT('',(0.,0.,-1.7));
#1498=DIRECTION('',(0.,0.,-1.));
#1499=DIRECTION('',(0.,1.,0.));
#1500=AXIS2_PLACEMENT_3D('',#1497,#1498,#1499);
#1501=PLANE('',#1500);
#1502=ORIENTED_EDGE('',*,*,#1485,.T.);
#1503=ORIENTED_EDGE('',*,*,#1492,.T.);
#1504=EDGE_LOOP('',(#1502,#1503));
#1505=FACE_BOUND('',#1504,.T.);
#1506=ADVANCED_FACE('',(#1505),#1501,.T.);
#1507=CARTESIAN_POINT('',(812.5,-150.,-1.7));
#1508=DIRECTION('',(0.,0.,-1.));
#1509=DIRECTION('',(-1.,0.,0.));
#1510=AXIS2_PLACEMENT_3D('',#1507,#1508,#1509);
#1511=CYLINDRICAL_SURFACE('',#1510,1.25);
#1512=CARTESIAN_POINT('',(811.25,-150.,-1.7));
#1513=VERTEX_POINT('',#1512);
#1514=CARTESIAN_POINT('',(811.25,-150.,-6.6));
#1515=DIRECTION('',(-0.,-0.,1.));
#1516=VECTOR('',#1515,4.9);
#1517=LINE('',#1514,#1516);
#1518=EDGE_CURVE('',#1439,#1513,#1517,.T.);
#1519=ORIENTED_EDGE('',*,*,#1518,.F.);
#1520=ORIENTED_EDGE('',*,*,#1447,.T.);
#1521=ORIENTED_EDGE('',*,*,#1454,.T.);
#1522=ORIENTED_EDGE('',*,*,#1518,.T.);
#1523=CARTESIAN_POINT('',(812.5,-148.75,-1.7));
#1524=VERTEX_POINT('',#1523);
#1525=CARTESIAN_POINT('',(812.5,-150.,-1.7));
#1526=DIRECTION('',(0.,0.,-1.));
#1527=DIRECTION('',(0.,1.,0.));
#1528=AXIS2_PLACEMENT_3D('',#1525,#1526,#1527);
#1529=CIRCLE('',#1528,1.25);
#1530=EDGE_CURVE('',#1524,#1513,#1529,.T.);
#1531=ORIENTED_EDGE('',*,*,#1530,.F.);
#1532=CARTESIAN_POINT('',(812.5,-150.,-1.7));
#1533=DIRECTION('',(0.,0.,-1.));
#1534=DIRECTION('',(0.,1.,0.));
#1535=AXIS2_PLACEMENT_3D('',#1532,#1533,#1534);
#1536=CIRCLE('',#1535,1.25);
#1537=EDGE_CURVE('',#1513,#1524,#1536,.T.);
#1538=ORIENTED_EDGE('',*,*,#1537,.F.);
#1539=EDGE_LOOP('',(#1519,#1520,#1521,#1522,#1531,#1538));
#1540=FACE_BOUND('',#1539,.T.);
#1541=ADVANCED_FACE('',(#1540),#1511,.F.);
#1542=CARTESIAN_POINT('',(0.,0.,-1.7));
#1543=DIRECTION('',(0.,0.,-1.));
#1544=DIRECTION('',(0.,1.,0.));
#1545=AXIS2_PLACEMENT_3D('',#1542,#1543,#1544);
#1546=PLANE('',#1545);
#1547=ORIENTED_EDGE('',*,*,#1530,.T.);
#1548=ORIENTED_EDGE('',*,*,#1537,.T.);
#1549=EDGE_LOOP('',(#1547,#1548));
#1550=FACE_BOUND('',#1549,.T.);
#1551=ADVANCED_FACE('',(#1550),#1546,.T.);
#1552=CARTESIAN_POINT('',(747.361986866,-113.25,-6.9));
#1553=DIRECTION('',(0.,0.,1.));
#1554=DIRECTION('',(1.,0.,-0.));
#1555=AXIS2_PLACEMENT_3D('',#1552,#1553,#1554);
#1556=CYLINDRICAL_SURFACE('',#1555,2.7);
#1557=CARTESIAN_POINT('',(750.061986866,-113.25,-8.1));
#1558=VERTEX_POINT('',#1557);
#1559=CARTESIAN_POINT('',(750.061986866,-113.25,-5.6));
#1560=DIRECTION('',(-0.,-0.,-1.));
#1561=VECTOR('',#1560,2.5);
#1562=LINE('',#1559,#1561);
#1563=EDGE_CURVE('',#460,#1558,#1562,.T.);
#1564=ORIENTED_EDGE('',*,*,#1563,.F.);
#1565=ORIENTED_EDGE('',*,*,#468,.T.);
#1566=ORIENTED_EDGE('',*,*,#475,.T.);
#1567=ORIENTED_EDGE('',*,*,#1563,.T.);
#1568=CARTESIAN_POINT('',(747.361986866,-113.25,-8.1));
#1569=DIRECTION('',(0.,0.,1.));
#1570=DIRECTION('',(1.,0.,-0.));
#1571=AXIS2_PLACEMENT_3D('',#1568,#1569,#1570);
#1572=CIRCLE('',#1571,2.7);
#1573=EDGE_CURVE('',#1558,#1558,#1572,.T.);
#1574=ORIENTED_EDGE('',*,*,#1573,.F.);
#1575=EDGE_LOOP('',(#1564,#1565,#1566,#1567,#1574));
#1576=FACE_BOUND('',#1575,.T.);
#1577=ADVANCED_FACE('',(#1576),#1556,.F.);
#1578=CARTESIAN_POINT('',(0.,0.,-8.1));
#1579=DIRECTION('',(0.,0.,1.));
#1580=DIRECTION('',(0.,-1.,0.));
#1581=AXIS2_PLACEMENT_3D('',#1578,#1579,#1580);
#1582=PLANE('',#1581);
#1583=ORIENTED_EDGE('',*,*,#1573,.T.);
#1584=EDGE_LOOP('',(#1583));
#1585=FACE_BOUND('',#1584,.T.);
#1586=ORIENTED_EDGE('',*,*,#295,.T.);
#1587=ORIENTED_EDGE('',*,*,#302,.T.);
#1588=EDGE_LOOP('',(#1586,#1587));
#1589=FACE_BOUND('',#1588,.T.);
#1590=ADVANCED_FACE('',(#1585,#1589),#1582,.T.);
#1591=CARTESIAN_POINT('',(747.361986866,-186.75,-7.4));
#1592=DIRECTION('',(0.,0.,1.));
#1593=DIRECTION('',(1.,0.,-0.));
#1594=AXIS2_PLACEMENT_3D('',#1591,#1592,#1593);
#1595=CYLINDRICAL_SURFACE('',#1594,2.7);
#1596=CARTESIAN_POINT('',(750.061986866,-186.75,-8.1));
#1597=VERTEX_POINT('',#1596);
#1598=CARTESIAN_POINT('',(750.061986866,-186.75,-5.6));
#1599=DIRECTION('',(-0.,-0.,-1.));
#1600=VECTOR('',#1599,2.5);
#1601=LINE('',#1598,#1600);
#1602=EDGE_CURVE('',#313,#1597,#1601,.T.);
#1603=ORIENTED_EDGE('',*,*,#1602,.F.);
#1604=ORIENTED_EDGE('',*,*,#321,.T.);
#1605=ORIENTED_EDGE('',*,*,#328,.T.);
#1606=ORIENTED_EDGE('',*,*,#1602,.T.);
#1607=CARTESIAN_POINT('',(747.361986866,-186.75,-8.1));
#1608=DIRECTION('',(0.,0.,1.));
#1609=DIRECTION('',(1.,0.,-0.));
#1610=AXIS2_PLACEMENT_3D('',#1607,#1608,#1609);
#1611=CIRCLE('',#1610,2.7);
#1612=EDGE_CURVE('',#1597,#1597,#1611,.T.);
#1613=ORIENTED_EDGE('',*,*,#1612,.F.);
#1614=EDGE_LOOP('',(#1603,#1604,#1605,#1606,#1613));
#1615=FACE_BOUND('',#1614,.T.);
#1616=ADVANCED_FACE('',(#1615),#1595,.F.);
#1617=CARTESIAN_POINT('',(0.,0.,-8.1));
#1618=DIRECTION('',(0.,0.,1.));
#1619=DIRECTION('',(0.,-1.,0.));
#1620=AXIS2_PLACEMENT_3D('',#1617,#1618,#1619);
#1621=PLANE('',#1620);
#1622=ORIENTED_EDGE('',*,*,#1612,.T.);
#1623=EDGE_LOOP('',(#1622));
#1624=FACE_BOUND('',#1623,.T.);
#1625=ORIENTED_EDGE('',*,*,#244,.T.);
#1626=ORIENTED_EDGE('',*,*,#251,.T.);
#1627=EDGE_LOOP('',(#1625,#1626));
#1628=FACE_BOUND('',#1627,.T.);
#1629=ADVANCED_FACE('',(#1624,#1628),#1621,.T.);
#1630=CARTESIAN_POINT('',(813.507975197,-127.383950216,-7.3));
#1631=DIRECTION('',(0.,0.,-1.));
#1632=DIRECTION('',(-1.,0.,0.));
#1633=AXIS2_PLACEMENT_3D('',#1630,#1631,#1632);
#1634=CYLINDRICAL_SURFACE('',#1633,3.);
#1635=ORIENTED_EDGE('',*,*,#1333,.T.);
#1636=ORIENTED_EDGE('',*,*,#108,.F.);
#1637=CARTESIAN_POINT('',(813.507975197,-127.383950216,-7.3));
#1638=DIRECTION('',(0.,0.,-1.));
#1639=DIRECTION('',(0.539674934,-0.841873485,0.));
#1640=AXIS2_PLACEMENT_3D('',#1637,#1638,#1639);
#1641=CIRCLE('',#1640,3.);
#1642=EDGE_CURVE('',#86,#94,#1641,.T.);
#1643=ORIENTED_EDGE('',*,*,#1642,.F.);
#1644=ORIENTED_EDGE('',*,*,#91,.T.);
#1645=EDGE_LOOP('',(#1635,#1636,#1643,#1644));
#1646=FACE_BOUND('',#1645,.T.);
#1647=ADVANCED_FACE('',(#1646),#1634,.F.);
#1648=CARTESIAN_POINT('',(0.,0.,-7.3));
#1649=DIRECTION('',(0.,0.,-1.));
#1650=DIRECTION('',(0.,-1.,0.));
#1651=AXIS2_PLACEMENT_3D('',#1648,#1649,#1650);
#1652=PLANE('',#1651);
#1653=ORIENTED_EDGE('',*,*,#1642,.T.);
#1654=ORIENTED_EDGE('',*,*,#100,.T.);
#1655=EDGE_LOOP('',(#1653,#1654));
#1656=FACE_BOUND('',#1655,.T.);
#1657=ADVANCED_FACE('',(#1656),#1652,.T.);
#1658=CARTESIAN_POINT('',(802.617284795,-183.507410278,-7.3));
#1659=DIRECTION('',(0.,0.,-1.));
#1660=DIRECTION('',(-1.,0.,0.));
#1661=AXIS2_PLACEMENT_3D('',#1658,#1659,#1660);
#1662=CYLINDRICAL_SURFACE('',#1661,3.);
#1663=ORIENTED_EDGE('',*,*,#1325,.T.);
#1664=ORIENTED_EDGE('',*,*,#142,.F.);
#1665=CARTESIAN_POINT('',(802.617284795,-183.507410278,-7.3));
#1666=DIRECTION('',(-0.,0.,-1.));
#1667=DIRECTION('',(-0.841791222,-0.539803241,0.));
#1668=AXIS2_PLACEMENT_3D('',#1665,#1666,#1667);
#1669=CIRCLE('',#1668,3.);
#1670=EDGE_CURVE('',#120,#128,#1669,.T.);
#1671=ORIENTED_EDGE('',*,*,#1670,.F.);
#1672=ORIENTED_EDGE('',*,*,#125,.T.);
#1673=EDGE_LOOP('',(#1663,#1664,#1671,#1672));
#1674=FACE_BOUND('',#1673,.T.);
#1675=ADVANCED_FACE('',(#1674),#1662,.F.);
#1676=CARTESIAN_POINT('',(0.,0.,-7.3));
#1677=DIRECTION('',(0.,0.,-1.));
#1678=DIRECTION('',(0.,-1.,0.));
#1679=AXIS2_PLACEMENT_3D('',#1676,#1677,#1678);
#1680=PLANE('',#1679);
#1681=ORIENTED_EDGE('',*,*,#1670,.T.);
#1682=ORIENTED_EDGE('',*,*,#134,.T.);
#1683=EDGE_LOOP('',(#1681,#1682));
#1684=FACE_BOUND('',#1683,.T.);
#1685=ADVANCED_FACE('',(#1684),#1680,.T.);
#1686=CARTESIAN_POINT('',(757.384515135,-116.493259814,-7.3));
#1687=DIRECTION('',(0.,0.,-1.));
#1688=DIRECTION('',(-1.,0.,0.));
#1689=AXIS2_PLACEMENT_3D('',#1686,#1687,#1688);
#1690=CYLINDRICAL_SURFACE('',#1689,3.);
#1691=CARTESIAN_POINT('',(754.384515135,-116.493259814,-7.3));
#1692=VERTEX_POINT('',#1691);
#1693=CARTESIAN_POINT('',(754.384515135,-116.493259814,-9.3));
#1694=DIRECTION('',(-0.,-0.,1.));
#1695=VECTOR('',#1694,2.);
#1696=LINE('',#1693,#1695);
#1697=EDGE_CURVE('',#1337,#1692,#1696,.T.);
#1698=ORIENTED_EDGE('',*,*,#1697,.F.);
#1699=ORIENTED_EDGE('',*,*,#1343,.T.);
#1700=ORIENTED_EDGE('',*,*,#74,.F.);
#1701=CARTESIAN_POINT('',(757.384515135,-116.493259814,-7.3));
#1702=DIRECTION('',(0.,0.,-1.));
#1703=DIRECTION('',(0.841570939,0.540146605,0.));
#1704=AXIS2_PLACEMENT_3D('',#1701,#1702,#1703);
#1705=CIRCLE('',#1704,3.);
#1706=EDGE_CURVE('',#1692,#60,#1705,.T.);
#1707=ORIENTED_EDGE('',*,*,#1706,.F.);
#1708=EDGE_LOOP('',(#1698,#1699,#1700,#1707));
#1709=FACE_BOUND('',#1708,.T.);
#1710=ADVANCED_FACE('',(#1709),#1690,.F.);
#1711=CARTESIAN_POINT('',(0.,0.,-7.3));
#1712=DIRECTION('',(0.,0.,-1.));
#1713=DIRECTION('',(0.,-1.,0.));
#1714=AXIS2_PLACEMENT_3D('',#1711,#1712,#1713);
#1715=PLANE('',#1714);
#1716=CARTESIAN_POINT('',(757.384515135,-116.493259814,-7.3));
#1717=DIRECTION('',(0.,0.,-1.));
#1718=DIRECTION('',(0.841570939,0.540146605,0.));
#1719=AXIS2_PLACEMENT_3D('',#1716,#1717,#1718);
#1720=CIRCLE('',#1719,3.);
#1721=EDGE_CURVE('',#52,#1692,#1720,.T.);
#1722=ORIENTED_EDGE('',*,*,#1721,.T.);
#1723=ORIENTED_EDGE('',*,*,#1706,.T.);
#1724=ORIENTED_EDGE('',*,*,#66,.T.);
#1725=EDGE_LOOP('',(#1722,#1723,#1724));
#1726=FACE_BOUND('',#1725,.T.);
#1727=ADVANCED_FACE('',(#1726),#1715,.T.);
#1728=CARTESIAN_POINT('',(746.493824733,-172.616719876,-7.3));
#1729=DIRECTION('',(0.,0.,-1.));
#1730=DIRECTION('',(-1.,0.,0.));
#1731=AXIS2_PLACEMENT_3D('',#1728,#1729,#1730);
#1732=CYLINDRICAL_SURFACE('',#1731,3.);
#1733=CARTESIAN_POINT('',(743.493824733,-172.616719876,-7.3));
#1734=VERTEX_POINT('',#1733);
#1735=CARTESIAN_POINT('',(743.493824733,-172.616719876,-9.3));
#1736=DIRECTION('',(-0.,-0.,1.));
#1737=VECTOR('',#1736,2.);
#1738=LINE('',#1735,#1737);
#1739=EDGE_CURVE('',#1304,#1734,#1738,.T.);
#1740=ORIENTED_EDGE('',*,*,#1739,.F.);
#1741=ORIENTED_EDGE('',*,*,#1310,.T.);
#1742=ORIENTED_EDGE('',*,*,#176,.F.);
#1743=CARTESIAN_POINT('',(746.493824733,-172.616719876,-7.3));
#1744=DIRECTION('',(0.,0.,-1.));
#1745=DIRECTION('',(-0.540274911,0.841488574,0.));
#1746=AXIS2_PLACEMENT_3D('',#1743,#1744,#1745);
#1747=CIRCLE('',#1746,3.);
#1748=EDGE_CURVE('',#1734,#162,#1747,.T.);
#1749=ORIENTED_EDGE('',*,*,#1748,.F.);
#1750=EDGE_LOOP('',(#1740,#1741,#1742,#1749));
#1751=FACE_BOUND('',#1750,.T.);
#1752=ADVANCED_FACE('',(#1751),#1732,.F.);
#1753=CARTESIAN_POINT('',(0.,0.,-7.3));
#1754=DIRECTION('',(0.,0.,-1.));
#1755=DIRECTION('',(0.,-1.,0.));
#1756=AXIS2_PLACEMENT_3D('',#1753,#1754,#1755);
#1757=PLANE('',#1756);
#1758=CARTESIAN_POINT('',(746.493824733,-172.616719876,-7.3));
#1759=DIRECTION('',(0.,0.,-1.));
#1760=DIRECTION('',(-0.540274911,0.841488574,0.));
#1761=AXIS2_PLACEMENT_3D('',#1758,#1759,#1760);
#1762=CIRCLE('',#1761,3.);
#1763=EDGE_CURVE('',#154,#1734,#1762,.T.);
#1764=ORIENTED_EDGE('',*,*,#1763,.T.);
#1765=ORIENTED_EDGE('',*,*,#1748,.T.);
#1766=ORIENTED_EDGE('',*,*,#168,.T.);
#1767=EDGE_LOOP('',(#1764,#1765,#1766));
#1768=FACE_BOUND('',#1767,.T.);
#1769=ADVANCED_FACE('',(#1768),#1757,.T.);
#1770=CARTESIAN_POINT('',(730.852858239,-136.413225433,-4.1));
#1771=DIRECTION('',(0.,0.,-1.));
#1772=DIRECTION('',(-1.,0.,0.));
#1773=AXIS2_PLACEMENT_3D('',#1770,#1771,#1772);
#1774=CYLINDRICAL_SURFACE('',#1773,3.);
#1775=ORIENTED_EDGE('',*,*,#1021,.F.);
#1776=ORIENTED_EDGE('',*,*,#1373,.F.);
#1777=ORIENTED_EDGE('',*,*,#817,.F.);
#1778=ORIENTED_EDGE('',*,*,#506,.F.);
#1779=EDGE_LOOP('',(#1775,#1776,#1777,#1778));
#1780=FACE_BOUND('',#1779,.T.);
#1781=ADVANCED_FACE('',(#1780),#1774,.T.);
#1782=CARTESIAN_POINT('',(735.231472956,-174.411192423,-4.1));
#1783=DIRECTION('',(0.,0.,-1.));
#1784=DIRECTION('',(-1.,0.,0.));
#1785=AXIS2_PLACEMENT_3D('',#1782,#1783,#1784);
#1786=CYLINDRICAL_SURFACE('',#1785,3.);
#1787=ORIENTED_EDGE('',*,*,#1071,.F.);
#1788=ORIENTED_EDGE('',*,*,#1390,.F.);
#1789=ORIENTED_EDGE('',*,*,#688,.F.);
#1790=ORIENTED_EDGE('',*,*,#358,.F.);
#1791=EDGE_LOOP('',(#1787,#1788,#1789,#1790));
#1792=FACE_BOUND('',#1791,.T.);
#1793=ADVANCED_FACE('',(#1792),#1786,.T.);
#1794=CARTESIAN_POINT('',(757.384515135,-116.493259814,-7.3));
#1795=DIRECTION('',(0.,0.,-1.));
#1796=DIRECTION('',(-1.,0.,0.));
#1797=AXIS2_PLACEMENT_3D('',#1794,#1795,#1796);
#1798=CYLINDRICAL_SURFACE('',#1797,3.);
#1799=ORIENTED_EDGE('',*,*,#1697,.T.);
#1800=ORIENTED_EDGE('',*,*,#1721,.F.);
#1801=ORIENTED_EDGE('',*,*,#57,.T.);
#1802=ORIENTED_EDGE('',*,*,#1350,.T.);
#1803=EDGE_LOOP('',(#1799,#1800,#1801,#1802));
#1804=FACE_BOUND('',#1803,.T.);
#1805=ADVANCED_FACE('',(#1804),#1798,.F.);
#1806=CARTESIAN_POINT('',(746.493824733,-172.616719876,-7.3));
#1807=DIRECTION('',(0.,0.,-1.));
#1808=DIRECTION('',(-1.,0.,0.));
#1809=AXIS2_PLACEMENT_3D('',#1806,#1807,#1808);
#1810=CYLINDRICAL_SURFACE('',#1809,3.);
#1811=ORIENTED_EDGE('',*,*,#1739,.T.);
#1812=ORIENTED_EDGE('',*,*,#1763,.F.);
#1813=ORIENTED_EDGE('',*,*,#159,.T.);
#1814=ORIENTED_EDGE('',*,*,#1317,.T.);
#1815=EDGE_LOOP('',(#1811,#1812,#1813,#1814));
#1816=FACE_BOUND('',#1815,.T.);
#1817=ADVANCED_FACE('',(#1816),#1810,.F.);
#1818=CLOSED_SHELL('',(#204,#255,#306,#453,#560,#592,#634,#676,#708,#741,#774,#805,#836,#867,#898,#916,#934,#959,#984,#1009,#1034,#1059,#1084,#1146,#1172,#1185,
#1211,#1224,#1251,#1276,#1297,#1403,#1432,#1461,#1496,#1506,#1541,#1551,#1577,#1590,#1616,#1629,#1647,#1657,#1675,#1685,#1710,#1727,#1752,#1769,#1781,
#1793,#1805,#1817));
#1819=MANIFOLD_SOLID_BREP('\X2\4E09548C8F6C\X0\boxone',#1818);
#1820=COLOUR_RGB('',0.627451003,0.627451003,0.643137276);
#1821=FILL_AREA_STYLE_COLOUR('',#1820);
#1822=FILL_AREA_STYLE('',(#1821));
#1823=SURFACE_STYLE_FILL_AREA(#1822);
#1824=SURFACE_SIDE_STYLE('',(#1823));
#1825=SURFACE_STYLE_USAGE(.BOTH.,#1824);
#1826=PRESENTATION_STYLE_ASSIGNMENT((#1825));
#26=STYLED_ITEM('',(#1826),#1819);
#16=SHAPE_REPRESENTATION('root',(#15),#10);
#17=ADVANCED_BREP_SHAPE_REPRESENTATION('root',(#1819),#10);
#1834=SHAPE_REPRESENTATION_RELATIONSHIP('','',#16,#17);
#1835=CARTESIAN_POINT('',(0.,0.,0.));
#1836=DIRECTION('',(0.,0.,1.));
#1837=DIRECTION('',(1.,0.,0.));
#1838=AXIS2_PLACEMENT_3D('',#1835,#1836,#1837);
#1840=MAPPED_ITEM('',#1839,#1838);
#1839=REPRESENTATION_MAP(#1838,#16);
#1841=APPLICATION_CONTEXT('Managed model based 3d engineering');
#1842=APPLICATION_PROTOCOL_DEFINITION('international standard','ap242_managed_model_based_3d_engineering',2014,#1841);
#1843=PRODUCT_CONTEXT('',#1841,'mechanical');
#1844=PRODUCT_DEFINITION_CONTEXT('part definition',#1841,'design');
#24=PRODUCT('root','root','',(#1843));
#1845=PRODUCT_RELATED_PRODUCT_CATEGORY('part','',(#24));
#1846=PRODUCT_DEFINITION_FORMATION_WITH_SPECIFIED_SOURCE('','',#24,.NOT_KNOWN.);
#25=PRODUCT_DEFINITION('design','',#1846,#1844);
#23=PRODUCT_DEFINITION_SHAPE('','',#25);
#1847=SHAPE_DEFINITION_REPRESENTATION(#23,#16);
#11=DRAUGHTING_MODEL('',(#1840),#10);
#1848=DESCRIPTIVE_REPRESENTATION_ITEM('KEY','C:\\Users\\chang\\AppData\\Local\\Packages\\Shapr3D.Shapr3D_dvv5p1vgwv6mp\\TempState\\5c300cc1-acd2-4d56-ba96-9d3ae51d12e9.tmp');
#1849=PROPERTY_DEFINITION('KEY','',#25);
#1850=REPRESENTATION('',(#1848),#10);
#1851=PROPERTY_DEFINITION_REPRESENTATION(#1849,#1850);
#1852=GENERAL_PROPERTY('','KEY','');
#1853=GENERAL_PROPERTY_ASSOCIATION('','',#1852,#1849);
#1=MECHANICAL_DESIGN_GEOMETRIC_PRESENTATION_REPRESENTATION('',(#1284,#26),#10);
ENDSEC;
END-ISO-10303-21;
